<svg width="38" height="16" viewBox="0 0 38 16" fill="none" xmlns="http://www.w3.org/2000/svg">
<path d="M1 7.30664C0.447715 7.30664 0 7.75436 0 8.30664C0 8.85893 0.447715 9.30664 1 9.30664V7.30664ZM37.7071 9.01375C38.0976 8.62322 38.0976 7.99006 37.7071 7.59953L31.3431 1.23557C30.9526 0.845048 30.3195 0.845048 29.9289 1.23557C29.5384 1.6261 29.5384 2.25926 29.9289 2.64979L35.5858 8.30664L29.9289 13.9635C29.5384 14.354 29.5384 14.9872 29.9289 15.3777C30.3195 15.7682 30.9526 15.7682 31.3431 15.3777L37.7071 9.01375ZM1 9.30664H37V7.30664H1V9.30664Z" fill="#74CCD8"/>
</svg>
