<svg width="25" height="8" viewBox="0 0 25 8" fill="none" xmlns="http://www.w3.org/2000/svg">
<path d="M24.5 4.71875C24.7761 4.71875 25 4.49489 25 4.21875C25 3.94261 24.7761 3.71875 24.5 3.71875V4.71875ZM0.146446 3.8652C-0.0488148 4.06046 -0.0488148 4.37704 0.146446 4.5723L3.32843 7.75428C3.52369 7.94955 3.84027 7.94955 4.03553 7.75428C4.2308 7.55902 4.2308 7.24244 4.03553 7.04718L1.20711 4.21875L4.03553 1.39032C4.2308 1.19506 4.2308 0.878478 4.03553 0.683216C3.84027 0.487954 3.52369 0.487954 3.32843 0.683216L0.146446 3.8652ZM24.5 3.71875L0.5 3.71875V4.71875L24.5 4.71875V3.71875Z" fill="#B7B8C5"/>
</svg>
