<svg width="52" height="51" viewBox="0 0 52 51" fill="none" xmlns="http://www.w3.org/2000/svg">
<path d="M3.87629 32.3643C3.68711 32.3643 3.49793 32.3075 3.32767 32.194C3.02499 31.9859 2.89256 31.6265 2.9304 31.267L3.57361 27.1618L0.584577 24.2863C0.319727 24.0404 0.225137 23.662 0.338645 23.3215C0.452152 22.981 0.735921 22.7161 1.09536 22.6594L5.20054 22.0162L6.97883 18.3083C7.13017 17.9867 7.45177 17.8164 7.81121 17.8164C7.81121 17.8164 7.81121 17.8164 7.83013 17.8164C8.18957 17.8164 8.51118 17.9677 8.68144 18.2894L10.5732 21.9783L14.6973 22.508C15.0568 22.5459 15.3595 22.7918 15.473 23.1323C15.5865 23.4729 15.4919 23.8512 15.2459 24.0971L12.3137 27.0294L13.0515 31.04C13.0704 31.1157 13.0893 31.1914 13.0893 31.267C13.0893 31.7967 12.6731 32.194 12.1434 32.194C11.9921 32.194 11.8407 32.1751 11.7083 32.1183L8.00039 30.2455L4.34924 32.2318C4.17898 32.3075 4.02763 32.3643 3.87629 32.3643ZM3.27092 24.2485L5.2573 26.1403C5.48431 26.3484 5.59782 26.67 5.54107 26.9727L5.10596 29.659L7.50853 28.3537C7.77338 28.2023 8.1139 28.2023 8.39767 28.3348L10.8381 29.5833L10.3462 26.897C10.2895 26.5943 10.384 26.2727 10.6111 26.0646L12.5407 24.135L9.83543 23.7755C9.53274 23.7377 9.24897 23.5485 9.11655 23.2648L7.84905 20.8244L6.67614 23.3026C6.54371 23.5864 6.27886 23.7755 5.97618 23.8323L3.27092 24.2485Z" fill="#74CCD8"/>
<path d="M44.1525 50.5447C43.812 50.5447 43.4903 50.3555 43.3201 50.0528L41.0878 45.9855L37.0204 43.7532C36.7177 43.5829 36.5286 43.2613 36.5286 42.9208C36.5286 42.5803 36.7177 42.2587 37.0204 42.0884L41.0878 39.8561L43.3201 35.7887C43.4903 35.4861 43.812 35.2969 44.1525 35.2969C44.493 35.2969 44.8146 35.4861 44.9849 35.7887L47.1983 39.875L51.2656 42.1073C51.5683 42.2776 51.7575 42.5992 51.7575 42.9397C51.7575 43.2802 51.5683 43.6018 51.2656 43.7721L47.1983 45.9855L44.9659 50.0528C44.8146 50.3555 44.493 50.5447 44.1525 50.5447ZM39.4608 42.9397L42.2607 44.4721C42.412 44.5666 42.5445 44.6802 42.639 44.8504L44.1714 47.6503L45.7037 44.8504C45.7983 44.6991 45.9118 44.5666 46.0821 44.4721L48.8819 42.9397L46.0821 41.4074C45.9308 41.3128 45.7983 41.1993 45.7037 41.029L44.1714 38.2291L42.639 41.029C42.5445 41.1803 42.4309 41.3128 42.2607 41.4074L39.4608 42.9397Z" fill="#74CCD8"/>
<path d="M29.4911 32.006H22.6428C22.3023 32.006 21.9996 31.8168 21.8294 31.533L18.4052 25.5739C18.235 25.2901 18.235 24.9307 18.4052 24.628L21.8294 18.6878C21.9996 18.3851 22.3023 18.2148 22.6428 18.2148H29.4911C29.8316 18.2148 30.1343 18.404 30.3046 18.6878L33.7287 24.6469C33.899 24.9307 33.899 25.2901 33.7287 25.5928L30.3046 31.552C30.1532 31.8357 29.8316 32.006 29.4911 32.006ZM23.1914 30.1142H28.9425L31.818 25.101L28.9425 20.0877H23.1914L20.3159 25.101L23.1914 30.1142Z" fill="#74CCD8"/>
<path d="M49.79 13.8249H38.5717C38.042 13.8249 37.6258 13.4088 37.6258 12.8791V1.66074C37.6258 1.13104 38.042 0.714844 38.5717 0.714844H49.79C50.3197 0.714844 50.7359 1.13104 50.7359 1.66074V12.8791C50.7359 13.4088 50.3197 13.8249 49.79 13.8249ZM39.5176 11.9332H48.8441V2.60663H39.5176V11.9332Z" fill="#74CCD8"/>
<path d="M11.9921 49.5789H3.81952C3.28982 49.5789 2.87363 49.1627 2.87363 48.633V37.4146C2.87363 36.8849 3.28982 36.4688 3.81952 36.4688H11.9921C12.5218 36.4688 12.9379 36.8849 12.9379 37.4146V48.633C12.9379 49.1437 12.5218 49.5789 11.9921 49.5789ZM4.76542 47.6871H11.0462V38.3605H4.76542V47.6871Z" fill="#74CCD8"/>
<path d="M26.067 50.7156C25.8211 50.7156 25.5751 50.621 25.4049 50.4318L18.6512 43.6781C18.4809 43.5079 18.3674 43.2619 18.3674 43.016C18.3674 42.7701 18.462 42.5241 18.6512 42.3539L25.4049 35.6002C25.7832 35.2218 26.3697 35.2218 26.748 35.6002L33.5017 42.3539C33.672 42.5241 33.7855 42.7701 33.7855 43.016C33.7855 43.2619 33.6909 43.5079 33.5017 43.6781L26.748 50.4318C26.5588 50.621 26.3129 50.7156 26.067 50.7156ZM20.6565 43.016L26.067 48.4265L31.4775 43.016L26.067 37.6055L20.6565 43.016Z" fill="#74CCD8"/>
<path d="M32.518 13.8444H19.6349C19.2944 13.8444 18.9917 13.6552 18.8214 13.3714C18.6512 13.0876 18.6512 12.7093 18.8214 12.4255L25.2724 1.26396C25.4427 0.980195 25.7454 0.791016 26.0859 0.791016C26.4264 0.791016 26.7291 0.980195 26.8994 1.26396L33.3125 12.3498C33.4261 12.5012 33.4828 12.6904 33.4828 12.8985C33.4639 13.4282 33.0477 13.8444 32.518 13.8444ZM21.2618 11.9526H30.8721L26.067 3.6287L21.2618 11.9526Z" fill="#74CCD8"/>
<path d="M44.2282 31.6258C40.5959 31.6258 37.6447 28.6746 37.6447 25.0424C37.6447 21.4102 40.5959 18.459 44.2282 18.459C47.8604 18.459 50.8116 21.4102 50.8116 25.0424C50.8116 28.6746 47.8604 31.6258 44.2282 31.6258ZM44.2282 20.3508C41.6364 20.3508 39.5365 22.4507 39.5365 25.0424C39.5365 27.6342 41.6364 29.734 44.2282 29.734C46.8199 29.734 48.9198 27.6342 48.9198 25.0424C48.9198 22.4507 46.8199 20.3508 44.2282 20.3508Z" fill="#74CCD8"/>
<path d="M7.9058 13.9202C4.27356 13.9202 1.32237 10.969 1.32237 7.33672C1.32237 3.70448 4.27356 0.734375 7.9058 0.734375C11.538 0.734375 14.4892 3.68557 14.4892 7.3178C14.4892 10.95 11.538 13.9202 7.9058 13.9202ZM7.9058 2.62616C5.31405 2.62616 3.21416 4.72605 3.21416 7.3178C3.21416 9.90956 5.31405 12.0094 7.9058 12.0094C10.4976 12.0094 12.5974 9.90956 12.5974 7.3178C12.5974 4.72605 10.4976 2.62616 7.9058 2.62616Z" fill="#74CCD8"/>
</svg>
