<svg width="26" height="24" viewBox="0 0 26 24" fill="none" xmlns="http://www.w3.org/2000/svg">
<path d="M14.9339 23.8861C13.2807 23.8861 11.6542 23.9395 10.001 23.8861C6.93457 23.7794 4.24148 21.4857 3.46821 18.4986C2.40164 14.2579 1.3084 10.0172 0.188503 5.77646C-0.371448 3.66944 0.775117 2.14919 2.96159 2.20253C5.68135 2.30922 8.1078 4.22954 8.72108 6.89664C8.98772 8.01683 9.09438 9.16369 9.20104 10.3105C9.2277 10.6573 9.09438 11.1107 8.88107 11.4041C7.92115 12.6576 6.93457 13.8845 5.868 15.058C5.01474 16.0182 4.69477 17.0583 5.14806 18.2319C5.60136 19.4054 6.53461 20.0722 7.8145 20.0988C9.09438 20.0988 10.001 19.4587 10.5343 18.2852C10.6409 18.0452 10.6676 17.7784 10.7476 17.5117C11.3342 15.9381 12.1074 15.4047 13.7873 15.4047C16.5071 15.4047 19.2002 15.3781 21.9199 15.4047C24.1864 15.4314 25.1463 16.4449 25.0396 18.7119C24.8797 21.4857 22.7198 23.7528 19.9734 23.8595C18.2936 23.9395 16.6137 23.8861 14.9339 23.8861Z" fill="#B7B8C5"/>
<path d="M10.7208 15.832C9.84088 15.2185 9.06761 14.6584 8.21436 14.045C9.94754 11.5912 11.7607 9.03083 13.5739 6.4704C14.8271 4.6301 16.107 2.81646 17.4135 1.0295C17.9735 0.229367 18.7468 -0.0373435 19.6 0.54942C20.3999 1.08284 20.5066 1.90965 20 2.65644C16.9069 7.08384 13.7872 11.5112 10.7208 15.832Z" fill="#B7B8C5"/>
<path d="M7.84108 15.4043C6.74784 15.4043 5.86792 16.2844 5.86792 17.378C5.86792 18.4715 6.74784 19.3516 7.84108 19.3516C8.93432 19.3516 9.81424 18.4715 9.81424 17.378C9.81424 16.2844 8.93432 15.4043 7.84108 15.4043ZM7.84108 18.2314C7.36112 18.2314 6.96116 17.8314 6.96116 17.3513C6.96116 16.8712 7.36112 16.4711 7.84108 16.4711C8.32104 16.4711 8.69434 16.8712 8.69434 17.3513C8.69434 17.858 8.32104 18.2314 7.84108 18.2314Z" fill="#B7B8C5"/>
</svg>
