<svg width="26" height="26" viewBox="0 0 26 26" fill="none" xmlns="http://www.w3.org/2000/svg">
<path d="M7.44881 0.632812C7.77433 0.632812 8.09985 0.632812 8.42537 0.632812C8.47746 0.645833 8.53605 0.671875 8.58813 0.671875C9.78605 0.795573 10.8472 1.24479 11.7847 1.99349C11.9801 2.14974 12.1624 2.33203 12.3512 2.5013C11.9215 2.6901 11.5243 2.85286 11.1402 3.04818C10.9644 3.13932 10.8538 3.1263 10.691 3.00911C8.51001 1.42057 5.39803 1.99349 4.05037 4.23307C3.48397 5.17708 3.30168 6.21224 3.29517 7.29297C3.28866 8.4388 3.29517 9.58464 3.29517 10.737C3.29517 10.8086 3.30168 10.8802 3.30819 10.9648C3.39282 10.9648 3.46444 10.9648 3.53605 10.9648C5.35246 10.9258 7.12329 10.6133 8.86157 10.0859C11.3225 9.34375 13.7965 9.32422 16.2769 9.94922C17.8525 10.3464 19.4084 10.8151 21.0491 10.9128C21.4722 10.9388 21.9019 10.9583 22.3446 10.9779C22.3446 10.6914 22.3316 10.4505 22.3446 10.2031C22.3642 9.84505 22.6441 9.55859 22.9957 9.51953C23.3472 9.48047 23.6728 9.69531 23.7704 10.0469C23.803 10.1641 23.803 10.2878 23.803 10.4049C23.803 14.0313 23.803 17.6641 23.803 21.2904C23.803 21.3815 23.803 21.4727 23.803 21.5964C23.9527 21.4922 24.0569 21.4141 24.1676 21.349C24.5777 21.1146 24.9749 21.2318 25.1962 21.6484C25.2157 21.6875 25.2483 21.7266 25.2678 21.7656C25.2678 21.8958 25.2678 22.026 25.2678 22.1563C25.1311 22.319 25.0139 22.5143 24.8512 22.6445C24.1871 23.1914 23.4319 23.582 22.6376 23.9141C20.3134 24.8841 17.8785 25.3724 15.372 25.5352C14.9618 25.5612 14.5452 25.5938 14.135 25.6263C13.2887 25.6263 12.4423 25.6263 11.5959 25.6263C11.4788 25.6133 11.3551 25.5872 11.2379 25.5872C9.18058 25.5091 7.14933 25.2487 5.15715 24.6953C3.60767 24.2656 2.13631 23.6536 0.814697 22.7227C0.606364 22.5729 0.450114 22.3516 0.267822 22.1628C0.267822 22.0326 0.267822 21.9023 0.267822 21.7721C0.411051 21.4857 0.606364 21.2122 0.951416 21.2513C1.2509 21.2839 1.53084 21.4466 1.83032 21.5508C1.83032 21.4727 1.83032 21.375 1.83032 21.2773C1.83032 16.6615 1.82381 12.0391 1.83683 7.42318C1.83683 6.84375 1.8759 6.2513 1.98657 5.67839C2.45532 3.23698 3.84855 1.59635 6.25741 0.880208C6.64803 0.769531 7.05168 0.717448 7.44881 0.632812ZM3.29517 21.2448C3.29517 21.6094 3.30168 21.9479 3.28866 22.2865C3.28215 22.4232 3.33423 22.4948 3.45793 22.5404C3.94621 22.7227 4.42147 22.931 4.91626 23.0872C6.72616 23.6732 8.59465 23.9596 10.4957 24.0833C13.3147 24.2656 16.1207 24.1549 18.8941 23.5755C20.0074 23.3411 21.0946 23.0156 22.1428 22.5469C22.2209 22.5143 22.3251 22.4297 22.3316 22.3646C22.3512 21.9935 22.3381 21.6224 22.3381 21.2383C15.984 21.2448 9.65584 21.2448 3.29517 21.2448ZM9.15454 16.1602C9.15454 16.6419 9.15454 17.1172 9.15454 17.599C9.15454 18.0677 9.46053 18.3997 9.88371 18.4063C10.3069 18.4063 10.6194 18.0742 10.6194 17.6055C10.6194 16.6419 10.6194 15.6719 10.6194 14.7083C10.6194 14.2396 10.3069 13.9141 9.8772 13.9206C9.46053 13.9271 9.16105 14.2526 9.15454 14.7083C9.15454 15.1836 9.15454 15.6719 9.15454 16.1602ZM6.22485 16.1602C6.22485 16.6419 6.22485 17.1172 6.22485 17.599C6.22485 18.0677 6.53084 18.3997 6.95402 18.4063C7.3772 18.4063 7.6897 18.0742 7.6897 17.6055C7.6897 16.6419 7.6897 15.6719 7.6897 14.7083C7.6897 14.2396 7.3772 13.9141 6.94751 13.9206C6.53084 13.9271 6.23136 14.2526 6.22485 14.7083C6.22485 15.1836 6.22485 15.6719 6.22485 16.1602ZM12.0842 16.1406C12.0842 16.6354 12.0842 17.1302 12.0842 17.625C12.0907 18.0742 12.4032 18.4063 12.8199 18.3997C13.2366 18.3997 13.5491 18.0677 13.5491 17.6185C13.5491 16.6419 13.5491 15.6719 13.5491 14.6953C13.5491 14.2396 13.2496 13.9141 12.8264 13.9076C12.3967 13.901 12.0842 14.2266 12.0842 14.6953C12.0842 15.1836 12.0842 15.6589 12.0842 16.1406ZM15.0139 16.1602C15.0139 16.6419 15.0139 17.1172 15.0139 17.599C15.0139 18.0677 15.3199 18.3997 15.7431 18.4063C16.1663 18.4063 16.4788 18.0742 16.4788 17.6055C16.4788 16.6419 16.4788 15.6719 16.4788 14.7083C16.4788 14.2396 16.1663 13.9141 15.7366 13.9206C15.3199 13.9271 15.0204 14.2526 15.0139 14.7083C15.0139 15.1836 15.0139 15.6719 15.0139 16.1602ZM17.9436 16.1602C17.9436 16.6419 17.9436 17.1172 17.9436 17.599C17.9436 18.0677 18.2496 18.3997 18.6728 18.4063C19.0959 18.4063 19.4084 18.0742 19.4084 17.6055C19.4084 16.6419 19.4084 15.6719 19.4084 14.7083C19.4084 14.2396 19.0959 13.9141 18.6663 13.9206C18.2496 13.9271 17.9501 14.2526 17.9436 14.7083C17.9436 15.1836 17.9436 15.6719 17.9436 16.1602Z" fill="#B7B8C5"/>
<path d="M11.4267 6.65587C11.2053 6.88374 10.9905 7.10509 10.7691 7.32645C10.4696 7.62592 10.092 7.64546 9.83162 7.37853C9.5712 7.11811 9.59073 6.74051 9.89021 6.44103C10.1246 6.20665 10.359 5.97228 10.5933 5.73139C10.5998 5.72488 10.6064 5.70535 10.6259 5.65978C10.372 5.41238 10.0985 5.15848 9.83813 4.89155C9.49308 4.53348 9.64282 3.98009 10.1116 3.84988C10.3525 3.78478 10.5608 3.85639 10.7366 4.03217C10.9644 4.26004 11.1923 4.49441 11.4332 4.7353C12.0452 4.27957 12.7353 4.03868 13.4579 3.88894C14.4475 3.68061 15.3069 4.05171 15.6975 4.88504C16.01 5.5491 15.9579 6.20014 15.5282 6.79259C15.092 7.39155 14.4866 7.64546 13.7509 7.5478C12.911 7.43061 12.1363 7.1702 11.4267 6.65587Z" fill="#B7B8C5"/>
</svg>
