<svg width="31" height="31" viewBox="0 0 31 31" fill="none" xmlns="http://www.w3.org/2000/svg">
<path d="M0.0477314 12.0077C0.21958 12.2811 0.461727 12.367 0.781986 12.367C8.49948 12.3592 16.2248 12.3592 23.9423 12.3592C24.0282 12.3592 24.1219 12.367 24.2079 12.3514C24.4813 12.3201 24.6687 12.1092 24.6765 11.8437C24.6843 11.5625 24.4891 11.3359 24.2079 11.3047C24.1219 11.2969 24.036 11.2969 23.9423 11.2969C16.2248 11.2969 8.49948 11.2969 0.781986 11.2891C0.461727 11.2891 0.21958 11.375 0.0477314 11.6484C0.0477314 11.7734 0.0477314 11.8905 0.0477314 12.0077Z" fill="#B7B8C5"/>
<path d="M12.233 0.580077C11.9596 0.705057 11.819 0.908148 11.8268 1.2206C11.8346 4.14981 11.8268 7.07902 11.8268 10.0082C11.8268 10.0629 11.8346 10.1254 11.8425 10.2035C12.1862 10.2035 12.522 10.2035 12.8814 10.2035C12.8892 10.0942 12.897 9.99261 12.897 9.88325C12.897 7.02434 12.897 4.16543 12.9048 1.29871C12.9048 0.970638 12.8189 0.72849 12.5298 0.572266C12.4283 0.580077 12.3268 0.580077 12.233 0.580077Z" fill="#B7B8C5"/>
<path d="M1.10986 11.4531C1.21922 11.9062 1.28952 14.3443 1.42231 14.7505C2.19563 17.1095 4.39058 18.7577 6.87455 18.7811C10.538 18.8123 14.1937 18.8202 17.8571 18.7811C20.7785 18.7499 23.2391 16.4846 23.5671 13.6179C23.575 13.571 23.575 11.5234 23.575 11.4531C16.0996 11.4531 8.6477 11.4531 1.10986 11.4531Z" fill="#B7B8C5"/>
<path d="M12.7498 10.2108C12.7498 7.35975 12.7498 4.52427 12.7498 1.69661C12.7185 1.68098 12.7029 1.66536 12.6873 1.66536C11.2266 1.66536 7.75734 1.54819 6.3357 2.01687C3.2112 3.04795 1.15685 5.85218 1.1178 9.17976C1.10999 9.51565 1.1178 9.85934 1.1178 10.2187C4.34383 10.2108 9.53934 10.2108 12.7498 10.2108Z" fill="#B7B8C5"/>
<path d="M7.80425 19.9277C8.66349 20.6307 9.53053 21.3337 10.3898 22.0289C10.7881 22.357 10.999 22.7554 10.8194 23.2631C10.7413 23.4896 10.5616 23.7005 10.382 23.8568C10.0461 24.1458 9.66332 24.3879 9.2962 24.6613C9.47585 24.9582 9.65551 25.2315 9.84298 25.544C10.1242 25.3331 10.4132 25.1222 10.7022 24.9113C11.0303 24.6691 11.3584 24.4192 11.6942 24.177C12.1785 23.8255 12.6394 23.8255 13.1237 24.1848C13.7174 24.6223 14.311 25.0753 14.9125 25.5206C15.0921 25.2315 15.264 24.9582 15.4514 24.6613C15.1156 24.4192 14.7797 24.1692 14.436 23.9271C13.7408 23.4115 13.7174 22.6226 14.3891 22.0758C15.2015 21.4119 16.0295 20.7479 16.8497 20.0918C16.92 20.0371 16.9903 19.9668 17.1152 19.8574C16.5528 19.8574 16.0529 19.8496 15.5608 19.8652C15.4593 19.8652 15.3499 19.959 15.264 20.0293C14.561 20.5917 13.8658 21.1619 13.1706 21.7243C12.6082 22.1774 12.1239 22.1695 11.5615 21.7165C10.8584 21.1463 10.1554 20.5682 9.44461 20.0058C9.34306 19.9199 9.18684 19.8652 9.05405 19.8652C8.64786 19.8496 8.24168 19.8574 7.8355 19.8574C7.81987 19.8809 7.81206 19.9043 7.80425 19.9277Z" fill="#B7B8C5"/>
<path d="M15.5799 27.4193C15.6034 29.2071 17.0148 30.5714 18.8025 30.5714C20.6138 30.5714 22.0252 29.1365 22.0017 27.3017C21.9781 25.4904 20.5197 24.1026 18.6849 24.1496C16.9207 24.1731 15.5563 25.6316 15.5799 27.4193Z" fill="#B7B8C5"/>
<path d="M2.72635 27.4193C2.74987 29.2071 4.16125 30.5714 5.94901 30.5714C7.76028 30.5714 9.17167 29.1365 9.14815 27.3017C9.12462 25.4904 7.66619 24.1026 5.83139 24.1496C4.06716 24.1731 2.70282 25.6316 2.72635 27.4193Z" fill="#B7B8C5"/>
<rect width="1.09568" height="6.31499" rx="0.547841" transform="matrix(0.707107 0.707107 0.707107 -0.707107 20.501 11.4512)" fill="#B7B8C5"/>
<rect width="1.09568" height="5.57673" rx="0.547841" transform="matrix(-1.39071e-07 1 1 1.39071e-07 24.4661 7.20898)" fill="#B7B8C5"/>
</svg>
