<svg width="26" height="26" viewBox="0 0 26 26" fill="none" xmlns="http://www.w3.org/2000/svg">
<path d="M6.37415 9.45134C6.74198 9.07569 7.06284 8.73917 7.42284 8.37135C8.18197 9.13047 8.93327 9.8896 9.68457 10.6487C9.78631 10.7505 9.88022 10.86 9.98979 10.9539C10.3341 11.2513 10.7489 11.2435 11.0385 10.9383C11.3046 10.6566 11.3124 10.2261 11.015 9.91308C10.4594 9.34178 9.89588 8.78613 9.3324 8.22265C9.05066 7.94091 8.7611 7.65135 8.39327 7.28352C8.74545 7.03309 9.05066 6.74353 9.41066 6.587C9.91936 6.36005 10.4594 6.21135 10.9994 6.05483C11.1167 6.02353 11.3124 6.05483 11.3985 6.14092C13.9341 8.66091 16.4541 11.1809 18.9741 13.7165C19.0524 13.7948 19.0758 13.9983 19.0445 14.1157C18.9037 14.6165 18.755 15.1174 18.5593 15.5948C18.4498 15.8609 18.2932 16.1348 18.0898 16.3383C15.4602 18.9835 12.8228 21.6209 10.1854 24.2504C9.06631 25.3695 7.81415 25.3617 6.69502 24.2426C4.81676 22.3643 2.96982 20.4391 1.03678 18.6157C-0.301477 17.3478 -0.332782 15.8139 1.25591 14.5383C1.42808 14.7418 1.59243 14.9765 1.78808 15.18C2.40634 15.8139 3.04025 16.44 3.66633 17.0661C4.05764 17.4574 4.48024 17.4965 4.80111 17.1757C5.12981 16.8548 5.0985 16.4322 4.71503 16.0409C3.97938 15.2974 3.24373 14.5618 2.50808 13.8261C2.41416 13.7322 2.32808 13.6383 2.24982 13.5522C2.59416 13.2 2.92286 12.8713 3.29068 12.4957C3.99503 13.2079 4.69937 13.92 5.40372 14.6322C5.50546 14.7339 5.6072 14.8357 5.70894 14.9374C6.13937 15.36 6.57763 15.407 6.8985 15.0783C7.21936 14.7496 7.17241 14.3348 6.7498 13.92C6.0298 13.2 5.30981 12.48 4.59764 11.76C4.50372 11.6661 4.42546 11.5722 4.32372 11.4705C4.6759 11.1418 5.01242 10.8209 5.39589 10.4609C5.87328 10.9383 6.38198 11.4548 6.89067 11.9713C7.21154 12.2922 7.53241 12.6209 7.8611 12.9418C8.24458 13.3096 8.65153 13.3331 8.96458 13.0122C9.27762 12.6992 9.26197 12.2766 8.89414 11.9087C8.0411 11.0948 7.20371 10.2731 6.37415 9.45134Z" fill="#B7B8C5"/>
<path d="M13.6132 2.74414C14.1063 2.74414 14.4741 2.97892 14.8106 3.31544C16.7671 5.27978 18.7315 7.24412 20.6958 9.20847C21.0636 9.57629 21.4393 9.94412 21.7993 10.3119C22.5271 11.0476 22.5271 11.8772 21.8071 12.6206C20.9854 13.4658 20.7897 13.4658 19.9523 12.6285C17.401 10.0772 14.8498 7.52586 12.2906 4.96674C11.6724 4.34848 11.6802 4.06674 12.3063 3.44066C12.8306 2.92414 13.1593 2.74414 13.6132 2.74414Z" fill="#B7B8C5"/>
<path d="M22.4411 4.6462C23.9124 6.30533 23.7089 8.21488 22.942 9.25575C20.5863 6.89228 18.2228 4.52881 15.8594 2.16534C16.7672 1.21839 18.6298 1.37491 20.4298 2.61143C21.1107 1.92273 21.7915 1.22621 22.488 0.537521C22.9967 0.0366532 23.6307 -0.0807377 24.202 0.185348C25.1411 0.631434 25.3367 1.79752 24.5933 2.5723C24.0063 3.18273 23.3959 3.76968 22.7933 4.36446C22.6915 4.47403 22.5663 4.55229 22.4411 4.6462Z" fill="#B7B8C5"/>
<path d="M2.22634 11.3851C1.87417 11.7451 1.54547 12.0738 1.21678 12.4025C-0.137128 10.7512 -0.309302 7.78509 1.67852 5.77379C3.47851 3.95032 6.57763 3.75467 8.4011 5.35119C8.08806 5.64075 7.7985 5.93814 7.46198 6.20423C7.38371 6.26683 7.18024 6.22771 7.07067 6.17292C5.36459 5.28075 3.27503 5.79727 2.24982 7.40944C1.49069 8.60683 1.45156 9.85117 2.07765 11.119C2.1246 11.2129 2.17939 11.299 2.22634 11.3851Z" fill="#B7B8C5"/>
<path d="M12.6663 23.86C13.0106 23.5235 13.3393 23.2026 13.6758 22.874C15.3741 23.7818 17.0175 23.7035 18.3793 22.24C19.6315 20.894 19.6393 19.3444 18.7784 17.7557C19.0915 17.4114 19.3967 17.0592 19.7097 16.7148C20.8758 17.8731 21.4862 20.8235 19.6393 23.0618C17.9332 25.1279 14.6306 25.5192 12.6663 23.86Z" fill="#B7B8C5"/>
</svg>
