<svg width="26" height="23" viewBox="0 0 26 23" fill="none" xmlns="http://www.w3.org/2000/svg">
<path d="M16.991 1.25098C16.991 1.23145 16.991 1.20703 16.9861 1.1875C16.908 0.865234 16.6296 0.621094 16.283 0.621094H12.8357C12.6501 0.621094 12.4841 0.694336 12.3572 0.806641L12.3523 0.811523V1.90039C12.3523 1.90039 12.3572 1.90039 12.3572 1.90527C12.4841 2.01758 12.655 2.08594 12.8357 2.08594H15.6726C16.0388 3.94141 16.405 5.77734 16.7761 7.6377C14.9451 7.74023 13.197 8.05762 11.5173 8.72656C9.83276 9.39551 8.35327 10.3867 7.07397 11.7148C6.55151 11.0752 6.04858 10.4355 5.50171 9.80078H6.77124C7.30835 9.80078 7.75757 9.36133 7.75757 8.82422V8.63867C7.75757 8.5459 7.75269 8.45801 7.7478 8.36523C7.7478 8.33594 7.7478 8.30176 7.74292 8.27246C7.65503 6.74414 6.39526 5.50391 4.87671 5.40625H2.39136C1.85425 5.40625 1.41479 5.85059 1.41479 6.3877V8.82422C1.41479 9.33691 1.8103 9.75684 2.31812 9.7959C2.68921 9.79102 3.06519 9.79102 3.43628 9.80078C3.44116 9.80078 3.44116 9.80078 3.44604 9.80078C3.54858 9.80566 3.67554 9.86426 3.73901 9.9375C4.13452 10.4014 4.51538 10.8799 4.90112 11.3486C5.3064 11.8467 5.71167 12.3447 6.09741 12.8135C5.67261 13.5508 5.26245 14.2686 4.84253 14.9961C4.7937 14.9863 4.72534 14.9766 4.6521 14.9619C2.72339 14.542 0.892334 15.5625 0.247803 17.4229C0.159912 17.6768 0.111084 17.9404 0.0476074 18.1992V19.0293C0.0622559 19.0684 0.0817871 19.1025 0.0915527 19.1416C0.408936 21.1533 2.08862 22.5254 4.11011 22.3545C5.71655 22.2178 6.80054 21.334 7.36206 19.835C7.86499 18.4775 7.44507 16.8564 6.36108 15.8848C6.22437 15.7627 6.19019 15.6748 6.27319 15.499C7.38647 13.0967 9.17358 11.3926 11.5662 10.2988C13.114 9.59082 14.7595 9.25879 16.449 9.13672C16.6541 9.12207 16.864 9.13672 17.0789 9.13672C17.2156 9.84473 17.3425 10.5381 17.4744 11.2266V11.2314C17.4744 11.2314 17.4792 11.2314 17.4841 11.2314C17.9529 11.1191 18.4167 11.002 18.905 10.8848C18.2703 7.68164 17.6257 4.46875 16.991 1.25098ZM3.82202 19.4004C3.39233 19.4102 3.02612 19.0488 3.03101 18.6143C3.03589 18.1895 3.38257 17.8477 3.81226 17.8477C4.24194 17.8477 4.58862 18.1895 4.59351 18.6143C4.58862 19.0342 4.24683 19.3906 3.82202 19.4004Z" fill="#B7B8C5"/>
<path d="M25.0476 16.1494V17.126C24.9157 17.6582 24.8474 18.2197 24.6423 18.7227C23.8171 20.7246 22.3278 21.9502 20.1794 22.3018C17.3474 22.7656 14.7448 21.0273 13.861 18.4492C12.8991 15.6514 14.4079 12.3848 17.1813 11.3203C17.279 11.2813 17.3767 11.252 17.4743 11.2178C17.4792 11.2178 17.4792 11.2178 17.4792 11.2178V11.2227C17.8063 12.873 18.1384 14.5234 18.4655 16.1738C18.4948 16.3154 18.5241 16.457 18.5485 16.5938C18.5583 16.6475 18.5729 16.7012 18.5974 16.7842C19.071 16.6914 19.5349 16.5986 20.0231 16.501C19.9841 16.3105 19.9499 16.125 19.9108 15.9395C19.8815 15.8027 19.8571 15.666 19.8278 15.5244C19.8181 15.4707 19.8083 15.417 19.7985 15.3633C19.5056 13.8887 19.2126 12.4141 18.9099 10.8906C19.3884 10.9297 19.8425 10.9248 20.2819 11.0029C22.7624 11.4277 24.6374 13.3906 24.989 15.8955C25.0085 15.9785 25.028 16.0615 25.0476 16.1494Z" fill="#B7B8C5"/>
<path d="M17.0056 1.3584C17.0056 1.55859 16.9275 1.73926 16.7957 1.87109C16.6638 2.00293 16.488 2.08594 16.283 2.08594H12.8357C12.6501 2.08594 12.4841 2.01758 12.3572 1.90527C12.3572 1.90527 12.3523 1.90527 12.3523 1.90039C12.2058 1.76855 12.1082 1.57324 12.1082 1.3584C12.1082 1.1582 12.1912 0.977539 12.323 0.845703C12.3328 0.835938 12.3425 0.821289 12.3523 0.811523L12.3572 0.806641C12.4841 0.694336 12.655 0.621094 12.8357 0.621094H16.283C16.6248 0.621094 16.908 0.865234 16.9861 1.1875C16.991 1.20703 16.991 1.23145 16.991 1.25098C16.991 1.28516 17.0056 1.32422 17.0056 1.3584Z" fill="#B7B8C5"/>
<path d="M20.4095 16.3108C20.4095 16.8871 19.9406 17.356 19.3643 17.356C18.788 17.356 18.3142 16.8871 18.3142 16.3108C18.3142 16.1545 18.3582 16.0031 18.407 15.8663C18.407 15.9738 18.4314 16.0764 18.4705 16.1692C18.5877 16.4378 18.8563 16.6234 19.164 16.6234C19.5596 16.6234 19.882 16.3206 19.9162 15.9347C19.9162 15.9152 19.9211 15.8908 19.9211 15.8712C19.9211 15.7442 19.8918 15.627 19.838 15.5245C19.8283 15.4707 19.8185 15.417 19.8087 15.3633C20.1604 15.5293 20.4095 15.8908 20.4095 16.3108Z" fill="#B7B8C5"/>
</svg>
