<svg width="29" height="26" viewBox="0 0 29 26" fill="none" xmlns="http://www.w3.org/2000/svg">
<path d="M28.443 4.57928C28.2447 5.35106 28.0317 6.1155 27.8407 6.88729C26.9886 10.2832 26.1439 13.6864 25.2918 17.0822C25.2771 17.1557 25.2477 17.2219 25.2257 17.3027C20.3482 17.3027 15.478 17.3027 10.5564 17.3027C10.7768 18.1774 10.9825 19.0227 11.2029 19.9048C11.313 19.9048 11.4232 19.9048 11.5261 19.9048C15.1254 19.9048 18.7248 19.9048 22.3241 19.9048C23.852 19.9048 25.0641 20.875 25.3799 22.3304C25.7399 23.9842 24.616 25.6454 22.9265 25.9468C21.2737 26.2408 19.6503 25.0794 19.4006 23.433C19.3124 22.867 19.3932 22.323 19.5916 21.7644C17.3511 21.7644 15.1328 21.7644 12.8777 21.7644C13.267 22.8817 13.1568 23.9328 12.4075 24.8736C11.9374 25.4617 11.313 25.8218 10.5711 25.9541C9.07997 26.2187 7.62554 25.3146 7.14807 23.8593C6.74406 22.6318 7.1848 20.6472 9.31503 19.9709C7.80918 13.9436 6.30333 7.91634 4.79747 1.87434C3.26224 1.87434 1.74904 1.87434 0.23584 1.87434C0.23584 1.24956 0.23584 0.624781 0.23584 0C0.346024 0.00735036 0.456209 0.0220511 0.566393 0.0220511C2.37342 0.0220511 4.18044 0.0294014 5.98746 0.0147007C6.17845 0.0147007 6.25925 0.0735036 6.30333 0.257263C6.40617 0.712985 6.5237 1.16871 6.63388 1.61708C6.86894 2.55793 7.104 3.49877 7.34641 4.45432C14.3835 4.45432 21.4133 4.45432 28.443 4.45432C28.443 4.50577 28.443 4.54252 28.443 4.57928ZM7.84591 6.30661C7.84591 6.37276 7.83122 6.40216 7.83856 6.42422C8.1177 7.55617 8.39683 8.68078 8.68331 9.80538C8.698 9.87154 8.83757 9.95239 8.91837 9.95239C9.49867 9.96709 10.0716 9.95974 10.6519 9.95974C10.9164 9.95974 11.1808 9.95974 11.46 9.95974C11.313 8.76163 11.1735 7.59292 11.0192 6.43157C11.0119 6.38011 10.909 6.30661 10.8576 6.30661C9.85861 6.30661 8.8596 6.30661 7.84591 6.30661ZM17.9021 6.32131C17.9021 7.54147 17.9021 8.73958 17.9021 9.95239C18.8129 9.95239 19.7091 9.95239 20.62 9.95239C20.7742 8.73958 20.9211 7.54147 21.0754 6.32131C20.0029 6.32131 18.9672 6.32131 17.9021 6.32131ZM12.8997 6.32866C12.885 6.36541 12.8777 6.38011 12.8777 6.39481C13.0172 7.53412 13.1568 8.67343 13.3037 9.81273C13.3111 9.87154 13.4433 9.96709 13.5241 9.96709C14.0677 9.98179 14.6039 9.97444 15.1475 9.97444C15.4413 9.97444 15.7278 9.97444 16.0289 9.97444C16.0289 8.73958 16.0289 7.54147 16.0289 6.32866C14.9785 6.32866 13.9354 6.32866 12.8997 6.32866ZM22.4711 9.96709C23.3672 9.96709 24.2046 9.97444 25.0494 9.95974C25.1081 9.95974 25.2036 9.82743 25.2257 9.74658C25.3726 9.18795 25.5048 8.62932 25.6444 8.0707C25.7839 7.49737 25.9308 6.92404 26.0778 6.32866C25.0126 6.32866 23.9769 6.32866 22.9265 6.32866C22.7796 7.52677 22.6253 8.72488 22.4711 9.96709ZM12.1504 15.4578C11.9962 14.2156 11.8419 13.0175 11.695 11.8194C10.8503 11.8194 10.0349 11.8194 9.18281 11.8194C9.47664 13.0028 9.76312 14.1641 10.0643 15.3329C10.079 15.3917 10.1745 15.4578 10.2406 15.4578C10.8576 15.4652 11.482 15.4578 12.1504 15.4578ZM17.8874 11.8194C17.8874 13.0028 17.8874 14.1568 17.8947 15.3108C17.8947 15.3623 18.0049 15.4505 18.0637 15.4505C18.6293 15.4578 19.2022 15.4578 19.7679 15.4505C19.8266 15.4505 19.9368 15.3623 19.9442 15.3035C20.0984 14.1494 20.238 12.9954 20.3849 11.8194C19.5548 11.8194 18.7395 11.8194 17.8874 11.8194ZM13.5535 11.812C13.7077 13.0469 13.862 14.245 14.0089 15.4358C14.7067 15.4358 15.3752 15.4358 16.0289 15.4358C16.0289 14.2156 16.0289 13.0175 16.0289 11.812C15.2062 11.812 14.3982 11.812 13.5535 11.812ZM22.2433 11.812C22.0891 13.0322 21.9422 14.2303 21.7879 15.4578C22.4049 15.4578 22.9926 15.4505 23.5729 15.4652C23.7639 15.4725 23.8226 15.3917 23.8594 15.2226C24.0944 14.245 24.3442 13.2674 24.5866 12.2898C24.6233 12.1354 24.66 11.9811 24.6968 11.812C23.8667 11.812 23.0734 11.812 22.2433 11.812ZM11.2616 22.9552C11.2616 22.2863 10.7254 21.7497 10.0569 21.7497C9.38849 21.7497 8.85226 22.301 8.8596 22.9625C8.86695 23.6167 9.39584 24.1459 10.0496 24.1533C10.718 24.1533 11.2543 23.6241 11.2616 22.9552ZM23.6023 22.9625C23.6023 22.2936 23.0734 21.7497 22.4049 21.7497C21.7365 21.7497 21.2003 22.2863 21.2003 22.9552C21.2003 23.6167 21.7291 24.1459 22.3829 24.1533C23.0587 24.1533 23.5949 23.6314 23.6023 22.9625Z" fill="#B7B8C5"/>
</svg>
