<svg width="31" height="31" viewBox="0 0 31 31" fill="none" xmlns="http://www.w3.org/2000/svg">
<path d="M21.5 0.871094H9.5C4.53751 0.871094 0.5 4.90751 0.5 9.86869V16.8668C0.5 21.6606 4.26901 25.5905 9.00001 25.851V30.0219C9.00001 30.4901 9.38199 30.8711 9.85149 30.8711C10.076 30.8711 10.2885 30.7822 10.449 30.6217L11.387 29.684C13.85 27.2212 17.1255 25.8645 20.6095 25.8645H21.5C26.4624 25.8645 30.5 21.828 30.5 16.8668V9.86869C30.5 4.90751 26.4624 0.871094 21.5 0.871094ZM9.00001 15.3672C7.89699 15.3672 6.99999 14.4705 6.99999 13.3678C6.99999 12.2651 7.89699 11.3683 9.00001 11.3683C10.103 11.3683 11 12.2651 11 13.3678C11 14.4705 10.1025 15.3672 9.00001 15.3672ZM15.5 15.3672C14.397 15.3672 13.5 14.4705 13.5 13.3678C13.5 12.2651 14.397 11.3683 15.5 11.3683C16.603 11.3683 17.5 12.2651 17.5 13.3678C17.5 14.4705 16.6025 15.3672 15.5 15.3672ZM21.9999 15.3672C20.897 15.3672 20 14.4705 20 13.3678C20 12.2651 20.897 11.3683 21.9999 11.3683C23.1031 11.3683 24.0001 12.2651 24.0001 13.3678C24.0001 14.4705 23.1024 15.3672 21.9999 15.3672Z" fill="#74CCD8"/>
</svg>
