<svg width="13" height="11" viewBox="0 0 13 11" fill="none" xmlns="http://www.w3.org/2000/svg">
<path d="M6.82891 10.0602C6.52311 10.4752 6.04688 10.7303 5.53197 10.7557C5.01707 10.7813 4.51836 10.5738 4.17335 10.1906L1.08156 6.75954C0.590172 6.21458 0.633821 5.37452 1.17879 4.88314C1.72427 4.39175 2.56381 4.43566 3.05519 4.98089L5.24263 7.40853C5.27504 7.4446 5.32209 7.46395 5.37044 7.46159C5.41906 7.45924 5.46349 7.43493 5.49251 7.39625L9.98867 1.29813C10.4239 0.707423 11.2555 0.581702 11.8465 1.01715C12.437 1.4526 12.5624 2.28429 12.127 2.87474L6.82891 10.0602Z" fill="#69CB87"/>
</svg>
