<svg width="12" height="11" viewBox="0 0 12 11" fill="none" xmlns="http://www.w3.org/2000/svg">
<path d="M6.26583 9.9801C5.96003 10.3952 5.4838 10.6503 4.96889 10.6756C4.45399 10.7012 3.95529 10.4937 3.61027 10.1105L0.518476 6.67946C0.027092 6.1345 0.0707415 5.29444 0.615707 4.80306C1.16119 4.31168 2.00073 4.35559 2.49211 4.90081L4.67955 7.32846C4.71196 7.36453 4.75901 7.38387 4.80736 7.38152C4.85598 7.37916 4.90041 7.35486 4.92943 7.31617L9.42559 1.21805C9.86077 0.627345 10.6925 0.501624 11.2834 0.937073C11.8739 1.37252 11.9993 2.20422 11.5639 2.79466L6.26583 9.9801Z" fill="white"/>
</svg>
