<svg width="14" height="15" viewBox="0 0 14 15" fill="none" xmlns="http://www.w3.org/2000/svg">
<rect x="0.986328" y="0.71875" width="11.9744" height="13" rx="0.5" fill="white" stroke="#74CCD8"/>
<path d="M7.17071 10.6606C6.94398 10.9927 6.59092 11.1968 6.20917 11.2171C5.82742 11.2375 5.45769 11.0715 5.2019 10.765L2.90966 8.02013C2.54536 7.58416 2.57772 6.91212 2.98175 6.51901C3.38617 6.1259 4.0086 6.16103 4.3729 6.59721L5.99465 8.53933C6.01868 8.56818 6.05356 8.58366 6.08941 8.58177C6.12545 8.57989 6.1584 8.56045 6.17991 8.5295L9.51332 3.651C9.83597 3.17844 10.4526 3.07786 10.8907 3.42622C11.3285 3.77458 11.4215 4.43993 11.0986 4.91229L7.17071 10.6606Z" fill="#686877"/>
</svg>
