<svg width="32" height="32" viewBox="0 0 32 32" fill="none" xmlns="http://www.w3.org/2000/svg">
<path d="M14.9518 3.49669C15.4508 2.80811 16.4769 2.80811 16.976 3.49669L17.9737 4.87322C18.6742 5.83975 19.9183 6.24397 21.0532 5.8738L22.6694 5.34659C23.4779 5.08287 24.308 5.68599 24.3071 6.5364L24.3051 8.23648C24.3037 9.43017 25.0726 10.4884 26.2083 10.856L27.8258 11.3795C28.6349 11.6414 28.9519 12.6172 28.4513 13.3047L27.4504 14.6789C26.7477 15.6438 26.7477 16.9519 27.4504 17.9168L28.4513 19.2911C28.9519 19.9785 28.6349 20.9544 27.8258 21.2162L26.2083 21.7397C25.0726 22.1073 24.3037 23.1656 24.3051 24.3593L24.3071 26.0593C24.308 26.9098 23.4779 27.5129 22.6694 27.2492L21.0532 26.7219C19.9183 26.3518 18.6742 26.756 17.9737 27.7225L16.976 29.0991C16.4769 29.7876 15.4508 29.7876 14.9518 29.0991L13.9541 27.7225C13.2535 26.756 12.0095 26.3518 10.8746 26.7219L9.25836 27.2492C8.44987 27.5129 7.61974 26.9098 7.62072 26.0593L7.62267 24.3593C7.62404 23.1656 6.85517 22.1073 5.71947 21.7397L4.102 21.2162C3.2929 20.9544 2.97583 19.9785 3.47648 19.2911L4.47733 17.9168C5.18008 16.9519 5.18008 15.6438 4.47733 14.6789L3.47648 13.3047C2.97583 12.6172 3.2929 11.6414 4.102 11.3795L5.71947 10.856C6.85517 10.4884 7.62404 9.43018 7.62267 8.23648L7.62072 6.5364C7.61974 5.68599 8.44987 5.08287 9.25836 5.34659L10.8746 5.8738C12.0095 6.24397 13.2535 5.83975 13.9541 4.87322L14.9518 3.49669Z" stroke="#74CCD8" stroke-width="1.5"/>
<path d="M11.094 22.3516C10.8447 22.3516 10.72 22.2382 10.72 22.0116C10.72 21.9436 10.7427 21.8812 10.788 21.8246L19.186 10.7746C19.2654 10.6726 19.3447 10.5932 19.424 10.5366C19.5034 10.4799 19.6167 10.4516 19.764 10.4516H20.818C21.0674 10.4516 21.192 10.5649 21.192 10.7916C21.192 10.8596 21.1694 10.9219 21.124 10.9786L12.726 22.0286C12.6467 22.1306 12.5674 22.2099 12.488 22.2666C12.42 22.3232 12.3067 22.3516 12.148 22.3516H11.094ZM19.458 22.4366C18.6874 22.4366 18.0754 22.2326 17.622 21.8246C17.18 21.4166 16.9364 20.8726 16.891 20.1926C16.8684 19.8979 16.857 19.6372 16.857 19.4106C16.8684 19.1839 16.8797 18.9119 16.891 18.5946C16.925 17.9146 17.1574 17.3649 17.588 16.9456C18.03 16.5262 18.6534 16.3166 19.458 16.3166C20.2627 16.3166 20.8804 16.5262 21.311 16.9456C21.753 17.3649 21.991 17.9146 22.025 18.5946C22.0477 18.9119 22.059 19.1839 22.059 19.4106C22.059 19.6372 22.0477 19.8979 22.025 20.1926C21.991 20.8726 21.7417 21.4166 21.277 21.8246C20.8237 22.2326 20.2174 22.4366 19.458 22.4366ZM19.458 21.0426C19.6734 21.0426 19.8434 20.9972 19.968 20.9066C20.0927 20.8159 20.1834 20.6969 20.24 20.5496C20.308 20.4022 20.3477 20.2492 20.359 20.0906C20.3817 19.8299 20.393 19.5976 20.393 19.3936C20.393 19.1782 20.3817 18.9402 20.359 18.6796C20.3477 18.4416 20.274 18.2262 20.138 18.0336C20.002 17.8409 19.7754 17.7446 19.458 17.7446C19.1407 17.7446 18.914 17.8409 18.778 18.0336C18.6534 18.2262 18.5797 18.4416 18.557 18.6796C18.5457 18.9402 18.54 19.1782 18.54 19.3936C18.54 19.5976 18.5457 19.8299 18.557 20.0906C18.5797 20.2492 18.6137 20.4022 18.659 20.5496C18.7157 20.6969 18.8064 20.8159 18.931 20.9066C19.067 20.9972 19.2427 21.0426 19.458 21.0426ZM12.471 16.4526C11.7004 16.4526 11.0884 16.2542 10.635 15.8576C10.193 15.4496 9.94935 14.9056 9.90402 14.2256C9.88135 13.9309 9.87002 13.6759 9.87002 13.4606C9.88135 13.2339 9.89269 12.9619 9.90402 12.6446C9.93802 11.9532 10.1704 11.4036 10.601 10.9956C11.043 10.5762 11.6664 10.3666 12.471 10.3666C13.287 10.3666 13.9104 10.5762 14.341 10.9956C14.7717 11.4036 15.004 11.9532 15.038 12.6446C15.0607 12.9619 15.072 13.2339 15.072 13.4606C15.072 13.6759 15.0607 13.9309 15.038 14.2256C15.004 14.9056 14.7604 15.4496 14.307 15.8576C13.8537 16.2542 13.2417 16.4526 12.471 16.4526ZM12.471 15.0756C12.6864 15.0756 12.8564 15.0302 12.981 14.9396C13.1057 14.8489 13.1964 14.7299 13.253 14.5826C13.321 14.4352 13.3607 14.2879 13.372 14.1406C13.3947 13.8686 13.406 13.6306 13.406 13.4266C13.406 13.2112 13.3947 12.9789 13.372 12.7296C13.3607 12.4916 13.287 12.2762 13.151 12.0836C13.015 11.8796 12.7884 11.7776 12.471 11.7776C12.1537 11.7776 11.927 11.8796 11.791 12.0836C11.6664 12.2762 11.5927 12.4916 11.57 12.7296C11.5587 12.9789 11.553 13.2112 11.553 13.4266C11.553 13.6306 11.5587 13.8686 11.57 14.1406C11.5927 14.2879 11.6324 14.4352 11.689 14.5826C11.7457 14.7299 11.8364 14.8489 11.961 14.9396C12.0857 15.0302 12.2557 15.0756 12.471 15.0756Z" fill="#74CCD8"/>
</svg>
