<svg width="26" height="37" viewBox="0 0 26 37" fill="none" xmlns="http://www.w3.org/2000/svg">
<path d="M20.1884 22.9629C21.8014 24.6983 23.3938 26.4133 25.0476 28.1997C21.8013 30.4149 17.4118 30.9968 13.6041 31.2928C13.6041 33.1405 13.6041 34.9882 13.6041 36.8665C12.2158 36.8665 12.3179 36.8665 10.95 36.8665C10.95 35.0188 10.95 33.1813 10.95 31.2928C7.53022 31.0478 3.48775 30.517 0.476318 28.7714C7.48939 28.4243 14.1758 26.9543 20.1884 22.9629ZM19.4024 27.2095C19.4126 26.6481 18.943 26.1683 18.3816 26.1785C17.8406 26.1785 17.3812 26.6379 17.371 27.1789C17.3608 27.7404 17.8303 28.2201 18.3918 28.2099C18.9328 28.2099 19.3922 27.7506 19.4024 27.2095Z" fill="#B7B8C5"/>
<path d="M0.0476074 27.5882C1.88509 25.6078 3.72258 23.6172 5.53965 21.6674C4.52903 21.157 3.55925 20.667 2.52821 20.1464C2.70175 19.9422 2.77321 19.8401 2.86508 19.7482C3.90633 18.6458 4.94757 17.5535 5.9786 16.451C6.19297 16.2162 6.3461 16.1549 6.66255 16.3183C10.0721 18.1251 13.6756 19.4114 17.4731 20.0953C18.5041 20.2791 19.5658 20.3505 20.607 20.4832C20.7499 20.5037 20.9031 20.5241 21.0868 20.6568C20.3926 20.9732 19.6985 21.2795 18.9533 21.6164C19.0962 21.8001 19.2391 21.9736 19.4433 22.2186C13.5531 26.0263 7.00963 27.4657 0.0476074 27.5882ZM8.66337 22.0961C8.12233 22.1064 7.67317 22.5657 7.67317 23.1068C7.67317 23.6682 8.15296 24.1378 8.71441 24.1276C9.25545 24.1174 9.70461 23.658 9.70461 23.117C9.70461 22.5453 9.22482 22.0859 8.66337 22.0961Z" fill="#B7B8C5"/>
<path d="M6.99951 15.3587C7.58138 14.6952 8.11221 14.0827 8.66346 13.4395C8.09179 13.2354 7.58138 13.0618 7.06076 12.8781C10.1539 12.1635 13.1143 11.2346 15.6561 9.20312C16.5646 10.2546 17.4528 11.2958 18.4328 12.4391C17.5548 12.7964 16.7586 13.1333 15.8603 13.5008C17.6773 15.4812 19.4944 17.4514 21.3727 19.5135C16.2176 19.2174 11.532 17.676 6.99951 15.3587ZM13.7778 14.44C13.2368 14.4502 12.7876 14.9095 12.7774 15.4506C12.7774 16.012 13.247 16.4816 13.8084 16.4714C14.3495 16.4612 14.7986 16.0018 14.8088 15.4608C14.8088 14.8993 14.3392 14.4297 13.7778 14.44Z" fill="#B7B8C5"/>
<path d="M12.2566 5.24219C13.1856 6.32426 14.0635 7.34509 14.9822 8.42716C12.5425 10.3565 9.7454 11.2242 6.64209 11.8061C8.56124 9.57049 10.3783 7.43696 12.2566 5.24219Z" fill="#B7B8C5"/>
<path d="M14.0534 4.27246L14.4209 6.6714L12.2874 5.50766L10.1232 6.59995L10.5724 4.21122L8.85742 2.48602L11.2666 2.17977L12.3793 0.015625L13.4205 2.2104L15.8194 2.59831L14.0534 4.27246Z" fill="#B7B8C5"/>
<path d="M15.1559 36.9696H9.46993C8.68389 36.9696 8.04077 36.3367 8.04077 35.5405C8.04077 34.7544 8.67368 34.1113 9.46993 34.1113H15.1559C15.942 34.1113 16.5851 34.7442 16.5851 35.5405C16.5749 36.3265 15.942 36.9696 15.1559 36.9696Z" fill="#B7B8C5"/>
</svg>
