<svg width="26" height="26" viewBox="0 0 26 26" fill="none" xmlns="http://www.w3.org/2000/svg">
<path d="M12.375 5.31417C13.4946 5.30092 14.4089 5.16842 15.2239 4.63176C16.1779 4.00236 16.6019 3.05493 16.7676 1.96837C16.8073 1.70998 16.8007 1.43834 16.8073 1.17333C16.8139 0.782435 17.0789 0.577049 17.45 0.702931C18.0595 0.914942 18.669 1.13358 19.2719 1.35222C19.5038 1.43834 19.696 1.922 19.6098 2.16713C19.1726 3.39282 18.9009 4.64501 18.9142 5.95683C18.9274 7.19577 19.2189 8.36184 19.8682 9.42852C19.9477 9.56102 19.9477 9.75316 19.9676 9.91879C20.014 10.2434 20.0471 10.5747 20.1001 10.8993C20.4115 12.8869 20.4513 14.8812 20.3121 16.8887C20.2724 17.4187 20.4314 17.9686 20.5241 18.5052C20.7096 19.5653 20.915 20.6187 21.1072 21.6788C21.1668 22.0167 21.0608 22.1956 20.7295 22.2883C18.9605 22.7985 17.185 23.302 15.416 23.8055C15.0715 23.9049 14.8793 23.7923 14.7535 23.4345C14.3162 22.1757 13.8789 20.9169 13.4483 19.6581C13.3621 19.4063 13.2296 19.1943 12.9911 19.0618C12.6665 18.8829 12.3551 18.9293 12.0768 19.1744C11.8184 19.4063 11.6395 19.6713 11.5269 20.0092C11.1559 21.1421 10.7517 22.2618 10.3675 23.3881C10.2217 23.8188 10.0428 23.9115 9.6188 23.7856C7.89621 23.2954 6.17362 22.7985 4.44441 22.3082C4.02701 22.1889 3.921 22.0366 4.00051 21.5993C4.25227 20.2146 4.51066 18.8365 4.76242 17.4518C4.80218 17.2199 4.8088 16.9748 4.78893 16.7363C4.59679 14.5565 4.71605 12.39 5.10694 10.2302C5.11357 10.1838 5.14007 10.1242 5.12682 10.0844C5.00756 9.67365 5.2527 9.37551 5.42496 9.05087C6.04112 7.88481 6.2465 6.63262 6.16037 5.32743C6.09412 4.22762 5.84236 3.17419 5.47134 2.13401C5.37858 1.88224 5.60384 1.41184 5.86223 1.32571C6.43864 1.12033 7.01504 0.908317 7.59145 0.702931C8.0221 0.550548 8.29374 0.749308 8.28048 1.20646C8.26061 1.922 8.39974 2.60441 8.70451 3.25369C9.26104 4.44625 10.2615 5.00941 11.507 5.20817C11.8449 5.28767 12.1961 5.30092 12.375 5.31417ZM16.5953 11.5089C16.6682 11.4691 16.7411 11.436 16.8139 11.3962C17.6222 10.9258 18.033 10.2103 17.9866 9.28276C17.9402 8.30221 17.2843 7.50054 16.3767 7.23553C15.4425 6.96389 14.4884 7.28853 13.8922 8.0902C13.8127 8.1962 13.7464 8.23595 13.6073 8.1962C12.8984 7.99744 12.1828 7.99744 11.4739 8.1962C11.3281 8.23595 11.2685 8.18958 11.1956 8.08357C10.6192 7.30178 9.69168 6.97051 8.78401 7.21565C7.84984 7.46741 7.22043 8.20945 7.10117 9.20325C6.99517 10.0712 7.49207 10.9656 8.32024 11.4161C8.38649 11.4492 8.44612 11.489 8.49912 11.5221C8.24736 13.4899 9.22128 14.9342 10.3807 15.6232C11.825 16.4845 13.3025 16.5044 14.7203 15.61C16.1978 14.6692 16.7676 13.2646 16.5953 11.5089Z" fill="#B7B8C5"/>
<path d="M22.876 9.67317C22.7833 9.64667 22.6375 9.60691 22.4851 9.56716C21.9352 9.42803 21.3787 9.29552 20.8354 9.14314C20.7625 9.12326 20.6963 9.03713 20.6499 8.96426C20.0139 7.9572 19.7886 6.84414 19.8217 5.67146C19.8483 4.67765 20.0536 3.71698 20.365 2.7828C20.524 2.30578 20.8222 2.21302 21.2329 2.51779C22.4123 3.39896 23.5916 4.28676 24.7643 5.16793C25.069 5.39319 25.1154 5.56545 24.963 5.89009C24.4462 7.03628 23.9228 8.17584 23.4061 9.32202C23.3067 9.52078 23.1874 9.67317 22.876 9.67317Z" fill="#B7B8C5"/>
<path d="M5.2858 6.09585C5.29905 6.79814 5.08704 7.91119 4.47088 8.92487C4.38475 9.07063 4.27875 9.12363 4.10649 9.15676C3.58308 9.26939 3.06631 9.4284 2.54953 9.57416C2.4634 9.60066 2.37727 9.62716 2.28452 9.64704C2.01288 9.70666 1.83399 9.62053 1.71474 9.36877C1.17808 8.19608 0.641429 7.01677 0.111401 5.83746C-0.00785571 5.57245 0.0385217 5.39356 0.263784 5.2213C1.48947 4.29375 2.72179 3.3662 3.9541 2.45191C4.25887 2.22664 4.57689 2.33265 4.70277 2.69704C5.02741 3.64447 5.23942 4.6184 5.2858 6.09585Z" fill="#B7B8C5"/>
<path d="M12.4678 4.42703C12.1365 4.38728 11.7324 4.36741 11.3415 4.27465C10.1158 3.98976 9.43338 3.27422 9.22137 1.81665C9.18825 1.60464 9.19487 1.386 9.20812 1.17399C9.228 0.789718 9.47314 0.630709 9.85078 0.723464C10.3941 0.855971 10.9373 1.00173 11.4872 1.11436C12.7063 1.36612 13.8856 1.12099 15.0517 0.783092C15.1378 0.756591 15.2239 0.730089 15.3167 0.710213C15.6148 0.64396 15.86 0.802968 15.8798 1.10111C15.9726 2.53881 15.3962 4.05601 13.455 4.33428C13.1568 4.38066 12.8521 4.39391 12.4678 4.42703Z" fill="#B7B8C5"/>
<path d="M21.4915 23.8051C21.4915 24.0503 21.3722 24.2027 21.0741 24.2822C19.6894 24.6598 18.2981 25.0308 16.9134 25.4085C16.6285 25.488 16.3436 25.5675 16.0521 25.6404C15.7009 25.7331 15.469 25.6072 15.3829 25.2826C15.2968 24.9712 15.4293 24.7592 15.7738 24.6598C17.4302 24.1828 19.0931 23.7058 20.7495 23.2354C21.2066 23.1029 21.4849 23.3215 21.4915 23.8051Z" fill="#B7B8C5"/>
<path d="M3.60303 23.8715C3.60965 23.315 3.88792 23.103 4.34507 23.2355C6.0014 23.7125 7.66437 24.1829 9.3207 24.6599C9.67185 24.7593 9.80435 24.9978 9.69835 25.3158C9.61222 25.5809 9.38696 25.7134 9.11532 25.6405C7.39273 25.1833 5.67014 24.7196 3.94755 24.2558C3.72228 24.2028 3.60303 24.0372 3.60303 23.8715Z" fill="#B7B8C5"/>
<path d="M15.7273 12.1252C15.7339 13.8743 14.3095 15.3054 12.5604 15.3186C10.8179 15.3319 9.37359 13.8942 9.36697 12.1584C9.36034 10.3894 10.7782 8.96494 12.5471 8.96494C14.2962 8.95169 15.7207 10.3695 15.7273 12.1252ZM12.5736 11.6813C11.8183 11.6681 11.2088 12.2511 11.1889 13.0064C11.1691 13.7617 11.7521 14.3778 12.5074 14.3977C13.2759 14.4176 13.8921 13.8279 13.9053 13.0594C13.912 12.3041 13.3289 11.6946 12.5736 11.6813ZM11.1757 11.2176C11.4275 11.2242 11.6395 11.0188 11.6395 10.767C11.6395 10.5219 11.4208 10.3099 11.1823 10.3099C10.9438 10.3099 10.745 10.5086 10.7384 10.7538C10.7252 11.0055 10.9173 11.2109 11.1757 11.2176ZM13.9053 10.3099C13.6602 10.3099 13.4482 10.5285 13.4548 10.7737C13.4614 11.0188 13.6668 11.2176 13.9252 11.2176C14.1703 11.2109 14.3625 11.0188 14.3625 10.7737C14.3625 10.5285 14.1505 10.3099 13.9053 10.3099Z" fill="#B7B8C5"/>
<path d="M8.75089 10.6071C8.19436 10.3024 7.93597 9.79221 8.0221 9.18268C8.09498 8.65928 8.53225 8.18888 9.05565 8.07625C9.60556 7.95699 10.1422 8.16238 10.4536 8.62615C9.67844 9.09655 9.10866 9.75246 8.75089 10.6071Z" fill="#B7B8C5"/>
<path d="M14.6274 8.61333C15.0117 8.12306 15.5616 7.93755 16.1049 8.09656C16.6415 8.25556 17.0324 8.71934 17.0788 9.26262C17.1252 9.84565 16.8602 10.3359 16.3434 10.6009C15.979 9.76614 15.4225 9.10361 14.6274 8.61333Z" fill="#B7B8C5"/>
<path d="M12.5472 13.4891C12.2954 13.4891 12.0967 13.2903 12.0967 13.0319C12.0967 12.7802 12.3021 12.5814 12.5605 12.5881C12.8056 12.5947 12.9977 12.7868 12.9977 13.0319C12.9977 13.2837 12.799 13.4891 12.5472 13.4891Z" fill="#B7B8C5"/>
</svg>
