<svg width="19" height="18" viewBox="0 0 19 18" fill="none" xmlns="http://www.w3.org/2000/svg">
<circle cx="9.84668" cy="9" r="8.5" fill="white" stroke="#686877"/>
<path d="M9.09527 5.04328H10.5994V5.29637H11.1426V5.00784C11.1427 4.72783 10.915 4.5 10.6351 4.5H9.05957C8.77969 4.5 8.552 4.72783 8.552 5.00784V5.29637H9.09527V5.04328Z" fill="#686877"/>
<path d="M12.3968 7.44922H7.29725C7.15752 7.44922 7.04751 7.56842 7.05878 7.70774L7.48512 12.9795C7.50887 13.2738 7.75435 13.5005 8.04926 13.5005H11.6447C11.9397 13.5005 12.1852 13.2738 12.2089 12.9795L12.6352 7.70774C12.6466 7.56842 12.5366 7.44922 12.3968 7.44922ZM8.53204 12.9382C8.52634 12.9385 8.52064 12.9388 8.51501 12.9388C8.3726 12.9388 8.25306 12.8278 8.2442 12.6838L7.97703 8.35594C7.96783 8.20618 8.08174 8.0773 8.23143 8.06809C8.38064 8.05903 8.51007 8.17267 8.51927 8.3225L8.78638 12.6503C8.79565 12.8001 8.68173 12.9289 8.53204 12.9382ZM10.1217 12.6671C10.1217 12.8171 10.0001 12.9387 9.85006 12.9387C9.70003 12.9387 9.57842 12.8171 9.57842 12.6671V8.33918C9.57842 8.18915 9.70003 8.06755 9.85006 8.06755C10 8.06755 10.1217 8.18915 10.1217 8.33918V12.6671ZM11.7171 8.35518L11.462 12.683C11.4535 12.8274 11.3338 12.9387 11.1911 12.9387C11.1857 12.9387 11.1803 12.9385 11.1749 12.9383C11.0251 12.9294 10.9108 12.8009 10.9197 12.6511L11.1747 8.32318C11.1835 8.17343 11.3117 8.05917 11.4618 8.06803C11.6116 8.07682 11.7258 8.20542 11.7171 8.35518Z" fill="#686877"/>
<path d="M13.3359 6.61067L13.1575 6.07591C13.1104 5.93494 12.9785 5.83984 12.8298 5.83984H6.8636C6.71501 5.83984 6.58297 5.93494 6.536 6.07591L6.35761 6.61067C6.32321 6.71381 6.36798 6.819 6.45154 6.87146C6.4856 6.89282 6.52591 6.90566 6.5702 6.90566H13.1233C13.1676 6.90566 13.2079 6.89282 13.2419 6.87139C13.3255 6.81893 13.3702 6.71374 13.3359 6.61067Z" fill="#686877"/>
</svg>
