<svg width="8" height="10" viewBox="0 0 8 10" fill="none" xmlns="http://www.w3.org/2000/svg">
<path d="M3.09527 1.04328H4.59944V1.29637H5.14265V1.00784C5.14269 0.727829 4.91504 0.5 4.63515 0.5H3.05957C2.77969 0.5 2.552 0.727829 2.552 1.00784V1.29637H3.09527V1.04328Z" fill="#686877"/>
<path d="M6.39683 3.44922H1.29725C1.15752 3.44922 1.04751 3.56842 1.05878 3.70774L1.48512 8.97952C1.50887 9.27382 1.75435 9.50049 2.04926 9.50049H5.64475C5.93968 9.50049 6.18515 9.27382 6.20891 8.97948L6.63524 3.70774C6.64658 3.56842 6.53656 3.44922 6.39683 3.44922ZM2.53204 8.93821C2.52634 8.93853 2.52064 8.93875 2.51501 8.93875C2.3726 8.93875 2.25306 8.82783 2.2442 8.68378L1.97703 4.35594C1.96783 4.20618 2.08174 4.0773 2.23143 4.06809C2.38064 4.05903 2.51007 4.17267 2.51927 4.3225L2.78638 8.65035C2.79565 8.80011 2.68173 8.92894 2.53204 8.93821ZM4.1217 8.66709C4.1217 8.81707 4.00009 8.93866 3.85006 8.93866C3.70003 8.93866 3.57842 8.81707 3.57842 8.66709V4.33918C3.57842 4.18915 3.70003 4.06755 3.85006 4.06755C4.00002 4.06755 4.1217 4.18915 4.1217 4.33918V8.66709ZM5.71706 4.35518L5.46196 8.68302C5.4535 8.82738 5.33375 8.93866 5.19106 8.93866C5.1857 8.93866 5.1803 8.93853 5.17486 8.93826C5.0251 8.92939 4.91084 8.80087 4.91971 8.65111L5.17472 4.32318C5.18354 4.17343 5.31166 4.05917 5.46182 4.06803C5.61158 4.07682 5.72584 4.20542 5.71706 4.35518Z" fill="#686877"/>
<path d="M7.33586 2.61067L7.15748 2.07591C7.11041 1.93494 6.97847 1.83984 6.82979 1.83984H0.863599C0.715009 1.83984 0.582968 1.93494 0.536001 2.07591L0.357611 2.61067C0.32321 2.71381 0.36798 2.819 0.451544 2.87146C0.485602 2.89282 0.525908 2.90566 0.570196 2.90566H7.12328C7.16756 2.90566 7.20792 2.89282 7.2419 2.87139C7.32546 2.81893 7.37024 2.71374 7.33586 2.61067Z" fill="#686877"/>
</svg>
