<svg width="16" height="21" viewBox="0 0 16 21" fill="none" xmlns="http://www.w3.org/2000/svg">
<path d="M6.55053 1.93189H9.89312V2.49432H11.1003V1.85315C11.1004 1.2309 10.5945 0.724609 9.97247 0.724609H6.47119C5.84924 0.724609 5.34326 1.2309 5.34326 1.85315V2.49432H6.55053V1.93189Z" fill="#B7B8C5"/>
<path d="M13.8871 7.27734H2.55465C2.24413 7.27734 1.99968 7.54224 2.02471 7.85184L2.97213 19.5669C3.02492 20.2209 3.57042 20.7246 4.22579 20.7246H12.2158C12.8712 20.7246 13.4167 20.2209 13.4695 19.5668L14.4169 7.85184C14.4421 7.54224 14.1976 7.27734 13.8871 7.27734ZM5.29863 19.4751C5.28597 19.4758 5.2733 19.4763 5.26079 19.4763C4.94432 19.4763 4.67867 19.2298 4.65899 18.9097L4.06527 9.29227C4.04482 8.95947 4.29796 8.67307 4.6306 8.65262C4.96218 8.63248 5.24981 8.88501 5.27025 9.21796L5.86382 18.8354C5.88442 19.1682 5.63128 19.4545 5.29863 19.4751ZM8.8312 18.8726C8.8312 19.2059 8.56096 19.4761 8.22756 19.4761C7.89415 19.4761 7.62392 19.2059 7.62392 18.8726V9.25504C7.62392 8.92163 7.89415 8.6514 8.22756 8.6514C8.56081 8.6514 8.8312 8.92163 8.8312 9.25504V18.8726ZM12.3765 9.29059L11.8096 18.908C11.7908 19.2288 11.5247 19.4761 11.2076 19.4761C11.1957 19.4761 11.1837 19.4758 11.1716 19.4752C10.8388 19.4555 10.5849 19.1699 10.6046 18.8371L11.1713 9.21948C11.1909 8.88669 11.4756 8.63278 11.8093 8.65247C12.1421 8.672 12.396 8.95779 12.3765 9.29059Z" fill="#B7B8C5"/>
<path d="M15.9741 5.41412L15.5777 4.22577C15.4731 3.9125 15.1799 3.70117 14.8495 3.70117H1.59126C1.26106 3.70117 0.967631 3.9125 0.863261 4.22577L0.466838 5.41412C0.390391 5.64331 0.489879 5.87707 0.675578 5.99365C0.751262 6.04111 0.840831 6.06964 0.93925 6.06964H15.5017C15.6001 6.06964 15.6898 6.04111 15.7653 5.9935C15.951 5.87692 16.0505 5.64316 15.9741 5.41412Z" fill="#B7B8C5"/>
</svg>
