<svg width="63" height="51" viewBox="0 0 63 51" fill="none" xmlns="http://www.w3.org/2000/svg">
<circle cx="49.8786" cy="44.1245" r="5.58351" fill="white"/>
<circle cx="12.5565" cy="44.1245" r="5.58351" fill="white"/>
<path d="M2.11047 30.3125V39.591H5.11433C5.58159 38.1002 7.731 35.1186 12.5905 35.1186C17.4501 35.1186 19.911 38.4562 20.534 40.125H35.6199V30.3125H2.11047Z" fill="white"/>
<path d="M35.4197 26.3727H2.11045C1.97696 20.6543 1.70996 8.44311 1.70996 5.34583C1.70996 2.24854 4.20203 1.60772 5.44807 1.67448H31.8818C34.6053 1.67448 35.3752 4.43355 35.4197 5.81309V26.3727Z" fill="white"/>
<path d="M38.8977 10.6367V19.3377H53.8336L49.7856 11.8L47.5522 10.6367H38.8977Z" fill="white"/>
<path d="M38.8047 23.4785V40.0894H41.9221C43.0853 38.4764 46.3238 35.2504 49.9717 35.2504C53.6196 35.2504 56.5788 38.4764 57.6025 40.0894H60.3477L61.697 39.5311V26.0841L55.8809 23.4785H38.8047Z" fill="white"/>
<path d="M36.3343 41.0194H19.7027L19.4688 40.5048C18.2407 37.7913 15.4571 35.9785 12.5565 35.9785C9.65595 35.9785 6.87232 37.803 5.64425 40.5048L5.41034 41.0194H2.90741C1.73782 41.0194 0.813843 40.0721 0.813843 38.8674V28.9609H36.3343V41.0194ZM20.8138 39.265H34.5799V30.7153H2.56823V38.8791C2.56823 38.9492 2.57993 39.2767 2.90741 39.2767H4.29922C5.92496 36.189 9.10624 34.2358 12.5565 34.2358C16.0068 34.2241 19.1881 36.189 20.8138 39.265Z" fill="#74CCD8"/>
<path d="M12.5565 50.7145C8.91909 50.7145 5.96002 47.7554 5.96002 44.1297C5.96002 40.4923 8.91909 37.5332 12.5565 37.5332C16.1939 37.5332 19.153 40.4923 19.153 44.1297C19.1413 47.7554 16.1822 50.7145 12.5565 50.7145ZM12.5565 39.2876C9.88985 39.2876 7.71441 41.4513 7.71441 44.1297C7.71441 46.7964 9.87815 48.9601 12.5448 48.9601C15.2115 48.9601 17.3752 46.7847 17.3869 44.118C17.3869 41.4513 15.2232 39.2876 12.5565 39.2876Z" fill="#74CCD8"/>
<path d="M60.6644 41.0183H56.875L56.641 40.5037C55.413 37.7902 52.6293 35.9773 49.7287 35.9773C46.8282 35.9773 44.0445 37.8019 42.8165 40.5037L42.5825 41.0183H37.8457V22.375H55.8808L61.5182 24.8545C62.3019 25.2288 62.7814 26.0241 62.758 26.8896V38.8779C62.758 40.0826 61.834 41.0183 60.6644 41.0183ZM57.9861 39.2639H60.6644C60.9802 39.2639 61.0036 38.9364 61.0036 38.8662V26.8311C61.0036 26.6674 60.9217 26.5037 60.7697 26.4218L55.5182 24.1177H39.6118V39.2639H41.4831C43.1089 36.1762 46.2902 34.223 49.7404 34.223C53.179 34.223 56.3603 36.1879 57.9861 39.2639Z" fill="#74CCD8"/>
<path d="M55.1907 20.3639H37.8457V9.48674H46.5825C48.3837 9.46334 50.0328 10.4458 50.875 12.0481L55.1907 20.3639ZM39.6001 18.6095H52.3019L49.3077 12.8552C48.7931 11.861 47.7638 11.2411 46.641 11.2411H46.5825H39.5884V18.6095H39.6001Z" fill="#74CCD8"/>
<path d="M36.3343 27.3113H0.813843V5.55695C0.813843 2.89028 2.9425 0.714844 5.55069 0.714844H31.5741C32.8606 0.72654 34.0536 1.22946 34.9542 2.14174C35.8548 3.05403 36.3343 4.25871 36.3343 5.54526L35.4571 5.55695H36.3343V27.3113ZM2.56823 25.557H34.5799V5.53356C34.5916 4.71485 34.2758 3.95461 33.7027 3.36982C33.1296 2.79672 32.3694 2.46923 31.5624 2.46923H5.53899C3.86648 2.46923 2.55653 3.82596 2.55653 5.55695V25.557H2.56823Z" fill="#74CCD8"/>
<path d="M49.7288 50.7145C46.0913 50.7145 43.1323 47.7554 43.1323 44.1297C43.1323 40.4923 46.0913 37.5332 49.7171 37.5332C53.3545 37.5332 56.3136 40.4923 56.3136 44.118C56.3136 47.7554 53.3662 50.7145 49.7288 50.7145ZM49.7288 39.2876C47.0621 39.2876 44.8983 41.463 44.8983 44.1297C44.8983 46.7964 47.0738 48.9601 49.7288 48.9601V49.8373V48.9601C52.3954 48.9601 54.5592 46.7847 54.5592 44.118C54.5709 41.4513 52.3954 39.2876 49.7288 39.2876Z" fill="#74CCD8"/>
</svg>
