<svg width="24" height="17" viewBox="0 0 24 17" fill="none" xmlns="http://www.w3.org/2000/svg">
<path d="M3.17996 11.4298C2.54025 11.4298 1.95029 11.4298 1.36033 11.4298C1.23239 11.4298 1.09734 11.4298 0.969396 11.4298C0.692186 11.4369 0.493164 11.3374 0.493164 11.0389C0.493164 10.7475 0.71351 10.6409 0.976504 10.6338C1.52381 10.6266 2.06402 10.6338 2.61133 10.6338C2.78903 10.6338 2.95962 10.6338 3.1231 10.6338C3.15153 10.584 3.17286 10.5627 3.17286 10.5413C3.2155 9.75237 3.2155 9.75237 4.0187 9.75237C4.57312 9.75237 5.13465 9.75237 5.68906 9.75237C5.96627 9.75237 6.19373 9.67418 6.22927 9.36143C6.2577 9.11265 6.03735 8.94206 5.68906 8.93495C5.02803 8.92785 4.35988 8.93495 3.69884 8.93495C3.31501 8.93495 3.18707 8.80701 3.17996 8.43029C3.17286 8.23838 3.17996 8.05357 3.17996 7.86166C3.17996 7.34988 3.28658 7.24327 3.81257 7.24327C4.35988 7.24327 4.90008 7.24327 5.4474 7.24327C5.85255 7.24327 6.04446 7.10821 6.02314 6.83101C5.99471 6.48272 5.74593 6.44007 5.46161 6.44007C4.48782 6.44007 3.52114 6.43296 2.54736 6.44718C2.24882 6.44718 2.02137 6.3761 1.98583 6.04913C1.96451 5.80746 2.19196 5.65109 2.54025 5.64398C2.71795 5.64398 2.89565 5.63687 3.07334 5.63687C3.09467 5.63687 3.11599 5.62266 3.13732 5.61555C3.15153 5.59422 3.16575 5.58001 3.17286 5.55868C3.22261 4.74838 3.22972 4.74838 4.04713 4.74838C4.54469 4.74838 5.04224 4.74838 5.5398 4.74838C5.8099 4.74838 6.02314 4.65598 6.02314 4.35744C6.02314 4.05891 5.81701 3.9594 5.54691 3.9594C4.104 3.9594 2.65398 3.9594 1.21107 3.9594C1.11866 3.9594 1.01915 3.9594 0.926748 3.9594C0.663755 3.94518 0.493164 3.81013 0.500272 3.54003C0.50738 3.29125 0.67797 3.16331 0.926748 3.1562C1.54514 3.14909 2.15642 3.1562 2.77481 3.1562C2.90275 3.1562 3.0307 3.1562 3.15153 3.1562C3.19418 2.80081 3.19418 2.47384 3.27237 2.17531C3.42874 1.5427 3.96184 1.0949 4.60866 1.02382C4.72239 0.995389 4.85033 0.988281 4.98538 0.988281C8.06312 0.988281 11.1409 0.988281 14.2257 0.988281C14.6735 0.988281 15.0929 1.05936 15.4554 1.35789C15.8605 1.69907 16.0524 2.15398 16.0524 2.67286C16.0595 6.58934 16.0524 10.5129 16.0524 14.4294C16.0524 14.8417 15.9103 14.9696 15.4909 14.9767C14.1262 14.9767 12.7686 14.9767 11.4038 14.9767C10.7499 14.9767 10.7286 14.9554 10.6646 14.3157C10.5225 12.8514 9.52024 11.7426 8.08444 11.4441C6.30035 11.0744 4.48782 12.4178 4.32434 14.2233C4.31723 14.3086 4.31013 14.3867 4.29591 14.472C4.23905 14.9269 4.13954 15.0051 3.63487 14.9767C3.3008 14.9625 3.18707 14.8203 3.18707 14.401C3.17996 13.4343 3.17996 12.4605 3.17996 11.4298ZM4.7366 11.4298C4.93562 11.4298 5.15597 11.4796 5.33367 11.4156C5.49004 11.3588 5.68907 11.1953 5.71039 11.0531C5.73171 10.9394 5.52558 10.6906 5.39764 10.6764C4.97827 10.6266 4.54469 10.6195 4.13243 10.6764C4.00448 10.6906 3.82679 10.9394 3.81968 11.0958C3.81257 11.2024 4.03292 11.373 4.18218 11.4227C4.34567 11.4725 4.5518 11.4227 4.7366 11.4298ZM7.72193 6.44007C8.21949 6.44007 8.42562 6.32634 8.43273 6.04913C8.43984 5.77192 8.21949 5.64398 7.73615 5.64398C7.2386 5.64398 7.03957 5.75771 7.03246 6.03492C7.03246 6.32634 7.23149 6.44007 7.72193 6.44007Z" fill="#686877"/>
<path d="M17.0902 14.5868C17.0902 13.2576 18.1564 12.1914 19.4785 12.1914C20.8148 12.1914 21.881 13.2718 21.881 14.6081C21.8739 15.9231 20.7934 16.9893 19.4714 16.9822C18.1422 16.9822 17.0902 15.916 17.0902 14.5868Z" fill="#686877"/>
<path d="M5.08484 14.5868C5.09195 13.2647 6.15814 12.1914 7.48021 12.1914C8.81651 12.1914 9.8898 13.2789 9.87559 14.6152C9.86848 15.9302 8.78097 16.9964 7.466 16.9893C6.14392 16.9822 5.08484 15.9089 5.08484 14.5868Z" fill="#686877"/>
<path d="M16.8272 9.37464C16.8272 8.62831 16.8343 7.88197 16.8272 7.13564C16.8272 6.83 16.9196 6.61676 17.2465 6.58833C17.5166 6.5599 17.6872 6.78735 17.6872 7.14985C17.6872 7.77535 17.6872 8.40796 17.6872 9.03346C17.6943 10.0854 18.3269 10.7323 19.3931 10.7465C20.4451 10.7607 21.5042 10.7465 22.5562 10.7465C23.1532 10.7465 23.2314 10.8247 23.2314 11.4217C23.2314 12.4311 23.2314 13.4333 23.2314 14.4426C23.2314 14.6274 23.267 14.8691 23.004 14.8833C22.7125 14.9046 22.6912 14.6629 22.677 14.4426C22.5988 13.1845 21.9875 12.2605 20.8574 11.7274C19.7485 11.2014 18.661 11.3009 17.6233 11.9904C17.4669 12.097 17.1968 12.1823 17.0617 12.1112C16.9267 12.0401 16.8485 11.77 16.8414 11.5781C16.8129 10.8389 16.8272 10.1068 16.8272 9.37464Z" fill="#686877"/>
<path d="M20.8218 9.93737C20.3242 9.93737 19.8267 9.94448 19.3291 9.93737C18.7818 9.92316 18.4762 9.61041 18.4691 9.0631C18.462 8.40917 18.462 7.76234 18.4691 7.10841C18.4762 6.74591 18.6326 6.58953 18.988 6.58243C19.2865 6.57532 19.5779 6.56821 19.8764 6.58243C20.5517 6.62507 21.1061 6.90939 21.4971 7.47092C21.8951 8.04666 22.2931 8.6153 22.6699 9.20526C22.7552 9.34741 22.8191 9.58908 22.7552 9.70992C22.6912 9.83075 22.4495 9.90894 22.286 9.92316C21.7956 9.95159 21.3051 9.93737 20.8218 9.93737Z" fill="#686877"/>
<path d="M1.68753 8.9358C1.17556 8.9358 0.990686 8.83625 0.983576 8.55183C0.976465 8.26029 1.18267 8.13941 1.70886 8.13941C1.81552 8.13941 1.92218 8.12519 2.02884 8.14652C2.2706 8.18207 2.42704 8.31718 2.4057 8.57316C2.39148 8.80781 2.24216 8.92869 2.00751 8.9358C1.90085 8.9358 1.79419 8.9358 1.68753 8.9358Z" fill="#686877"/>
</svg>
