<svg width="56" height="51" viewBox="0 0 56 51" fill="none" xmlns="http://www.w3.org/2000/svg">
<path d="M54.4354 16.4221L27.9191 49.5088L1.16815 16.4221L11.4931 1.63867H43.9931L54.4354 16.4221Z" fill="white"/>
<path d="M0 16.1558C3.36203 11.2619 6.73761 6.38149 10.0861 1.47401C10.4521 0.945305 10.8724 0.714844 11.5231 0.714844C22.3548 0.7284 33.1729 0.7284 44.0046 0.714844C44.6553 0.714844 45.0756 0.931749 45.4416 1.46045C48.6545 6.17814 51.8945 10.8687 55.1345 15.5728C55.6768 16.3591 55.6633 16.6031 55.0668 17.3487C46.2957 28.2347 37.5381 39.107 28.7806 49.993C28.0079 50.9555 27.5334 50.9555 26.7607 49.993C17.9896 39.107 9.21846 28.2076 0.447367 17.3216C0.284688 17.1318 0.149122 16.9149 0.0135566 16.7116C0 16.5218 0 16.3456 0 16.1558ZM18.8301 17.3894C21.799 27.0959 24.7407 36.7482 27.6961 46.4005C27.7367 46.4005 27.7774 46.4005 27.8316 46.4005C30.787 36.7482 33.7287 27.0959 36.6976 17.3894C30.7056 17.3894 24.8221 17.3894 18.8301 17.3894ZM2.87399 17.3894C10.3979 26.7299 17.854 35.9755 25.2965 45.2346C25.3237 45.221 25.3643 45.1939 25.3914 45.1804C22.5581 35.9212 19.7384 26.6621 16.905 17.3894C12.2551 17.3894 7.63235 17.3894 2.87399 17.3894ZM30.1362 45.1668C30.1634 45.1804 30.204 45.2075 30.2311 45.221C37.6872 35.9619 45.1434 26.7163 52.6537 17.3894C47.8953 17.3894 43.2726 17.3894 38.6227 17.3894C35.7893 26.6621 32.9696 35.9212 30.1362 45.1668ZM19.3723 15.4779C25.0119 15.4779 30.5429 15.4779 36.1554 15.4779C33.3491 11.3974 30.5836 7.37112 27.7638 3.27703C24.9441 7.37112 22.1785 11.3974 19.3723 15.4779ZM10.9266 3.53461C8.16105 7.56091 5.44974 11.4923 2.71131 15.4915C7.23921 15.4915 11.6586 15.4915 16.1594 15.4915C14.4106 11.5059 12.6889 7.56091 10.9266 3.53461ZM39.3683 15.4915C43.8826 15.4915 48.302 15.4915 52.8164 15.4915C50.0644 11.4923 47.3531 7.54735 44.6011 3.54817C42.8387 7.57447 41.1171 11.5059 39.3683 15.4915ZM17.7591 14.5561C20.5246 10.5298 23.236 6.59839 25.9744 2.61276C21.4465 2.61276 17.027 2.61276 12.5398 2.61276C14.2751 6.58484 15.9967 10.5162 17.7591 14.5561ZM37.7686 14.5561C39.5309 10.5162 41.2526 6.58484 43.0014 2.61276C38.5006 2.61276 34.0812 2.61276 29.5669 2.61276C32.2917 6.59839 35.003 10.5298 37.7686 14.5561Z" fill="#74CCD8"/>
</svg>
