<svg width="52" height="51" viewBox="0 0 52 51" fill="none" xmlns="http://www.w3.org/2000/svg">
<path d="M9.10638 41.6672C9.08894 39.3298 9.08894 39.3473 6.83872 38.7891C6.01888 38.5972 5.19903 38.3879 4.43152 38.0564C3.15814 37.4982 2.5825 36.4167 2.94882 35.0736C3.24536 33.9746 3.78611 32.928 4.23964 31.864C4.7455 30.6778 4.71061 30.5208 3.75122 29.701C3.00115 29.0556 2.19874 28.4799 1.501 27.7647C0.192737 26.4042 0.192737 24.9738 1.51845 23.6132C2.26852 22.8457 3.12325 22.1828 3.96054 21.52C4.55362 21.049 4.67573 20.5082 4.36174 19.8454C3.96054 18.9732 3.52445 18.1185 3.17558 17.2288C2.37318 15.188 3.07092 13.7227 5.18159 13.0598C6.14098 12.7633 7.13526 12.5365 8.12955 12.3098C8.80984 12.1528 9.0715 11.7341 9.0715 11.0538C9.08894 9.9549 9.0715 8.83851 9.1936 7.75701C9.40292 5.94288 10.5368 5.01837 12.3683 5.19281C13.3801 5.29747 14.3569 5.55912 15.3512 5.78589C16.2233 5.99521 16.8513 5.78589 17.2525 4.89627C17.6712 3.97176 18.1073 3.04725 18.648 2.19252C19.6597 0.60516 21.0901 0.291176 22.6949 1.28546C23.5845 1.84365 24.3869 2.50651 25.2068 3.15192C25.8522 3.65778 26.4453 3.69267 27.0907 3.16936C27.7361 2.62861 28.3989 2.1053 29.0967 1.61688C31.1899 0.116741 32.7773 0.483055 34.0332 2.75071C34.417 3.4659 34.7833 4.19853 35.1147 4.93116C35.4636 5.73356 36.0566 5.96033 36.8591 5.78589C37.7312 5.59401 38.6034 5.36724 39.493 5.2277C41.7258 4.87883 42.9468 5.82078 43.1736 8.07099C43.2608 8.9955 43.2608 9.93745 43.2259 10.862C43.1911 11.7516 43.5574 12.2051 44.4121 12.397C45.3192 12.5889 46.2262 12.7807 47.1158 13.0598C49.244 13.7053 49.9417 15.188 49.1393 17.2463C48.8079 18.0836 48.4067 18.886 48.0055 19.6884C47.6043 20.4733 47.6915 21.1013 48.4416 21.6595C49.1219 22.1479 49.7673 22.6887 50.3952 23.2643C52.2094 24.9214 52.2094 26.5786 50.3778 28.2357C49.7149 28.8462 48.9998 29.4044 48.2846 29.9452C47.7089 30.3987 47.6043 30.922 47.9008 31.55C48.3195 32.4396 48.773 33.3292 49.1219 34.2363C49.9068 36.2597 49.2091 37.725 47.1507 38.3879C46.1565 38.7018 45.1447 38.9286 44.1156 39.1728C43.4701 39.3298 43.2259 39.731 43.2085 40.359C43.1911 41.4928 43.2085 42.6266 43.0864 43.743C42.8771 45.5223 41.7432 46.4293 39.964 46.2549C38.9523 46.1502 37.9754 45.8886 36.9812 45.6793C35.8124 45.4525 35.5857 45.5397 35.0449 46.5863C34.5739 47.4759 34.1727 48.4179 33.632 49.2726C32.6377 50.8077 31.2073 51.1391 29.6549 50.1622C28.8001 49.6215 27.9977 48.9761 27.2128 48.3307C26.4976 47.7376 25.8347 47.7027 25.1195 48.3132C24.4741 48.854 23.8113 49.3773 23.131 49.8657C21.1424 51.2437 19.5725 50.8949 18.3689 48.7668C18.02 48.1562 17.7409 47.5283 17.4444 46.9003C16.7292 45.435 16.5897 45.3827 15.0197 45.7316C14.3394 45.8886 13.6591 46.0456 12.9788 46.1502C10.5542 46.534 9.35059 45.5572 9.14127 43.1151C9.0715 42.6615 9.10638 42.1731 9.10638 41.6672ZM40.8187 9.64091C40.8187 9.15249 40.8013 8.68152 40.8187 8.21054C40.8362 7.6349 40.5745 7.40814 40.0163 7.5128C39.1965 7.66979 38.3592 7.80934 37.5393 8.00122C35.324 8.52453 34.0506 7.96633 33.004 5.97777C32.6377 5.28003 32.3237 4.56484 31.9574 3.8671C31.4341 2.87282 31.2771 2.85538 30.4049 3.50079C29.7072 4.02409 29.0443 4.59973 28.3292 5.08815C26.7592 6.20454 25.5033 6.20454 23.9334 5.08815C23.2531 4.59973 22.6077 4.05898 21.9274 3.55312C20.968 2.83793 20.8284 2.87282 20.2528 3.95432C19.9214 4.59973 19.6248 5.26258 19.2934 5.90799C18.2294 7.98378 16.956 8.54197 14.7058 8.00122C13.9208 7.80934 13.1184 7.68724 12.316 7.5128C11.6531 7.37325 11.4264 7.66979 11.4264 8.29776C11.4264 9.34437 11.3915 10.391 11.3217 11.4376C11.2345 13.1471 10.2751 14.1413 8.65285 14.5425C7.81556 14.7519 6.96083 14.9437 6.12354 15.1705C5.05948 15.4496 4.97227 15.6415 5.40835 16.6183C5.77467 17.4382 6.21076 18.2406 6.54218 19.0604C7.23993 20.8222 6.97827 21.9212 5.56535 23.1945C4.85016 23.8399 4.10009 24.433 3.35002 25.0261C2.79182 25.4796 2.80927 25.9157 3.35002 26.3867C4.16986 27.067 5.00715 27.7473 5.80956 28.4625C6.92594 29.4742 7.18759 30.7127 6.61196 32.1082C6.26309 32.9629 5.86189 33.8002 5.47813 34.6549C4.95482 35.8411 5.0246 35.9981 6.29797 36.3121C7.11782 36.504 7.93767 36.6784 8.74007 36.9052C10.2751 37.3238 11.1996 38.2832 11.3043 39.9229C11.374 41.0218 11.4089 42.1208 11.4264 43.2372C11.4264 43.8128 11.6706 44.0396 12.2288 43.9349C13.0486 43.7779 13.8859 43.6384 14.7058 43.4465C16.956 42.9232 18.2294 43.4814 19.2934 45.5572C19.6597 46.2549 19.9737 46.9701 20.34 47.6504C20.8459 48.5574 20.968 48.5923 21.7704 47.9992C22.503 47.4585 23.1833 46.8829 23.9159 46.3596C25.4859 45.2432 26.7418 45.2432 28.3117 46.3596C28.9746 46.8305 29.5851 47.3538 30.2479 47.8597C31.2771 48.6447 31.4341 48.6098 32.0272 47.4411C32.3412 46.8305 32.6203 46.1851 32.9343 45.5572C33.9983 43.4988 35.2717 42.9232 37.5219 43.4639C38.3418 43.6558 39.1616 43.7954 39.9989 43.9523C40.5745 44.057 40.7838 43.8128 40.8013 43.2372C40.8187 42.1557 40.8362 41.0916 40.9059 40.0101C40.9932 38.3006 41.9526 37.3064 43.5748 36.9052C44.4121 36.6958 45.2668 36.504 46.1041 36.2772C47.1682 35.9807 47.2554 35.8062 46.8193 34.8294C46.453 34.0095 46.0343 33.2071 45.6855 32.3873C44.9877 30.6255 45.2494 29.5265 46.6623 28.2532C47.3775 27.6078 48.1276 27.0321 48.8776 26.4216C49.4358 25.9681 49.4184 25.5145 48.8776 25.061C48.0578 24.3807 47.2205 23.7004 46.4181 22.9852C45.3017 21.9735 45.0401 20.735 45.6157 19.3395C45.9646 18.4848 46.3658 17.6475 46.7495 16.7928C47.2728 15.6066 47.2031 15.4671 45.9297 15.1356C45.1098 14.9263 44.29 14.7693 43.4876 14.5425C41.9526 14.1239 41.0281 13.1645 40.9234 11.5248C40.906 10.8794 40.8711 10.2514 40.8187 9.64091Z" fill="#74CCD8"/>
<path d="M40.8187 9.64088C40.8536 10.2514 40.8885 10.8968 40.9408 11.5248C41.0454 13.1645 41.9874 14.1064 43.505 14.5425C44.3074 14.7693 45.1447 14.9263 45.9471 15.1356C47.2205 15.4496 47.2902 15.6066 46.7669 16.7927C46.3832 17.6475 45.982 18.4848 45.6331 19.3395C45.0575 20.735 45.3191 21.9735 46.4355 22.9852C47.2379 23.7004 48.0752 24.3807 48.895 25.061C49.4358 25.5145 49.4532 25.968 48.895 26.4216C48.1624 27.0321 47.3949 27.6077 46.6797 28.2531C45.2668 29.5265 45.0051 30.6255 45.7029 32.3873C46.0343 33.2245 46.4704 34.0095 46.8367 34.8293C47.2728 35.8062 47.1856 35.9806 46.1215 36.2772C45.2842 36.5039 44.4295 36.6958 43.5922 36.9051C41.97 37.3063 41.0106 38.3006 40.9233 40.0101C40.871 41.0741 40.8361 42.1556 40.8187 43.2371C40.8187 43.7953 40.5919 44.057 40.0163 43.9523C39.1964 43.7953 38.3591 43.6558 37.5393 43.4639C35.2891 42.9232 34.0157 43.4988 32.9516 45.5571C32.6377 46.1676 32.3586 46.8131 32.0446 47.441C31.4341 48.6097 31.2945 48.6446 30.2653 47.8597C29.6199 47.3713 28.992 46.8305 28.3291 46.3595C26.7417 45.2431 25.5033 45.2431 23.9333 46.3595C23.2007 46.8828 22.5204 47.4759 21.7878 47.9992C20.9679 48.5923 20.8458 48.5749 20.3574 47.6503C19.9737 46.9701 19.6597 46.2549 19.3108 45.5571C18.2467 43.4988 16.9908 42.9231 14.7232 43.4465C13.9033 43.6383 13.0835 43.7779 12.2462 43.9349C11.688 44.0395 11.4438 43.8128 11.4438 43.2371C11.4263 42.1382 11.3914 41.0392 11.3217 39.9229C11.217 38.2832 10.2925 37.3238 8.75746 36.9051C7.95506 36.6784 7.11777 36.5214 6.31537 36.312C5.04199 35.9981 4.97222 35.8411 5.49552 34.6549C5.87928 33.8002 6.28048 32.9629 6.62935 32.1082C7.20499 30.7127 6.94334 29.4742 5.82695 28.4625C5.02455 27.7473 4.18726 27.067 3.36741 26.3867C2.80922 25.9331 2.79177 25.4971 3.36741 25.0261C4.11748 24.4156 4.86755 23.8225 5.58274 23.1945C6.99567 21.9211 7.25732 20.8222 6.55958 19.0604C6.22815 18.2231 5.79206 17.4381 5.42575 16.6183C4.98966 15.6415 5.09432 15.4496 6.14093 15.1705C6.97822 14.9437 7.83296 14.7518 8.67025 14.5425C10.2925 14.1413 11.2344 13.147 11.3391 11.4376C11.3914 10.391 11.4263 9.34434 11.4438 8.29773C11.4438 7.65232 11.6705 7.37322 12.3334 7.51277C13.1183 7.68721 13.9207 7.80931 14.7232 8.00119C16.9734 8.54194 18.2467 7.98375 19.3108 5.90797C19.6422 5.26256 19.9213 4.5997 20.2702 3.95429C20.8284 2.87279 20.9854 2.8379 21.9448 3.55309C22.6251 4.05895 23.253 4.5997 23.9508 5.08812C25.5381 6.20451 26.7766 6.20451 28.3466 5.08812C29.0617 4.58226 29.7246 4.00662 30.4223 3.50076C31.2945 2.85535 31.4515 2.87279 31.9748 3.86707C32.3411 4.56481 32.6551 5.28 33.0214 5.97774C34.068 7.98375 35.3414 8.5245 37.5567 8.00119C38.3766 7.80931 39.1964 7.66976 40.0337 7.51277C40.5919 7.40811 40.8536 7.63488 40.8361 8.21051C40.8187 8.68149 40.8187 9.15246 40.8187 9.64088ZM18.2816 34.9863C18.4735 34.8468 18.8747 34.6375 19.1887 34.3235C24.3869 29.1428 29.585 23.9446 34.7832 18.7464C34.9228 18.6069 35.0798 18.4673 35.2019 18.2929C35.5333 17.7696 35.5682 17.2463 35.1146 16.7753C34.6611 16.3218 34.1204 16.3218 33.6145 16.6706C33.4226 16.7927 33.2656 16.9846 33.1086 17.1416C27.9279 22.3223 22.7472 27.4856 17.5839 32.6663C17.392 32.8582 17.2001 33.0327 17.0606 33.2594C16.5722 34.0618 17.1129 34.9863 18.2816 34.9863ZM24.4043 19.9326C24.4218 17.6824 22.5553 15.7985 20.3225 15.8159C18.1246 15.8159 16.2756 17.6649 16.2407 19.8628C16.2059 22.0432 18.0374 23.9271 20.2528 23.962C22.503 24.0144 24.3869 22.2002 24.4043 19.9326ZM27.893 31.5325C27.893 33.7478 29.7071 35.5794 31.9225 35.6143C34.1204 35.6492 36.0566 33.7478 36.0392 31.5325C36.0392 29.3346 34.2076 27.4856 31.9923 27.4682C29.742 27.4507 27.893 29.2823 27.893 31.5325Z" fill="white"/>
<path d="M18.2817 34.9864C17.1129 34.9864 16.5722 34.0444 17.0432 33.2595C17.1653 33.0327 17.3746 32.8583 17.5665 32.6664C22.7472 27.4857 27.9105 22.3049 33.0912 17.1417C33.2482 16.9847 33.4052 16.7928 33.5971 16.6707C34.1204 16.3392 34.6611 16.3218 35.0972 16.7753C35.5508 17.2289 35.5159 17.7696 35.1844 18.2929C35.0798 18.4674 34.9228 18.5895 34.7658 18.7465C29.5676 23.9446 24.3694 29.1428 19.1713 34.3235C18.8747 34.6375 18.4735 34.8468 18.2817 34.9864Z" fill="#74CCD8"/>
<path d="M24.4044 19.9331C24.3869 22.1833 22.503 24.0149 20.2528 23.9625C18.0549 23.9277 16.2059 22.0437 16.2408 19.8633C16.2757 17.648 18.1247 15.8164 20.3226 15.8164C22.5553 15.8164 24.4218 17.7003 24.4044 19.9331ZM20.34 18.1887C19.3457 18.1887 18.6305 18.9039 18.6305 19.8808C18.6305 20.8401 19.3632 21.6251 20.3051 21.6425C21.2471 21.66 22.1018 20.8053 22.0844 19.8633C22.0669 18.9388 21.282 18.1887 20.34 18.1887Z" fill="#74CCD8"/>
<path d="M27.8931 31.5316C27.8931 29.2814 29.7421 27.4324 32.0097 27.4673C34.2251 27.4847 36.0566 29.3337 36.0566 31.5316C36.0566 33.747 34.1379 35.6657 31.94 35.6134C29.7072 35.5785 27.8931 33.747 27.8931 31.5316ZM31.9749 33.2411C32.9691 33.2411 33.6669 32.5259 33.6843 31.5316C33.6843 30.5722 32.9342 29.7873 31.9923 29.7698C31.0678 29.7524 30.1956 30.6246 30.2131 31.5491C30.2479 32.5085 31.0329 33.2585 31.9749 33.2411Z" fill="#74CCD8"/>
<path d="M20.34 18.1875C21.2994 18.1875 22.0844 18.9376 22.1018 19.8795C22.1193 20.8215 21.2645 21.6762 20.3226 21.6588C19.3806 21.6413 18.6306 20.8564 18.648 19.897C18.6306 18.9027 19.3458 18.1875 20.34 18.1875Z" fill="white"/>
<path d="M31.9749 33.2419C31.0329 33.2419 30.2305 32.4919 30.2131 31.5673C30.1956 30.6428 31.0678 29.7532 31.9923 29.7881C32.9343 29.8055 33.6843 30.5905 33.6843 31.5499C33.6669 32.5267 32.9692 33.2419 31.9749 33.2419Z" fill="white"/>
</svg>
