<svg width="52" height="52" viewBox="0 0 52 52" fill="none" xmlns="http://www.w3.org/2000/svg">
<path d="M25.1924 1.10585C25.5919 0.558859 26.4081 0.558859 26.8076 1.10585L27.7371 2.37868C28.0861 2.85652 28.7713 2.92854 29.212 2.5337L30.3859 1.48194C30.8903 1.02996 31.6887 1.19966 31.9657 1.81775L32.6103 3.25603C32.8523 3.79598 33.5076 4.0089 34.0207 3.71431L35.3876 2.92959C35.975 2.59236 36.7207 2.92436 36.8631 3.58653L37.1946 5.1274C37.319 5.70585 37.9157 6.05037 38.4789 5.86891L39.9791 5.38552C40.6237 5.1778 41.2841 5.65757 41.2858 6.33489L41.2896 7.911C41.2911 8.50269 41.8031 8.96374 42.3917 8.90333L43.9596 8.74241C44.6334 8.67326 45.1795 9.27985 45.0403 9.94271L44.7164 11.4852C44.5948 12.0642 44.9998 12.6217 45.5881 12.685L47.1552 12.8535C47.8286 12.926 48.2367 13.6329 47.9628 14.2523L47.3252 15.6937C47.0859 16.2348 47.3661 16.8643 47.9284 17.0485L49.4262 17.5392C50.0698 17.7501 50.3221 18.5264 49.9253 19.0753L49.002 20.3527C48.6554 20.8322 48.7986 21.5062 49.3103 21.8033L50.6734 22.5947C51.2591 22.9348 51.3444 23.7466 50.8422 24.201L49.6735 25.2585C49.2348 25.6555 49.2348 26.3445 49.6735 26.7415L50.8422 27.799C51.3444 28.2534 51.2591 29.0652 50.6734 29.4053L49.3103 30.1967C48.7986 30.4938 48.6554 31.1678 49.002 31.6473L49.9253 32.9247C50.3221 33.4736 50.0698 34.2499 49.4262 34.4608L47.9284 34.9515C47.3661 35.1357 47.0859 35.7652 47.3252 36.3063L47.9628 37.7477C48.2367 38.3671 47.8286 39.074 47.1552 39.1465L45.5881 39.315C44.9998 39.3783 44.5948 39.9358 44.7164 40.5148L45.0403 42.0573C45.1795 42.7201 44.6334 43.3267 43.9596 43.2576L42.3917 43.0967C41.8031 43.0363 41.2911 43.4973 41.2896 44.089L41.2858 45.6651C41.2841 46.3424 40.6237 46.8222 39.9791 46.6145L38.4789 46.1311C37.9157 45.9496 37.319 46.2941 37.1946 46.8726L36.8631 48.4135C36.7207 49.0756 35.975 49.4076 35.3876 49.0704L34.0207 48.2857C33.5076 47.9911 32.8523 48.204 32.6103 48.744L31.9657 50.1823C31.6887 50.8003 30.8903 50.97 30.3859 50.5181L29.212 49.4663C28.7713 49.0715 28.0861 49.1435 27.7371 49.6213L26.8076 50.8942C26.4081 51.4411 25.5919 51.4411 25.1924 50.8942L24.2629 49.6213C23.9139 49.1435 23.2287 49.0715 22.788 49.4663L21.6141 50.5181C21.1097 50.97 20.3113 50.8003 20.0343 50.1823L19.3897 48.744C19.1477 48.204 18.4924 47.9911 17.9793 48.2857L16.6124 49.0704C16.025 49.4076 15.2793 49.0756 15.1369 48.4135L14.8054 46.8726C14.681 46.2941 14.0843 45.9496 13.5211 46.1311L12.0209 46.6145C11.3763 46.8222 10.7159 46.3424 10.7142 45.6651L10.7104 44.089C10.7089 43.4973 10.1969 43.0363 9.60829 43.0967L8.04041 43.2576C7.36664 43.3267 6.82046 42.7201 6.95966 42.0573L7.28359 40.5148C7.40519 39.9358 7.00019 39.3783 6.41189 39.315L4.84482 39.1465C4.17139 39.074 3.76326 38.3671 4.03724 37.7477L4.67479 36.3063C4.91413 35.7652 4.63387 35.1357 4.07159 34.9515L2.57381 34.4608C1.93016 34.2499 1.67792 33.4736 2.0747 32.9247L2.998 31.6473C3.34461 31.1678 3.20135 30.4938 2.68966 30.1967L1.32663 29.4053C0.740889 29.0652 0.655568 28.2534 1.1578 27.799L2.32651 26.7415C2.76525 26.3445 2.76525 25.6555 2.32651 25.2585L1.1578 24.201C0.655568 23.7466 0.740889 22.9348 1.32663 22.5947L2.68966 21.8033C3.20135 21.5062 3.34461 20.8322 2.998 20.3527L2.0747 19.0753C1.67792 18.5264 1.93016 17.7501 2.57381 17.5392L4.07159 17.0485C4.63387 16.8643 4.91413 16.2348 4.67479 15.6937L4.03724 14.2523C3.76326 13.6329 4.17139 12.926 4.84482 12.8535L6.41189 12.685C7.00019 12.6217 7.40519 12.0642 7.28359 11.4852L6.95966 9.94271C6.82046 9.27985 7.36664 8.67326 8.04041 8.74241L9.60829 8.90333C10.1969 8.96374 10.7089 8.50269 10.7104 7.911L10.7142 6.33489C10.7159 5.65757 11.3763 5.1778 12.0209 5.38552L13.5211 5.86891C14.0843 6.05037 14.681 5.70585 14.8054 5.1274L15.1369 3.58653C15.2793 2.92436 16.025 2.59236 16.6124 2.92959L17.9793 3.71431C18.4924 4.0089 19.1477 3.79598 19.3897 3.25603L20.0343 1.81775C20.3113 1.19966 21.1097 1.02996 21.6141 1.48194L22.788 2.5337C23.2287 2.92854 23.9139 2.85652 24.2629 2.37868L25.1924 1.10585Z" fill="#FFD882"/>
</svg>
