<svg width="25" height="21" viewBox="0 0 25 21" fill="none" xmlns="http://www.w3.org/2000/svg">
<path d="M23.6308 9.15649C22.6246 8.01829 21.5367 6.98071 20.3482 6.06889L17.3361 9.07474C17.5184 9.60297 17.6128 10.1689 17.6128 10.76C17.6128 13.6338 15.2861 15.9605 12.4123 15.9605C11.8212 15.9605 11.2552 15.8599 10.727 15.6838L8.58264 17.8282C9.75228 18.2747 10.9722 18.5388 12.2676 18.5576C14.0284 18.5828 15.6822 18.1489 17.2606 17.3817C19.3547 16.363 21.1468 14.9292 22.7692 13.2754C23.1025 12.9358 23.4295 12.5711 23.7565 12.2189C24.0772 11.8731 24.3728 11.5083 24.4986 11.0367V10.4708C24.3791 9.93625 23.9829 9.55266 23.6308 9.15649ZM7.21806 10.76C7.21806 7.88623 9.54476 5.55953 12.4186 5.55953C14.1416 5.55953 15.6697 6.39589 16.6129 7.68501L19.1094 5.18851C18.751 4.95584 18.3862 4.73575 18.0152 4.52823C16.5375 3.71074 14.9716 3.14479 13.2801 2.98758C11.8086 2.85552 10.3811 3.06933 8.99138 3.55353C6.74643 4.33958 4.8096 5.64128 3.0803 7.25111C2.31311 7.96798 1.62768 8.76032 0.891935 9.52122C0.627823 9.79162 0.48319 10.1123 0.357422 10.4708V11.0367C0.48319 11.6153 0.9108 12.024 1.29439 12.4453C2.89164 14.2186 4.66497 15.7782 6.759 16.9478C6.88477 17.017 7.01054 17.0862 7.1426 17.1553L9.34982 14.9481C8.05441 14.0174 7.21806 12.4893 7.21806 10.76Z" fill="#E4E7EE"/>
<path d="M15.5438 8.75341L10.4062 13.891C9.38118 13.2307 8.69574 12.0737 8.68945 10.7657C8.68945 8.72197 10.3559 7.04297 12.4059 7.04297C13.7202 7.04297 14.8835 7.7284 15.5438 8.75341Z" fill="#E4E7EE"/>
<path d="M16.1355 10.7598C16.1355 12.8098 14.469 14.4826 12.419 14.4826C12.2618 14.4826 12.1109 14.47 11.96 14.4511L16.1103 10.3008C16.1292 10.4517 16.1355 10.6026 16.1355 10.7598Z" fill="#E4E7EE"/>
<path d="M2.8605 20.5893C2.57124 20.3 2.57124 19.8221 2.8605 19.5329L21.4616 0.931793C21.7508 0.642527 22.2288 0.642527 22.518 0.931793C22.8073 1.22106 22.8073 1.69898 22.518 1.98824L3.91695 20.5893C3.6214 20.8786 3.14977 20.8786 2.8605 20.5893Z" fill="#E4E7EE"/>
</svg>
