<svg width="25" height="17" viewBox="0 0 25 17" fill="none" xmlns="http://www.w3.org/2000/svg">
<path d="M24.7603 8.47375C24.7603 8.66235 24.7603 8.85095 24.7603 9.03956C24.6345 9.51106 24.3453 9.87569 24.0247 10.2215C23.6978 10.5735 23.3835 10.9319 23.044 11.2776C21.422 12.9311 19.6366 14.3644 17.5368 15.3829C15.9588 16.1499 14.3054 16.5837 12.5451 16.5585C10.5585 16.5271 8.73534 15.9173 7.02534 14.9554C4.93814 13.7798 3.15899 12.2207 1.56215 10.4478C1.17866 10.0266 0.770023 9.61794 0.619141 9.03956C0.619141 8.85095 0.619141 8.66235 0.619141 8.47375C0.732302 8.12169 0.895758 7.79478 1.1598 7.52445C1.88906 6.77004 2.58689 5.97162 3.35388 5.25493C5.08273 3.64552 7.01277 2.34417 9.26342 1.55832C10.6528 1.06796 12.0799 0.854206 13.551 0.992514C15.2421 1.14968 16.8075 1.71549 18.2849 2.53277C20.4413 3.72725 22.2707 5.3178 23.899 7.15353C24.251 7.5496 24.622 7.93309 24.7603 8.47375ZM12.6897 13.9558C15.5627 13.9558 17.8888 11.6297 17.8888 8.75665C17.8888 5.88361 15.569 3.55751 12.6897 3.55751C9.81666 3.55751 7.49056 5.87732 7.49056 8.75665C7.49056 11.636 9.81666 13.9558 12.6897 13.9558Z" fill="#E4E7EE"/>
<path d="M16.4118 8.7565C16.4118 10.806 14.7458 12.4783 12.6964 12.4783C10.6532 12.4783 8.97461 10.806 8.97461 8.76279C8.97461 6.71331 10.6406 5.04103 12.6901 5.04103C14.7333 5.03475 16.4056 6.70702 16.4118 8.7565Z" fill="#E4E7EE"/>
</svg>
