<svg width="23" height="26" viewBox="0 0 23 26" fill="none" xmlns="http://www.w3.org/2000/svg">
<path d="M3.55648 1.61764C3.55648 1.22583 3.23886 0.908203 2.84705 0.908203C2.45524 0.908203 2.13762 1.22583 2.13762 1.61764V17.3198C2.13762 17.7116 1.81999 18.0292 1.42818 18.0292C1.03637 18.0292 0.71875 18.3468 0.71875 18.7386V21.5764C0.71875 21.9682 1.03637 22.2858 1.42818 22.2858C1.81999 22.2858 2.13762 22.6034 2.13762 22.9952V24.4141C2.13762 24.8059 2.45524 25.1235 2.84705 25.1235C3.23886 25.1235 3.55648 24.8059 3.55648 24.4141V22.9952C3.55648 22.6034 3.87411 22.2858 4.26592 22.2858C4.65772 22.2858 4.97535 21.9682 4.97535 21.5764V18.7386C4.97535 18.3468 4.65772 18.0292 4.26592 18.0292C3.87411 18.0292 3.55648 17.7116 3.55648 17.3198V1.61764ZM3.55648 20.1575C3.55648 20.5493 3.23886 20.8669 2.84705 20.8669C2.45524 20.8669 2.13762 20.5493 2.13762 20.1575C2.13762 19.7657 2.45524 19.4481 2.84705 19.4481C3.23886 19.4481 3.55648 19.7657 3.55648 20.1575Z" fill="white"/>
<path d="M22.0496 18.7386C22.0496 18.3468 21.7319 18.0292 21.3401 18.0292C20.9483 18.0292 20.6307 17.7116 20.6307 17.3198V1.61764C20.6307 1.22583 20.3131 0.908203 19.9213 0.908203C19.5295 0.908203 19.2118 1.22583 19.2118 1.61764V17.3198C19.2118 17.7116 18.8942 18.0292 18.5024 18.0292C18.1106 18.0292 17.793 18.3468 17.793 18.7386V21.5764C17.793 21.9682 18.1106 22.2858 18.5024 22.2858C18.8942 22.2858 19.2118 22.6034 19.2118 22.9952V24.4141C19.2118 24.8059 19.5295 25.1235 19.9213 25.1235C20.3131 25.1235 20.6307 24.8059 20.6307 24.4141V22.9952C20.6307 22.6034 20.9483 22.2858 21.3401 22.2858C21.7319 22.2858 22.0496 21.9682 22.0496 21.5764V18.7386ZM20.6307 20.1575C20.6307 20.5493 20.3131 20.8669 19.9213 20.8669C19.5295 20.8669 19.2118 20.5493 19.2118 20.1575C19.2118 19.7657 19.5295 19.4481 19.9213 19.4481C20.3131 19.4481 20.6307 19.7657 20.6307 20.1575Z" fill="white"/>
<path d="M14.9549 1.61764C14.9549 1.22583 14.6373 0.908203 14.2455 0.908203C13.8537 0.908203 13.5361 1.22583 13.5361 1.61764V10.6984C13.5361 11.0902 13.2184 11.4078 12.8266 11.4078C12.4348 11.4078 12.1172 11.7254 12.1172 12.1172V14.955C12.1172 15.3468 12.4348 15.6644 12.8266 15.6644C13.2184 15.6644 13.5361 15.982 13.5361 16.3738V24.4141C13.5361 24.8059 13.8537 25.1235 14.2455 25.1235C14.6373 25.1235 14.9549 24.8059 14.9549 24.4141V16.3738C14.9549 15.982 15.2725 15.6644 15.6644 15.6644C16.0562 15.6644 16.3738 15.3468 16.3738 14.955V12.1172C16.3738 11.7254 16.0562 11.4078 15.6644 11.4078C15.2725 11.4078 14.9549 11.0902 14.9549 10.6984V1.61764ZM14.9549 13.5361C14.9549 13.9279 14.6373 14.2455 14.2455 14.2455C13.8537 14.2455 13.5361 13.9279 13.5361 13.5361C13.5361 13.1443 13.8537 12.8267 14.2455 12.8267C14.6373 12.8267 14.9549 13.1443 14.9549 13.5361Z" fill="white"/>
<path d="M9.23226 1.61764C9.23226 1.22583 8.91464 0.908203 8.52283 0.908203C8.13102 0.908203 7.8134 1.22583 7.8134 1.61764V2.73627C7.8134 3.12808 7.49577 3.4457 7.10396 3.4457C6.71216 3.4457 6.39453 3.76333 6.39453 4.15514V6.99287C6.39453 7.38468 6.71216 7.7023 7.10396 7.7023C7.49577 7.7023 7.8134 8.01992 7.8134 8.41173V24.4141C7.8134 24.8059 8.13102 25.1235 8.52283 25.1235C8.91464 25.1235 9.23226 24.8059 9.23226 24.4141V8.41173C9.23226 8.01993 9.54989 7.7023 9.9417 7.7023C10.3335 7.7023 10.6511 7.38468 10.6511 6.99287V4.15514C10.6511 3.76333 10.3335 3.4457 9.9417 3.4457C9.54989 3.4457 9.23226 3.12808 9.23226 2.73627V1.61764ZM9.23226 5.574C9.23226 5.96581 8.91464 6.28343 8.52283 6.28343C8.13102 6.28343 7.8134 5.96581 7.8134 5.574C7.8134 5.18219 8.13102 4.86457 8.52283 4.86457C8.91464 4.86457 9.23226 5.18219 9.23226 5.574Z" fill="white"/>
</svg>
