<svg width="26" height="26" viewBox="0 0 26 26" fill="none" xmlns="http://www.w3.org/2000/svg">
<path d="M12.5611 20.3174C12.8658 20.6456 13.1159 20.919 13.3737 21.2003C13.6237 21.4738 13.9207 21.6144 14.2801 21.466C14.6473 21.3175 14.7333 21.0128 14.7333 20.6456C14.7254 18.1687 14.7333 15.6996 14.7333 13.2227C14.7333 13.0821 14.7333 12.9414 14.7333 12.7774C14.8583 12.7695 14.9598 12.7539 15.0614 12.7539C16.6241 12.7539 18.1868 12.7539 19.7495 12.7539C20.3512 12.7539 20.6012 13.0039 20.6012 13.6056C20.6012 17.4342 20.6012 21.2628 20.6012 25.0836C20.6012 25.7087 20.3512 25.9666 19.7339 25.9666C14.9442 25.9666 10.1545 25.9666 5.36486 25.9666C4.76322 25.9666 4.50537 25.7087 4.50537 25.1071C4.50537 22.1379 4.50537 19.1688 4.49756 16.1997C4.49756 15.9653 4.56007 15.8246 4.77103 15.7074C6.41968 14.7698 8.06052 13.8087 9.70917 12.8711C9.88107 12.7695 10.1077 12.7617 10.3655 12.6914C10.3655 12.918 10.3655 13.0586 10.3655 13.1993C10.3655 15.6605 10.3655 18.1218 10.3655 20.5831C10.3655 20.9581 10.4124 21.2941 10.8031 21.4504C11.2016 21.6144 11.5063 21.4347 11.7719 21.1456C11.9985 20.8956 12.2486 20.6456 12.5611 20.3174Z" fill="#B7B8C5"/>
<path d="M7.58377 6.26825C7.58377 5.51033 7.60721 4.79149 7.57596 4.08046C7.51345 2.66622 8.48233 1.34573 9.82625 1.04101C11.2483 0.728466 12.6469 1.42387 13.1861 2.73654C13.3345 3.08815 13.3814 3.48663 13.483 3.88512C13.5299 3.86168 13.6236 3.83043 13.7018 3.78355C14.319 3.43194 14.9363 3.06471 15.5614 2.7131C16.0771 2.424 16.4521 2.50995 16.7412 3.01782C17.1944 3.79136 17.6398 4.57271 18.0851 5.34625C18.3742 5.85413 18.2727 6.21355 17.757 6.51046C14.4518 8.42477 11.1389 10.3391 7.83381 12.2456C6.17734 13.1988 4.52088 14.1599 2.87223 15.1131C2.23152 15.4882 1.92679 15.4022 1.53612 14.7537C1.10637 14.0427 0.684444 13.3238 0.254701 12.6128C-0.0969072 12.0112 -0.0109586 11.6674 0.590682 11.3314C1.27827 10.9407 1.96586 10.55 2.70033 10.1359C2.1065 9.75307 1.67676 9.27645 1.44235 8.64355C1.0048 7.48715 1.33297 6.15886 2.25496 5.3775C3.21602 4.5649 4.56776 4.43988 5.66165 5.09622C6.23204 5.4322 6.7868 5.79162 7.35718 6.14323C7.4275 6.1823 7.50564 6.22918 7.58377 6.26825ZM9.0449 6.36201C9.09178 6.37763 9.14648 6.38545 9.19336 6.40107C9.92001 5.97915 10.6623 5.57284 11.3655 5.11966C11.9515 4.7368 12.1234 3.97107 11.8421 3.31474C11.5687 2.68184 10.928 2.34586 10.2169 2.46307C9.59185 2.56464 9.07615 3.15065 9.05271 3.83824C9.02927 4.6821 9.0449 5.52596 9.0449 6.36201ZM7.0212 7.65905C6.23204 7.17461 5.51319 6.69017 4.74747 6.28387C4.15364 5.96352 3.41136 6.19011 3.00506 6.72143C2.60657 7.24493 2.59875 7.96378 2.99724 8.4951C3.39573 9.02641 4.1302 9.25301 4.73184 8.94828C5.49757 8.5576 6.22422 8.11223 7.0212 7.65905Z" fill="#B7B8C5"/>
<path d="M23.5702 9.7605C24.7969 9.90895 25.0626 10.0574 25.047 10.5575C25.0313 11.0497 24.7813 11.1826 23.5702 11.3154C23.5702 11.5342 23.578 11.7686 23.5702 11.9952C23.5546 12.4171 23.2655 12.7296 22.8748 12.7453C22.4997 12.7609 22.156 12.4562 22.1247 12.042C22.1091 11.8076 22.1247 11.5732 22.1247 11.2841C21.8825 11.2841 21.6637 11.2919 21.4527 11.2841C20.9683 11.2685 20.6714 10.9794 20.6714 10.5418C20.6714 10.1121 20.9683 9.81519 21.4527 9.79956C21.6559 9.79175 21.8669 9.79956 22.1247 9.79956C22.1247 9.54172 22.1169 9.30731 22.1247 9.08072C22.1481 8.64317 22.4763 8.32281 22.8748 8.33844C23.2733 8.35407 23.5624 8.67442 23.578 9.11979C23.5702 9.32294 23.5702 9.52609 23.5702 9.7605Z" fill="#B7B8C5"/>
<path d="M11.8342 18.9891C11.8342 16.8638 11.8342 14.8401 11.8342 12.7773C12.2952 12.7773 12.7562 12.7773 13.2407 12.7773C13.2407 14.8089 13.2407 16.8404 13.2407 18.9422C12.7875 18.5203 12.3343 18.4656 11.8342 18.9891Z" fill="#B7B8C5"/>
<path d="M21.3357 6.88495C20.9528 6.88495 20.5856 6.50209 20.5934 6.12704C20.609 5.73637 20.9372 5.42383 21.3357 5.42383C21.7342 5.42383 22.0623 5.73637 22.078 6.12704C22.0858 6.50209 21.7185 6.88495 21.3357 6.88495Z" fill="#B7B8C5"/>
<path d="M19.1242 10.5338C19.1242 10.9479 18.7804 11.2917 18.3819 11.2761C17.9913 11.2605 17.6787 10.9323 17.6787 10.5338C17.6787 10.1275 18.0225 9.77589 18.4132 9.79152C18.8117 9.81496 19.1242 10.1431 19.1242 10.5338Z" fill="#B7B8C5"/>
</svg>
