<svg width="26" height="18" viewBox="0 0 26 18" fill="none" xmlns="http://www.w3.org/2000/svg">
<path d="M8.85693 17.5644C8.85693 14.7385 8.85693 11.9593 8.85693 9.05531C9.14578 9.48467 9.37217 9.82035 9.59855 10.156C9.87178 10.5698 10.1372 10.9835 10.426 11.3895C10.6759 11.7408 11.0896 11.8188 11.4253 11.608C11.7766 11.3817 11.8781 10.9679 11.6361 10.5854C11.2848 10.0311 10.9101 9.48467 10.5275 8.89918C10.871 8.87576 11.1677 8.89918 11.4487 8.83673C12.1591 8.67279 12.6899 8.24343 12.9944 7.57988C13.0803 7.38471 13.1818 7.31445 13.3925 7.31445C17.2021 7.32226 21.0117 7.32226 24.8291 7.32226C24.8838 7.32226 24.9306 7.33007 25.0399 7.33787C25.0399 7.47839 25.0399 7.6111 25.0399 7.75162C25.0399 10.2341 25.0399 12.7166 25.0399 15.2069C25.0399 16.6745 24.1343 17.5879 22.6589 17.5879C18.1857 17.5957 13.7126 17.5879 9.23165 17.5879C9.11455 17.58 8.99745 17.5722 8.85693 17.5644ZM18.3965 14.6526C19.3411 14.6526 20.2935 14.6526 21.2381 14.6526C21.7768 14.6526 22.1046 14.3638 22.1046 13.9188C22.1046 13.4738 21.7611 13.1772 21.2381 13.1772C19.3567 13.1772 17.4754 13.1772 15.594 13.1772C15.0475 13.1772 14.6962 13.4894 14.7118 13.9422C14.7274 14.3872 15.0475 14.6526 15.6018 14.6526C16.523 14.6526 17.4597 14.6526 18.3965 14.6526ZM18.3965 10.2809C17.4363 10.2809 16.4683 10.2809 15.5081 10.2809C15.0085 10.2809 14.704 10.5464 14.6962 10.9757C14.6884 11.4207 14.9929 11.7173 15.5081 11.7251C17.4363 11.733 19.3567 11.733 21.2849 11.7251C21.7924 11.7251 22.1046 11.4207 22.0968 10.9757C22.089 10.5464 21.7846 10.2809 21.2849 10.2809C20.3247 10.2809 19.3645 10.2809 18.3965 10.2809Z" fill="#B7B8C5"/>
<path d="M25.0399 5.87833C24.8682 5.87833 24.7276 5.87833 24.5949 5.87833C20.9024 5.87833 17.2099 5.87833 13.5174 5.88614C13.2442 5.88614 13.0881 5.82369 12.9476 5.55046C12.3543 4.36387 10.8945 3.95793 9.7547 4.63709C9.46586 4.80884 9.19263 5.004 8.87256 5.21478C8.87256 3.47392 8.87256 1.7799 8.87256 0.0390446C9.01308 0.0312381 9.14579 0.015625 9.28631 0.015625C13.736 0.015625 18.178 0.015625 22.6277 0.015625C24.1578 0.015625 25.0477 0.913377 25.0477 2.43565C25.0399 3.5676 25.0399 4.69955 25.0399 5.87833Z" fill="#B7B8C5"/>
<path d="M7.37356 9.0319C7.37356 11.9281 7.37356 14.7229 7.37356 17.5566C7.24865 17.5644 7.12375 17.5801 6.99884 17.5801C5.46096 17.5801 3.93087 17.5879 2.39299 17.5801C0.96439 17.5722 0.0510254 16.6589 0.0510254 15.2381C0.0510254 12.7322 0.0510254 10.2185 0.0510254 7.71259C0.0510254 7.59549 0.0510254 7.4862 0.0510254 7.32227C1.04246 7.32227 1.99485 7.32227 2.95506 7.33007C3.02532 7.33007 3.1268 7.40033 3.15803 7.47059C3.64203 8.54009 4.48514 8.98506 5.71076 8.87577C5.32824 9.45345 4.96914 9.96868 4.64908 10.5073C4.53978 10.6947 4.43049 10.9757 4.49294 11.1475C4.57882 11.3661 4.80521 11.6002 5.02379 11.6861C5.34386 11.8188 5.6327 11.6471 5.82006 11.3582C6.24942 10.7181 6.67097 10.0858 7.09252 9.44564C7.16278 9.33635 7.24085 9.22706 7.37356 9.0319Z" fill="#B7B8C5"/>
<path d="M7.37361 0.0702722C7.37361 1.7721 7.37361 3.46612 7.37361 5.23039C7.09257 5.04304 6.84276 4.88691 6.60076 4.72297C5.35952 3.91889 3.8997 4.30922 3.22053 5.60511C3.16588 5.7144 3.03317 5.85492 2.9395 5.85492C1.9871 5.87834 1.04251 5.87053 0.051077 5.87053C0.051077 4.98058 0.0432705 4.12186 0.051077 3.27095C0.0588835 2.75572 0.0432705 2.22488 0.129142 1.71745C0.277467 0.827506 1.08154 0.0702722 1.9949 0.0468526C3.75138 1.34166e-05 5.50785 0.023433 7.25651 0.023433C7.29554 0.023433 7.32677 0.0546592 7.37361 0.0702722Z" fill="#B7B8C5"/>
<path d="M6.78805 6.61276C6.3665 6.88599 6.0074 7.1436 5.63269 7.35438C5.2892 7.54954 4.85984 7.42464 4.62564 7.11238C4.39145 6.80012 4.38364 6.4176 4.61784 6.10534C4.85203 5.79307 5.26578 5.69159 5.62488 5.84772C5.67172 5.87114 5.71856 5.89456 5.7654 5.91798C6.08547 6.13656 6.40553 6.35514 6.78805 6.61276Z" fill="#B7B8C5"/>
<path d="M9.41895 6.6049C9.8483 6.32386 10.1996 6.06625 10.5821 5.85547C10.9256 5.66031 11.3394 5.7774 11.5892 6.08186C11.8234 6.3707 11.8312 6.79225 11.6126 7.0889C11.394 7.38555 10.9724 7.54168 10.6446 7.36994C10.2308 7.16697 9.85611 6.89374 9.41895 6.6049Z" fill="#B7B8C5"/>
</svg>
