<svg width="21" height="21" viewBox="0 0 21 21" fill="none" xmlns="http://www.w3.org/2000/svg">
<path d="M20.3034 8.80338V11.3034C20.2513 11.444 20.2669 11.5846 20.2513 11.7253C20.0117 13.8763 19.1888 15.7773 17.7357 17.3867C17.6055 17.5326 17.4701 17.6732 17.3294 17.8138C17.2826 17.8607 17.2357 17.9076 17.1888 17.9492C16.4857 18.6315 15.7097 19.194 14.8659 19.6211L14.8607 19.6263C14.8607 19.6263 14.8607 19.6263 14.8555 19.6263V19.6367C14.4076 19.8398 13.944 20.0482 13.4597 20.2096C13.4492 20.2148 13.444 20.2148 13.4336 20.2201C12.9805 20.3659 12.5065 20.4857 12.0169 20.5742C11.6419 20.6419 11.2617 20.6784 10.8815 20.7305H9.70966C9.65757 20.7305 9.6107 20.694 9.55861 20.694C7.99611 20.5846 6.53257 20.1315 5.19403 19.3138C3.6107 18.3451 2.40236 17.1107 1.56903 15.6211C1.03778 14.668 0.673197 13.6107 0.454447 12.444C0.381531 12.0638 0.355489 11.6836 0.303406 11.3034V10.1315C0.303406 9.99088 0.329447 9.85026 0.345072 9.70963C0.501322 8.28255 0.928406 6.96484 1.60549 5.76693C1.97007 5.16276 2.36591 4.58984 2.85028 4.05339C4.39195 2.34505 6.2982 1.28255 8.56903 0.88151C8.94403 0.813802 9.32424 0.782552 9.70445 0.730469H10.7982C10.8763 0.730469 10.9492 0.746094 11.0274 0.75651C11.3451 0.792969 11.6628 0.813802 11.9753 0.865885C13.2878 1.08464 14.5065 1.55339 15.6263 2.26693C15.8815 2.42839 16.1263 2.61068 16.3867 2.78776C15.6055 3.80339 14.8347 4.80339 14.069 5.79818C12.8451 4.8763 11.4492 4.48568 10.0951 4.53776C10.0274 4.53776 9.95445 4.54297 9.88674 4.54818C9.88153 4.54818 9.87632 4.54818 9.87111 4.54818C9.65757 4.5638 9.44403 4.58984 9.2357 4.6263C9.20445 4.63151 9.1732 4.63672 9.14195 4.64193C9.10549 4.64714 9.07424 4.65755 9.03778 4.66276C8.99611 4.67318 8.95965 4.67839 8.91799 4.6888C8.87111 4.69922 8.82945 4.70964 8.78257 4.72005C8.69403 4.74089 8.60549 4.76693 8.51695 4.79297C8.4857 4.80339 8.44924 4.80339 8.41799 4.8138C8.28778 4.85547 8.15757 4.89193 8.03257 4.94401C7.97007 4.99609 7.90757 5.0013 7.84507 5.02734C7.81382 5.04297 7.78257 5.05859 7.75132 5.06901C7.66799 5.10547 7.58466 5.14714 7.50653 5.1888C7.47007 5.20443 7.43361 5.22526 7.40236 5.24089C7.37111 5.25651 7.33466 5.27734 7.30341 5.29297C6.81382 5.55859 6.36591 5.89193 5.97007 6.28255C5.54299 6.70443 5.18361 7.17839 4.89716 7.69401C3.90757 9.46484 3.79299 11.668 4.82945 13.6211C4.83986 13.6367 4.85028 13.6576 4.85549 13.6732C5.86591 15.5273 7.74091 16.7461 9.86591 16.8867C9.87111 16.8867 9.87632 16.8867 9.88153 16.8867C9.94924 16.8919 10.0222 16.8971 10.0899 16.8971C10.0951 16.8971 10.1003 16.8971 10.1055 16.8971C10.5899 16.9128 11.0847 16.8659 11.5847 16.7617C12.069 16.6628 12.5222 16.4961 12.9388 16.2982C12.9388 16.2982 12.9388 16.2982 12.944 16.2982C13.3399 16.1107 13.7044 15.8815 14.0378 15.6211C14.0847 15.5846 14.1315 15.5482 14.1784 15.5117C14.2409 15.4596 14.3034 15.4076 14.3607 15.3555C14.4597 15.2721 14.5534 15.1836 14.6419 15.0951C14.6576 15.0794 14.6732 15.0638 14.6888 15.0482C14.7201 15.0169 14.7513 14.9805 14.7826 14.9492C14.8242 14.9076 14.8659 14.8607 14.9024 14.819C14.9232 14.793 14.944 14.7721 14.9649 14.7461C15.0065 14.6992 15.043 14.6523 15.0847 14.6055C15.1628 14.5117 15.2357 14.4128 15.3086 14.319C15.3242 14.2982 15.3399 14.2773 15.3555 14.2565C15.3972 14.194 15.444 14.1315 15.4857 14.069C15.4857 14.069 15.4857 14.0638 15.4909 14.0638C15.5065 14.043 15.5169 14.0221 15.5326 14.0013C15.5482 13.9753 15.569 13.944 15.5847 13.918C15.6003 13.8919 15.6107 13.8711 15.6263 13.8451C15.6628 13.7878 15.694 13.7305 15.7253 13.6732C15.7357 13.6523 15.7461 13.6315 15.7565 13.6159C15.7774 13.5742 15.8034 13.5326 15.8242 13.4857C15.8347 13.4648 15.8451 13.444 15.8555 13.4232C15.8659 13.4023 15.8763 13.3815 15.8867 13.3607C15.9076 13.319 15.9232 13.2773 15.944 13.2305C15.9544 13.2096 15.9597 13.1888 15.9701 13.168C15.9857 13.1263 16.0065 13.0846 16.0222 13.043C16.0378 13.0065 16.0482 12.9701 16.0638 12.9336C16.0794 12.8971 16.0899 12.8607 16.1003 12.8242C16.1263 12.7513 16.1472 12.6784 16.1628 12.6107H10.3034V8.80859H20.0378C20.1211 8.80339 20.1992 8.80338 20.3034 8.80338Z" fill="#FFD500"/>
<path d="M16.3867 2.78776C15.6055 3.80339 14.8347 4.80339 14.069 5.79818C12.8451 4.8763 11.4492 4.48568 10.0951 4.53776C10.0274 4.53776 9.95445 4.54297 9.88674 4.54818V0.730469H10.7982C10.8763 0.730469 10.9492 0.746094 11.0274 0.75651C11.3451 0.792969 11.6628 0.813802 11.9753 0.865885C13.2878 1.08464 14.5065 1.55339 15.6263 2.26693C15.8867 2.42839 16.1315 2.61068 16.3867 2.78776Z" fill="#D93F21"/>
<path d="M20.3034 8.80273V11.3027C20.2513 11.4434 20.2669 11.584 20.2513 11.7246C20.0117 13.8757 19.1888 15.7767 17.7357 17.3861C17.6055 17.5319 17.4701 17.6725 17.3294 17.8132C17.2826 17.86 17.2357 17.9069 17.1888 17.9486C16.4805 18.6257 15.7044 19.1829 14.8607 19.6152H14.8555L14.8607 19.6204C14.8607 19.6204 14.8607 19.6204 14.8555 19.6204V19.6309C14.4076 19.834 13.944 20.0423 13.4597 20.2038H10.0951V16.8965C10.1003 16.8965 10.1055 16.8965 10.1107 16.8965C10.5951 16.9121 11.0899 16.8652 11.5899 16.7611C12.0742 16.6621 12.5274 16.4954 12.944 16.2975C12.944 16.2975 12.944 16.2975 12.9492 16.2975C13.4024 16.0788 13.8138 15.8132 14.1836 15.5111C14.2461 15.459 14.3086 15.4069 14.3659 15.3548C14.4649 15.2715 14.5586 15.1829 14.6472 15.0944C14.6628 15.0788 14.6784 15.0632 14.694 15.0475C14.7253 15.0163 14.7565 14.9798 14.7878 14.9486C14.8294 14.9069 14.8711 14.86 14.9076 14.8184C14.9284 14.7923 14.9492 14.7715 14.9701 14.7454C15.0117 14.6986 15.0482 14.6517 15.0899 14.6048C15.168 14.5111 15.2409 14.4121 15.3138 14.3184C15.3294 14.2975 15.3451 14.2767 15.3607 14.2559C15.4024 14.1934 15.4492 14.1309 15.4909 14.0684C15.4909 14.0684 15.4909 14.0632 15.4961 14.0632C15.5117 14.0423 15.5222 14.0215 15.5378 14.0007C15.5534 13.9746 15.5742 13.9434 15.5899 13.9173C15.6055 13.8913 15.6159 13.8704 15.6315 13.8444C15.668 13.7871 15.6992 13.7298 15.7305 13.6725C15.7409 13.6517 15.7513 13.6309 15.7617 13.6152C15.7826 13.5736 15.8086 13.5319 15.8294 13.485C15.8399 13.4642 15.8503 13.4434 15.8607 13.4225C15.8711 13.4017 15.8815 13.3809 15.8919 13.36C15.9128 13.3184 15.9284 13.2767 15.9492 13.2298C15.9597 13.209 15.9649 13.1882 15.9753 13.1673C15.9909 13.1257 16.0117 13.084 16.0274 13.0423C16.043 13.0059 16.0534 12.9694 16.069 12.9329C16.0847 12.8965 16.0951 12.86 16.1055 12.8236C16.1315 12.7507 16.1524 12.6777 16.168 12.61H10.3034V8.80794H20.0378C20.1211 8.80273 20.1992 8.80273 20.3034 8.80273Z" fill="#167EE6"/>
<path d="M14.8659 19.6204L14.8607 19.6257C14.8607 19.6257 14.8607 19.6257 14.8555 19.6257V19.6361C14.4076 19.8392 13.944 20.0475 13.4597 20.209C13.4492 20.2142 13.444 20.2142 13.4336 20.2194C12.9805 20.3652 12.5065 20.485 12.0169 20.5736C11.6419 20.6413 11.2617 20.6777 10.8815 20.7298H9.89194V16.8913C9.95965 16.8965 10.0326 16.9017 10.1003 16.9017C10.1055 16.9017 10.1107 16.9017 10.1159 16.9017C10.6003 16.9173 11.0951 16.8704 11.5951 16.7663C12.0794 16.6673 12.5326 16.5007 12.9492 16.3027C12.9492 16.3027 12.9492 16.3027 12.9544 16.3027H12.9649L14.8659 19.6152V19.6204Z" fill="#0F993E"/>
<path d="M10.0951 16.9017V20.7298H9.70444C9.65236 20.7298 9.60549 20.6934 9.5534 20.6934C7.9909 20.584 6.52736 20.1309 5.18882 19.3131C3.60549 18.3444 2.39715 17.11 1.56382 15.6204L4.85549 13.6777C5.8659 15.5319 7.7409 16.7506 9.8659 16.8913C9.87111 16.8913 9.87632 16.8913 9.88153 16.8913C9.95444 16.8965 10.0274 16.8965 10.0951 16.9017Z" fill="#12B347"/>
<path d="M10.0951 0.730469V4.53776C10.0274 4.53776 9.95445 4.54297 9.88674 4.54818C9.63153 4.5638 9.38674 4.60026 9.14195 4.64714C9.10549 4.65234 9.07424 4.66276 9.03778 4.66797C8.99612 4.67839 8.95966 4.68359 8.91799 4.69401C8.87112 4.70443 8.82945 4.71484 8.78258 4.72526C8.69403 4.74609 8.60549 4.77214 8.51695 4.79818C8.4857 4.80859 8.44924 4.80859 8.41799 4.81901C8.28778 4.86068 8.15757 4.89714 8.03257 4.94922C7.97007 5.0013 7.90758 5.00651 7.84508 5.03255C7.81383 5.04818 7.78257 5.0638 7.75132 5.07422C7.66799 5.11068 7.58466 5.15234 7.50653 5.19401C7.47008 5.20964 7.43362 5.23047 7.40237 5.24609C7.37112 5.26172 7.33466 5.28255 7.30341 5.29818C6.81903 5.5638 6.37112 5.89714 5.98049 6.28776C5.55341 6.70964 5.18883 7.1888 4.90237 7.69922H4.89716L1.60549 5.76693C1.97007 5.16276 2.36591 4.58984 2.85028 4.05339C4.39195 2.34505 6.2982 1.28255 8.56903 0.88151C8.94403 0.813802 9.32424 0.782552 9.70445 0.730469H10.0951V0.730469Z" fill="#FF4B26"/>
</svg>
