<svg width="18" height="15" viewBox="0 0 18 15" fill="none" xmlns="http://www.w3.org/2000/svg">
<path d="M8.79493 3.32227L2.52077 8.49464C2.52077 8.50194 2.51894 8.51268 2.51527 8.52732C2.51168 8.54184 2.50977 8.55239 2.50977 8.55988V13.7975C2.50977 13.9866 2.5789 14.1505 2.71714 14.2885C2.85534 14.4265 3.019 14.496 3.20814 14.496H7.3981V10.3058H10.1918V14.4962H14.3817C14.5708 14.4962 14.7347 14.4269 14.8727 14.2885C15.011 14.1506 15.0803 13.9866 15.0803 13.7975V8.55988C15.0803 8.53084 15.0763 8.5089 15.0693 8.49464L8.79493 3.32227Z" fill="#B7B8C5"/>
<path d="M17.4708 7.31606L15.0813 5.33012V0.878093C15.0813 0.776316 15.0485 0.692616 14.9829 0.627109C14.9178 0.561678 14.8341 0.528962 14.7321 0.528962H12.637C12.5351 0.528962 12.4515 0.561678 12.3859 0.627109C12.3205 0.692616 12.2879 0.776354 12.2879 0.878093V3.00586L9.62546 0.779794C9.39293 0.590648 9.11645 0.496094 8.79633 0.496094C8.47625 0.496094 8.19981 0.590648 7.96705 0.779794L0.121252 7.31606C0.0485213 7.37415 0.00865882 7.45235 0.00124432 7.55057C-0.00613196 7.64872 0.0192837 7.73444 0.0775678 7.80713L0.754083 8.61463C0.812368 8.68006 0.888653 8.72007 0.983245 8.73471C1.07058 8.74205 1.15791 8.71652 1.24524 8.65835L8.7961 2.36206L16.347 8.65831C16.4054 8.70907 16.4816 8.73441 16.5762 8.73441H16.609C16.7034 8.72004 16.7796 8.67975 16.8382 8.61447L17.5147 7.8071C17.5729 7.73425 17.5984 7.64868 17.5908 7.55042C17.5834 7.45246 17.5434 7.37427 17.4708 7.31606Z" fill="#B7B8C5"/>
</svg>
