<svg width="21" height="21" viewBox="0 0 21 21" fill="none" xmlns="http://www.w3.org/2000/svg">
<path d="M15.2401 0.0253906H5.99005C2.99005 0.0253906 0.615051 2.40039 0.615051 5.40039V14.5254C0.615051 17.6504 2.99005 20.0254 5.99005 20.0254H15.1151C18.1151 20.0254 20.4901 17.6504 20.4901 14.6504V5.40039C20.6151 2.40039 18.2401 0.0253906 15.2401 0.0253906ZM10.6151 15.5254C7.61505 15.5254 5.11505 13.0254 5.11505 10.0254C5.11505 7.02539 7.61505 4.52539 10.6151 4.52539C13.6151 4.52539 16.1151 7.02539 16.1151 10.0254C16.1151 13.0254 13.6151 15.5254 10.6151 15.5254ZM16.2401 5.90039C15.3651 5.90039 14.6151 5.15039 14.6151 4.27539C14.6151 3.40039 15.3651 2.65039 16.2401 2.65039C17.1151 2.65039 17.8651 3.40039 17.8651 4.27539C17.8651 5.15039 17.1151 5.90039 16.2401 5.90039Z" fill="#74CCD8"/>
<path d="M10.6151 5.77539C8.24005 5.77539 6.36505 7.65039 6.36505 10.0254C6.36505 12.4004 8.24005 14.2754 10.6151 14.2754C12.9901 14.2754 14.8651 12.4004 14.8651 10.0254C14.8651 7.65039 12.9901 5.77539 10.6151 5.77539Z" fill="#74CCD8"/>
<path d="M16.2399 3.77539C15.9899 3.77539 15.7399 4.02539 15.7399 4.27539C15.7399 4.52539 15.9899 4.77539 16.2399 4.77539C16.4899 4.77539 16.7399 4.52539 16.7399 4.27539C16.6149 4.02539 16.4899 3.77539 16.2399 3.77539Z" fill="#74CCD8"/>
</svg>
