<svg width="38" height="35" viewBox="0 0 38 35" fill="none" xmlns="http://www.w3.org/2000/svg">
<path d="M37.5795 3.57213C37.5795 5.17282 36.2753 6.21031 34.6746 6.21031H29.7243V10.1231C28.1236 8.67064 26.76 8.31493 24.5665 8.49279V0.904297H34.6746C36.2753 0.904297 37.5795 1.94179 37.5795 3.57213Z" fill="#74CCD8"/>
<path d="M18.549 1.94122V10.8636C16.1776 9.35185 14.2508 8.19579 12.0573 8.19579H11.998C6.75128 8.19579 2.5124 12.82 2.5124 18.215C2.5124 18.3632 2.5124 18.6003 2.5124 18.7485C1.47491 16.7032 0.852417 14.48 0.852417 12.079C0.852417 4.60904 6.0695 0.785156 12.7984 0.785156H12.8873C14.488 0.785156 17.3633 1.34836 18.549 1.94122Z" fill="url(#paint0_linear_893_17640)"/>
<path d="M32.3328 18.6C32.3328 20.8528 31.2064 22.9278 29.576 24.7064C28.6571 24.1432 27.5604 23.8171 26.4043 23.8171C23.025 23.8171 20.2979 26.5442 20.2979 29.9235C20.2979 30.3385 20.3276 30.7238 20.4165 31.1092C19.1715 31.702 18.3415 32.0281 18.3415 32.0281C18.3415 32.0281 17.6301 31.7317 16.563 31.2277C16.6519 30.8127 16.7112 30.3681 16.7112 29.9235C16.7112 26.5442 13.9841 23.8171 10.6048 23.8171C9.35983 23.8171 8.20377 24.1728 7.25521 24.8249C5.56558 23.0167 4.37988 20.8232 4.37988 18.5407C4.37988 14.2129 7.78878 10.5965 11.998 10.5965H12.0573C14.6066 10.5965 16.978 12.0194 18.3712 14.2129C19.794 11.9897 22.1951 10.3594 24.7443 10.3594C28.9239 10.389 32.3328 14.2722 32.3328 18.6Z" fill="url(#paint1_linear_893_17640)"/>
<path d="M10.3677 34.1633C12.7087 34.1633 14.6066 32.2655 14.6066 29.9244C14.6066 27.5834 12.7087 25.6855 10.3677 25.6855C8.0266 25.6855 6.12878 27.5834 6.12878 29.9244C6.12878 32.2655 8.0266 34.1633 10.3677 34.1633Z" fill="#74CCD8"/>
<path d="M26.4043 34.1633C28.7454 34.1633 30.6432 32.2655 30.6432 29.9244C30.6432 27.5834 28.7454 25.6855 26.4043 25.6855C24.0632 25.6855 22.1654 27.5834 22.1654 29.9244C22.1654 32.2655 24.0632 34.1633 26.4043 34.1633Z" fill="#74CCD8"/>
<defs>
<linearGradient id="paint0_linear_893_17640" x1="9.70072" y1="0.785156" x2="9.70072" y2="18.7485" gradientUnits="userSpaceOnUse">
<stop stop-color="#ED9BC1"/>
<stop offset="1" stop-color="#ED9BB9"/>
</linearGradient>
<linearGradient id="paint1_linear_893_17640" x1="18.3563" y1="10.3594" x2="18.3563" y2="32.0281" gradientUnits="userSpaceOnUse">
<stop stop-color="#ED9BC1"/>
<stop offset="1" stop-color="#ED9BB9"/>
</linearGradient>
</defs>
</svg>
