<svg width="21" height="14" viewBox="0 0 21 14" fill="none" xmlns="http://www.w3.org/2000/svg">
<path d="M13.6099 7.10284L20.4744 11.4444V2.58008L13.6099 7.10284Z" fill="#686877"/>
<path d="M0.110779 2.58008V11.4444L6.97536 7.10284L0.110779 2.58008Z" fill="#686877"/>
<path d="M19.2016 0H1.38345C0.748105 0 0.245123 0.474473 0.149414 1.08335L10.2925 7.76465L20.4357 1.08131C20.34 0.472436 19.837 0 19.2016 0Z" fill="#686877"/>
<path d="M12.443 7.87305L10.6429 9.06025C10.535 9.12948 10.4148 9.1641 10.2926 9.1641C10.1705 9.1641 10.0503 9.12948 9.94239 9.06025L8.14224 7.87305L0.15155 12.9253C0.249296 13.5301 0.750241 14.0005 1.38355 14.0005H19.2017C19.835 14.0005 20.336 13.5301 20.4337 12.9253L12.443 7.87305Z" fill="#686877"/>
</svg>
