<svg width="15" height="19" viewBox="0 0 15 19" fill="none" xmlns="http://www.w3.org/2000/svg">
<path d="M7.30546 9.17998C9.3005 9.17998 10.918 7.21549 10.918 4.79216C10.918 2.36878 10.3869 0.404297 7.30546 0.404297C4.22401 0.404297 3.69287 2.36878 3.69287 4.79216C3.69287 7.21549 5.31032 9.17998 7.30546 9.17998Z" fill="#F4F5F9"/>
<path d="M0.482156 15.8806C0.48154 15.7329 0.480925 15.839 0.482156 15.8806V15.8806Z" fill="#F4F5F9"/>
<path d="M14.1284 15.9963C14.1304 15.9556 14.1291 15.7141 14.1284 15.9963V15.9963Z" fill="#F4F5F9"/>
<path d="M14.1206 15.7034C14.0537 11.4819 13.5023 10.279 9.28335 9.51758C9.28335 9.51758 8.68946 10.2743 7.30523 10.2743C5.921 10.2743 5.32701 9.51758 5.32701 9.51758C1.15406 10.2707 0.569192 11.4558 0.49229 15.5663C0.485984 15.9019 0.483061 15.9196 0.481934 15.8806C0.48219 15.9536 0.482497 16.0886 0.482497 16.3241C0.482497 16.3241 1.48694 18.349 7.30523 18.349C13.1234 18.349 14.128 16.3241 14.128 16.3241C14.128 16.1728 14.1281 16.0676 14.1282 15.996C14.1271 16.0201 14.1248 15.9734 14.1206 15.7034Z" fill="#F4F5F9"/>
</svg>
