<svg width="26" height="33" viewBox="0 0 26 33" fill="none" xmlns="http://www.w3.org/2000/svg">
<path d="M6.74781 21.3502C6.74781 20.805 6.74781 20.2996 6.74781 19.7941C6.7379 19.0507 6.76763 18.3074 6.70817 17.564C6.4802 14.8285 3.71492 13.0147 1.10822 13.877C0.999196 13.9166 0.89017 13.9464 0.672119 14.0058C0.800967 13.6589 0.880259 13.3913 0.989284 13.1237C1.64344 11.5478 2.58502 10.1701 3.79421 8.97083C5.78641 6.98855 7.75877 4.99635 9.75097 3.02398C12.4964 0.298347 17.0458 0.298347 19.7912 3.01407C20.485 3.69796 21.1689 4.39176 21.8627 5.07564C22.2294 5.43246 22.3781 5.84873 22.16 6.33439C21.9618 6.80023 21.5654 6.9489 21.0698 6.9489C18.9686 6.93899 16.8773 6.92908 14.7761 6.9489C12.2586 6.97864 10.1871 8.58428 9.54283 10.9928C9.42389 11.4487 9.36442 11.9343 9.36442 12.4101C9.3446 14.2734 9.36442 16.1368 9.35451 18.01C9.3446 19.467 8.42284 20.7654 7.09471 21.261C7.01542 21.2907 6.91631 21.3105 6.74781 21.3502Z" fill="#B7B8C5"/>
<path d="M7.10453 27.8414C7.10453 29.4866 7.10453 31.0626 7.10453 32.6979C5.33039 32.6583 3.52651 33.0151 1.96051 31.8158C0.751317 30.8842 0.0575188 29.6849 0.0575188 28.1387C0.0476074 24.7688 0.0476074 21.4088 0.0476074 18.039C0.0476074 16.6018 1.04866 15.5611 2.41643 15.5413C3.81394 15.5215 4.87446 16.5622 4.88437 18.0092C4.9042 20.8637 4.88437 23.7182 4.89429 26.5727C4.89429 27.544 5.18172 27.8314 6.16295 27.8414C6.46029 27.8414 6.74772 27.8414 7.10453 27.8414Z" fill="#B7B8C5"/>
<path d="M16.1536 18.6644C14.5777 20.2304 12.9126 21.8856 11.2574 23.5309C10.5339 24.2544 9.82023 24.9879 9.07687 25.6916C8.90838 25.8502 8.63086 25.9592 8.4029 25.979C7.87759 26.0187 7.35229 25.9889 6.7576 25.9889C6.7576 25.1167 6.74769 24.2842 6.76752 23.4516C6.76752 23.3723 6.95583 23.2534 7.08468 23.2137C9.64182 22.51 11.2276 20.4584 11.2376 17.812C11.2475 16.5929 11.2376 15.3738 11.2376 14.1547C11.2376 13.9961 11.2376 13.8375 11.2376 13.7285C12.863 15.3441 14.4786 16.9795 16.1536 18.6644Z" fill="#B7B8C5"/>
<path d="M14.9246 22.6096C16.2031 21.3013 17.3628 19.9534 18.681 18.7937C20.7723 16.9502 23.716 17.5647 24.7765 19.9732C24.8657 20.1714 24.945 20.3696 24.9846 20.5778C25.2423 21.8563 24.7071 22.6393 23.3988 22.6195C20.7227 22.5799 18.0467 22.6096 15.3706 22.6096C15.2318 22.6096 15.0831 22.6096 14.9246 22.6096Z" fill="#B7B8C5"/>
<path d="M11.3467 11.5286C11.763 9.8932 13.0911 8.83268 14.7463 8.82276C16.4312 8.81285 18.1162 8.82276 19.8011 8.82276C19.93 8.82276 20.0588 8.83268 20.3165 8.8525C19.93 9.24896 19.6227 9.58594 19.2956 9.8932C18.6316 10.5275 18.0666 11.2114 17.8387 12.1431C17.799 12.3215 17.4719 12.5296 17.2638 12.5495C16.8277 12.5792 16.4907 12.7279 16.1537 13.0054C15.2716 13.719 14.0723 13.6496 13.2199 12.8567C12.9424 12.599 12.6748 12.3215 12.3676 12.1034C12.0603 11.8755 11.7134 11.7268 11.3467 11.5286Z" fill="#B7B8C5"/>
<path d="M11.416 25.9596C11.9413 25.4541 12.3774 25.018 12.8333 24.5918C12.9027 24.5224 13.0415 24.4927 13.1505 24.4927C14.7165 24.4828 16.2825 24.4927 17.9179 24.4927C16.8772 26.3858 16.9961 28.1698 18.4135 29.9539C17.462 30.608 16.5303 31.2523 15.5986 31.8965C15.5491 31.8569 15.5094 31.8271 15.4599 31.7875C15.9356 30.39 15.7671 29.0817 14.9544 27.8824C14.1317 26.6831 12.982 26.0686 11.416 25.9596Z" fill="#B7B8C5"/>
<path d="M9.01733 32.6796C9.01733 31.0442 9.01733 29.4683 9.01733 27.9122C10.0085 27.9122 10.9996 27.7933 11.9412 27.942C13.2198 28.1501 13.9037 29.171 13.8343 30.4396C13.7748 31.6191 12.9522 32.5309 11.7132 32.6598C10.8212 32.749 9.92918 32.6796 9.01733 32.6796Z" fill="#B7B8C5"/>
<path d="M21.4562 29.329C20.0785 29.3092 19.0676 28.2487 19.0775 26.8313C19.0973 25.5429 20.1975 24.4823 21.5157 24.4923C22.8438 24.5022 23.9539 25.6222 23.9241 26.9206C23.8944 28.3181 22.8438 29.3488 21.4562 29.329Z" fill="#B7B8C5"/>
</svg>
