<svg width="17" height="16" viewBox="0 0 17 16" fill="none" xmlns="http://www.w3.org/2000/svg">
<path d="M7.25123 9.36811C5.72129 7.83817 5.37685 6.31143 5.29835 5.69786C5.27592 5.52964 5.3352 5.35983 5.45535 5.23807L6.69052 4.00291C6.87155 3.82188 6.90359 3.53671 6.76902 3.32044L4.79852 0.260557C4.64793 0.0186499 4.33713 -0.069462 4.08081 0.0587007L0.923201 1.54539C0.718141 1.64471 0.594784 1.86419 0.620417 2.09328C0.787028 3.66648 1.4711 7.53699 5.27592 11.3418C9.08075 15.1466 12.9481 15.8323 14.5245 15.9973C14.7535 16.0198 14.9714 15.8996 15.0724 15.6945L16.5622 12.5305C16.6904 12.2774 16.6023 11.9666 16.362 11.8176L13.3021 9.84872C13.0826 9.71095 12.8007 9.74619 12.6196 9.92722L11.3845 11.1624C11.2659 11.2841 11.0929 11.3402 10.9247 11.3194C10.3111 11.2409 8.78117 10.8981 7.25123 9.36811Z" fill="#686877"/>
</svg>
