<svg width="22" height="19" viewBox="0 0 22 19" fill="none" xmlns="http://www.w3.org/2000/svg">
<path d="M10.7637 14.2754C12.5985 14.2754 14.0859 12.788 14.0859 10.9531C14.0859 9.11829 12.5985 7.63086 10.7637 7.63086C8.92884 7.63086 7.44141 9.11829 7.44141 10.9531C7.44141 12.788 8.92884 14.2754 10.7637 14.2754Z" fill="#B7B8C5"/>
<path d="M15.6162 2.54492L15.4038 1.48331C15.2892 0.910162 14.7818 0.494141 14.1973 0.494141H7.331C6.74653 0.494141 6.23904 0.910162 6.12445 1.48331L5.91211 2.54492H15.6162Z" fill="#B7B8C5"/>
<path d="M19.418 3.77539C17.9733 3.77539 2.78548 3.77539 2.10938 3.77539C1.09165 3.77539 0.263672 4.60337 0.263672 5.62109V16.2852C0.263672 17.3029 1.09165 18.1309 2.10938 18.1309H19.418C20.4357 18.1309 21.2637 17.3029 21.2637 16.2852V5.62109C21.2637 4.60337 20.4357 3.77539 19.418 3.77539ZM5.51367 7.63086H3.54492C3.20515 7.63086 2.92969 7.3554 2.92969 7.01562C2.92969 6.67585 3.20515 6.40039 3.54492 6.40039H5.51367C5.85345 6.40039 6.12891 6.67585 6.12891 7.01562C6.12891 7.3554 5.85345 7.63086 5.51367 7.63086ZM10.7637 15.5059C8.25327 15.5059 6.21094 13.4635 6.21094 10.9531C6.21094 8.44272 8.25327 6.40039 10.7637 6.40039C13.2741 6.40039 15.3164 8.44272 15.3164 10.9531C15.3164 13.4635 13.2741 15.5059 10.7637 15.5059Z" fill="#B7B8C5"/>
</svg>
