<svg width="35" height="41" viewBox="0 0 35 41" fill="none" xmlns="http://www.w3.org/2000/svg">
<path d="M18.7052 38.8519C17.2931 38.8519 15.956 38.8519 14.544 38.8519C14.544 39.2018 14.5565 39.5767 14.544 39.9391C14.519 40.5389 14.2191 40.9013 13.6318 40.9138C11.9073 40.9388 10.1703 40.9263 8.44589 40.9138C7.85857 40.9138 7.53367 40.5639 7.53367 39.9516C7.50868 37.9022 6.69644 36.2153 5.35935 34.6657C2.96011 31.8916 1.51056 28.6926 1.67301 24.9438C1.73549 23.4692 2.08538 22.0322 2.69769 20.7701C3.88482 21.3449 4.99697 22.0197 6.19659 22.4321C12.807 24.6814 19.8423 21.0575 21.7417 14.3346C22.404 12.0103 23.966 10.9982 26.0529 10.4358C26.2903 10.3733 26.5402 10.3484 26.7901 10.2984C27.24 10.2234 27.7024 10.2859 27.8523 10.7357C27.9648 11.0606 27.9648 11.523 27.8023 11.8229C27.34 12.7226 26.9776 13.6348 27.0276 14.672C27.0526 15.3218 27.2275 15.8341 27.7648 16.2965C29.3643 17.6711 30.5765 19.358 31.3012 21.3574C31.4637 21.8073 31.6886 21.9947 32.1635 21.9197C32.3509 21.8947 32.5383 21.9072 32.7258 21.9197C33.613 21.9572 34.2628 22.582 34.2878 23.4692C34.3128 24.8063 34.3128 26.1309 34.2878 27.468C34.2628 28.4177 33.563 29.0925 32.5633 29.03C31.8011 28.98 31.5012 29.2424 31.2512 29.9422C30.5515 31.8791 29.3518 33.5036 27.8148 34.8532C26.3653 36.1153 25.6405 37.6398 25.728 39.5767C25.778 40.7388 25.528 40.9388 24.3409 40.9388C22.8789 40.9388 21.4293 40.9388 19.9673 40.9388C18.9801 40.9388 18.7302 40.6764 18.7177 39.6767C18.6927 39.3893 18.7052 39.1268 18.7052 38.8519ZM26.1279 22.1821C26.8401 22.1697 27.4274 21.5573 27.4149 20.8576C27.4025 20.1578 26.7776 19.558 26.0779 19.5705C25.3906 19.583 24.7783 20.2203 24.7908 20.8951C24.8033 21.6073 25.4156 22.1946 26.1279 22.1821Z" fill="url(#paint0_linear_898_24302)"/>
<path d="M10.058 21.0582C4.50976 21.0582 0.0236628 16.5096 0.0361589 10.9363C0.0486549 5.42557 4.59723 0.926983 10.133 0.939479C15.7063 0.951975 20.1798 5.45057 20.1798 11.0363C20.1674 16.6096 15.6688 21.0707 10.058 21.0582ZM5.49695 11.1988C5.25952 11.1988 5.07208 11.2113 4.89714 11.1988C4.34731 11.1363 4.17236 11.3862 4.15987 11.9235C4.14737 12.4984 4.35981 12.7608 4.93463 12.6733C5.48445 12.5983 5.82185 12.7483 5.93431 13.3481C5.99679 13.6855 6.20923 13.9979 6.38417 14.2978C7.60879 16.3472 10.2455 17.1969 12.8197 16.3846C14.0818 15.9848 14.1317 15.8723 13.5444 14.6477C13.357 14.2603 13.157 14.1603 12.7197 14.2478C11.8949 14.4103 11.0452 14.5477 10.208 14.5477C9.09582 14.5352 8.27108 13.798 7.95868 12.6608C8.69595 12.6608 9.42072 12.6608 10.133 12.6608C10.7578 12.6608 10.6578 12.2234 10.6828 11.8361C10.7078 11.4237 10.6203 11.1613 10.108 11.1738C9.37074 11.2113 8.64596 11.1863 7.90869 11.1863C7.83372 11.1863 7.75874 11.1488 7.64628 11.1238C7.65877 10.9363 7.68376 10.7614 7.69626 10.549C8.5335 10.549 9.32075 10.5365 10.108 10.549C10.7328 10.5615 10.6453 10.1241 10.6578 9.73672C10.6703 9.33685 10.6078 9.03694 10.0955 9.06193C9.42072 9.08693 8.73343 9.06193 7.97117 9.06193C8.35855 8.14972 8.95836 7.5624 9.83309 7.48743C10.6828 7.41245 11.5576 7.49992 12.4073 7.64988C13.2695 7.79983 13.3195 7.83732 13.6694 7.01258C13.7194 6.90011 13.7569 6.77515 13.8068 6.66269C14.0193 6.25032 13.8818 5.96291 13.4695 5.83794C12.8821 5.6505 12.2823 5.46306 11.67 5.36309C9.29576 4.97571 7.03397 6.10036 6.12175 8.2247C5.82185 8.89949 5.52194 9.21189 4.77218 9.09942C4.18486 9.01195 4.17236 9.44931 4.17236 9.87418C4.17236 10.324 4.28483 10.6114 4.79717 10.574C5.0221 10.5615 5.24703 10.574 5.49695 10.574C5.49695 10.7864 5.49695 10.9488 5.49695 11.1988Z" fill="#FFD882"/>
<path d="M26.1278 22.1834C25.428 22.1959 24.8032 21.6085 24.7907 20.9088C24.7782 20.2215 25.3905 19.5967 26.0778 19.5842C26.7651 19.5717 27.3899 20.1715 27.4149 20.8713C27.4274 21.5711 26.8276 22.1834 26.1278 22.1834Z" fill="#090F24"/>
<path d="M5.49675 11.1984C5.49675 10.9484 5.49675 10.786 5.49675 10.5611C5.24683 10.5611 5.0219 10.5486 4.79697 10.5611C4.28463 10.5985 4.15967 10.2986 4.17216 9.86128C4.17216 9.43641 4.19716 8.99905 4.77198 9.08652C5.50925 9.19898 5.82165 8.89908 6.12155 8.21179C7.03377 6.09995 9.29556 4.97531 11.6823 5.36269C12.2946 5.46265 12.8944 5.6501 13.4817 5.83754C13.8941 5.9625 14.0316 6.24991 13.8191 6.66228C13.7567 6.77474 13.7317 6.8997 13.6817 7.01217C13.3318 7.82441 13.2818 7.78693 12.4196 7.64947C11.5698 7.51201 10.6951 7.42454 9.84539 7.48702C8.97066 7.562 8.37085 8.14931 7.98347 9.06153C8.74573 9.06153 9.43302 9.07402 10.1078 9.06153C10.6201 9.04903 10.6826 9.33644 10.6701 9.73632C10.6576 10.1362 10.7451 10.5611 10.1203 10.5486C9.33305 10.5361 8.54579 10.5486 7.70856 10.5486C7.68356 10.7485 7.67107 10.9234 7.65857 11.1234C7.77104 11.1484 7.84601 11.1859 7.92099 11.1859C8.64576 11.1859 9.38303 11.2109 10.1078 11.1859C10.6201 11.1609 10.6951 11.4358 10.6826 11.8482C10.6701 12.248 10.7576 12.6854 10.1328 12.6729C9.40802 12.6604 8.69575 12.6729 7.95848 12.6729C8.27088 13.81 9.09562 14.5473 10.2078 14.5598C11.045 14.5723 11.8947 14.4223 12.7195 14.2599C13.1693 14.1724 13.3693 14.2724 13.5442 14.6598C14.1315 15.8844 14.0816 16.0094 12.8195 16.3967C10.2453 17.1965 7.62108 16.3467 6.38397 14.3099C6.20903 14.01 5.99659 13.6976 5.93411 13.3602C5.80915 12.7604 5.48425 12.6104 4.93443 12.6854C4.3721 12.7604 4.15967 12.5104 4.15967 11.9356C4.17216 11.3983 4.34711 11.1484 4.89694 11.2109C5.07188 11.2109 5.25932 11.1984 5.49675 11.1984Z" fill="#090F24"/>
<defs>
<linearGradient id="paint0_linear_898_24302" x1="17.9836" y1="10.2715" x2="17.9836" y2="40.9388" gradientUnits="userSpaceOnUse">
<stop stop-color="#ED9BC1"/>
<stop offset="1" stop-color="#ED9BB9"/>
</linearGradient>
</defs>
</svg>
