<svg width="26" height="26" viewBox="0 0 26 26" fill="none" xmlns="http://www.w3.org/2000/svg">
<path d="M16.1517 18.2408C14.8704 19.5221 13.2921 19.5299 12.0264 18.2564C10.2919 16.5297 8.56517 14.7952 6.83846 13.0685C5.54148 11.7715 5.54929 10.2089 6.83846 8.91187C9.48712 6.26322 12.1436 3.60675 14.7922 0.958089C16.0736 -0.315454 17.6362 -0.315454 18.9176 0.965902C20.6287 2.67698 22.3163 4.4115 24.0586 6.09133C25.0665 7.06016 25.3478 8.41183 24.6993 9.56037C24.6759 9.59943 18.0425 16.35 16.1517 18.2408ZM20.113 9.33379C20.113 8.89625 20.0817 8.44309 19.9724 8.02118C19.4567 5.9585 17.3315 4.63027 15.2532 5.0053C13.3859 5.34127 11.8858 7.02891 11.8311 8.91969C11.8076 9.84945 12.0576 10.6855 12.5811 11.498C12.3936 11.6621 12.2139 11.8106 12.0498 11.9824C11.7217 12.3262 11.7061 12.7638 12.003 13.0607C12.2999 13.3576 12.7374 13.3497 13.0812 13.0138C13.2531 12.8419 13.4015 12.6466 13.5421 12.4825C15.5111 13.717 17.5425 13.3107 18.8082 12.1075C19.402 11.5527 20.113 10.4589 20.113 9.33379Z" fill="#B7B8C5"/>
<path d="M5.0803 13.4902C7.25236 15.6623 9.40879 17.8187 11.5652 19.9673C10.9402 20.4752 10.0417 20.4049 9.37754 19.7486C8.27588 18.6625 7.18985 17.5609 6.09601 16.467C5.81474 16.1858 5.51784 15.9045 5.24438 15.6076C4.67402 15.006 4.61933 14.1622 5.0803 13.4902Z" fill="#B7B8C5"/>
<path d="M0.759737 17.6782C1.13477 17.6626 1.52543 18.0454 1.52543 18.4204C1.52543 18.7955 1.18165 19.1393 0.798802 19.1549C0.408145 19.1627 0.0721796 18.8502 0.0487402 18.4595C0.0253007 18.0689 0.369079 17.6938 0.759737 17.6782Z" fill="#B7B8C5"/>
<path d="M5.43201 18.4205C5.43201 18.7955 5.08823 19.1471 4.7132 19.1549C4.30691 19.1705 3.96314 18.8346 3.95532 18.4283C3.95532 18.0532 4.28347 17.7016 4.66632 17.6782C5.04135 17.6626 5.43201 18.0376 5.43201 18.4205Z" fill="#B7B8C5"/>
<path d="M2.71311 19.6313C3.08814 19.6157 3.47879 19.9985 3.47879 20.3736C3.47879 20.7486 3.13502 21.0924 2.75217 21.108C2.36151 21.1158 2.02555 20.8033 2.00211 20.4126C1.97867 20.022 2.32245 19.6469 2.71311 19.6313Z" fill="#B7B8C5"/>
<path d="M6.62741 19.631C7.00244 19.6232 7.38529 20.006 7.38529 20.381C7.37748 20.7561 7.0337 21.0998 6.65867 21.1077C6.26801 21.1155 5.93204 20.803 5.91642 20.4045C5.89298 20.0216 6.23675 19.6466 6.62741 19.631Z" fill="#B7B8C5"/>
<path d="M0.798802 23.0611C0.408145 23.0689 0.0721796 22.7564 0.0487402 22.3658C0.0253007 21.9751 0.369079 21.6001 0.759737 21.5844C1.13477 21.5688 1.52543 21.9517 1.51761 22.3267C1.52543 22.7017 1.18165 23.0533 0.798802 23.0611Z" fill="#B7B8C5"/>
<path d="M4.67413 23.0608C4.28347 23.053 3.96314 22.7248 3.95532 22.3342C3.95532 21.9435 4.32254 21.5763 4.70538 21.5841C5.0726 21.5997 5.43201 21.9591 5.43201 22.3264C5.43201 22.717 5.06479 23.0686 4.67413 23.0608Z" fill="#B7B8C5"/>
<path d="M3.47878 24.2954C3.47097 24.6861 3.10375 25.0377 2.70528 25.0221C2.31462 25.0064 1.99428 24.6705 2.00209 24.2798C2.00991 23.897 2.34587 23.5532 2.7209 23.5454C3.10375 23.5298 3.48659 23.9126 3.47878 24.2954Z" fill="#B7B8C5"/>
<path d="M6.65073 23.5391C7.03358 23.5469 7.40861 23.9375 7.38517 24.3126C7.36954 24.6954 7.01795 25.0236 6.63511 25.0157C6.22882 25.0157 5.89286 24.6642 5.90848 24.2579C5.92411 23.8828 6.2757 23.5391 6.65073 23.5391Z" fill="#B7B8C5"/>
<path d="M15.4954 6.49023C14.9876 7.66221 15.1048 8.57635 15.8314 9.28734C16.5346 9.9749 17.4487 10.0765 18.5348 9.59205C18.652 10.5218 17.4565 11.6391 16.2064 11.7719C14.7454 11.9282 13.4406 10.8187 13.2999 9.30297C13.1749 7.95911 14.2219 6.59962 15.4954 6.49023Z" fill="#B7B8C5"/>
<path d="M18.0894 7.69394C18.0972 8.09241 17.7456 8.44401 17.3471 8.43619C16.9643 8.42838 16.6283 8.10023 16.6205 7.71738C16.6127 7.33454 16.9408 6.99076 17.3237 6.97513C17.73 6.95951 18.0816 7.29547 18.0894 7.69394Z" fill="#B7B8C5"/>
</svg>
