<svg width="21" height="18" viewBox="0 0 21 18" fill="none" xmlns="http://www.w3.org/2000/svg">
<path d="M0.278809 7.10288C0.950616 6.31006 1.22602 5.30861 1.68084 4.40313C2.1607 3.44758 2.59049 2.46699 3.05784 1.47388C2.941 1.43633 2.84086 1.40295 2.73654 1.36957C2.41107 1.27359 2.0856 1.18597 1.76012 1.08582C1.46386 0.998195 1.33033 0.785386 1.40544 0.539196C1.47638 0.305524 1.70171 0.205379 1.9938 0.288833C3.15798 0.618478 4.318 0.956468 5.47801 1.29029C6.56292 1.60324 7.64783 1.91202 8.73273 2.22915C8.85792 2.2667 8.92885 2.25418 9.00813 2.13735C9.4421 1.49892 10.2307 1.20683 10.9693 1.40295C11.7037 1.59907 12.2378 2.2208 12.3046 2.99275C12.3213 3.20139 12.3964 3.28902 12.6008 3.34743C14.7999 3.96917 16.9947 4.59925 19.1896 5.22933C19.4858 5.31278 19.611 5.44214 19.611 5.65912C19.611 5.922 19.4149 6.11395 19.1395 6.06387C18.8683 6.0138 18.6012 5.92617 18.33 5.85107C18.2632 5.83437 18.1923 5.81351 18.0963 5.78847C18.1339 5.8761 18.1547 5.93452 18.1839 5.99294C18.9016 7.5285 19.611 9.06406 20.3412 10.5954C20.4247 10.7707 20.5916 10.9042 20.721 11.0586C20.721 11.2172 20.721 11.3799 20.721 11.5385C20.6041 11.9015 20.529 12.2854 20.3704 12.6276C19.4107 14.6472 16.6943 15.1395 15.0753 13.604C14.3951 12.9572 14.0529 12.156 14.0279 11.2255C14.0237 11.1045 14.1155 10.9752 14.1823 10.8583C14.2366 10.7624 14.3367 10.6956 14.3826 10.5996C15.1629 8.93888 15.939 7.27813 16.7151 5.61739C16.7444 5.55898 16.7652 5.49638 16.7986 5.4171C16.3271 5.28358 15.8723 5.15005 15.4133 5.02069C14.3617 4.72026 13.306 4.41982 12.2545 4.11104C12.1293 4.07349 12.0626 4.09852 11.9958 4.20284C11.7705 4.54918 11.4492 4.78285 11.0611 4.90803C10.9401 4.94976 10.9151 5.01235 10.9151 5.12501C10.9192 5.67164 10.9151 6.21826 10.9151 6.76072C10.9151 8.81787 10.9151 10.875 10.9151 12.928C10.9151 13.0073 10.9151 13.0866 10.9151 13.1909C10.9943 13.195 11.0653 13.2034 11.1362 13.2034C11.4826 13.2076 11.8289 13.195 12.1752 13.2201C13.0557 13.2743 13.6983 13.9253 13.7358 14.8057C13.7442 15.0227 13.7942 15.1145 14.0154 15.1896C14.6663 15.4108 15.0711 16.045 15.0878 16.7919C15.092 16.9255 15.0878 17.059 15.0878 17.1925C15.0836 17.5722 14.9209 17.7391 14.5412 17.7391C12.6259 17.7391 10.7064 17.7391 8.79115 17.7391C8.0192 17.7391 7.24725 17.7391 6.47529 17.7391C6.08306 17.7391 5.9245 17.5764 5.92032 17.18C5.91615 16.7919 5.9078 16.408 6.07889 16.045C6.2917 15.6027 6.62551 15.2939 7.09703 15.1521C7.22221 15.1145 7.25977 15.0603 7.26394 14.9309C7.28897 13.8919 7.96495 13.2243 9.00396 13.2034C9.30857 13.1992 9.61735 13.195 9.92196 13.2034C10.0555 13.2076 10.093 13.1575 10.093 13.0323C10.0889 10.391 10.0889 7.74965 10.093 5.10832C10.093 4.98314 10.0471 4.94141 9.93865 4.89969C9.2126 4.63263 8.78281 4.11939 8.70353 3.33909C8.68266 3.15132 8.62842 3.05952 8.4323 3.00527C7.15127 2.65059 5.87442 2.27922 4.59757 1.91202C4.53498 1.89533 4.47239 1.88281 4.38059 1.85777C4.41397 1.94123 4.43066 1.99547 4.45153 2.04555C5.16923 3.58528 5.88694 5.12919 6.61299 6.66892C6.65055 6.7482 6.71731 6.81496 6.78825 6.86921C6.93012 6.97353 6.98437 7.11123 6.98437 7.28231C6.97185 8.67599 5.94953 10.0238 4.61009 10.4035C3.15798 10.8166 1.76012 10.3409 0.87968 9.10996C0.566726 8.67182 0.383127 8.17527 0.320536 7.63699C0.316363 7.59109 0.299672 7.54936 0.287154 7.50346C0.278809 7.36993 0.278809 7.23641 0.278809 7.10288ZM3.62116 2.21663C2.90345 3.75636 2.20243 5.25437 1.49724 6.76906C2.92848 6.76906 4.32634 6.76906 5.74507 6.76906C5.03571 5.25019 4.33469 3.75219 3.62116 2.21663ZM19.49 10.7331C18.7765 9.2101 18.0796 7.70792 17.3619 6.17654C16.6442 7.71627 15.9432 9.21845 15.2338 10.7331C16.6651 10.7331 18.0588 10.7331 19.49 10.7331ZM14.9084 11.5802C15.0419 12.6651 16.0725 13.6707 17.387 13.6582C18.693 13.6457 19.7028 12.6234 19.8322 11.5802C18.1923 11.5802 16.5524 11.5802 14.9084 11.5802ZM6.09975 7.62864C4.44735 7.62864 2.80748 7.62864 1.1676 7.62864C1.3053 8.68017 2.23999 9.6232 3.42921 9.69414C4.75196 9.77342 5.88694 8.88463 6.09975 7.62864ZM6.76321 16.8796C9.26684 16.8796 11.7538 16.8796 14.2407 16.8796C14.2783 16.2787 13.9194 15.899 13.3102 15.899C11.4367 15.8948 9.55893 15.899 7.68538 15.899C7.63114 15.899 7.58106 15.9031 7.52682 15.9115C7.01775 15.9741 6.71731 16.3496 6.76321 16.8796ZM12.9055 15.0603C12.9305 14.7723 12.8929 14.5261 12.7093 14.3175C12.509 14.0922 12.2462 14.0254 11.9541 14.0254C10.986 14.0254 10.0138 14.0254 9.04569 14.0254C8.95389 14.0254 8.85792 14.0338 8.77029 14.0505C8.29877 14.1339 7.98582 14.6179 8.12769 15.0603C9.70915 15.0603 11.2948 15.0603 12.9055 15.0603ZM10.4936 4.15694C11.0444 4.16111 11.4867 3.72715 11.4951 3.1847C11.5034 2.6339 11.0569 2.18325 10.502 2.18325C9.95534 2.18325 9.50886 2.62555 9.50886 3.16801C9.50469 3.70629 9.947 4.15277 10.4936 4.15694Z" fill="white"/>
</svg>
