<svg width="17" height="16" viewBox="0 0 17 16" fill="none" xmlns="http://www.w3.org/2000/svg">
<path d="M12.1288 10.0629H11.402L11.1506 9.81132C12.0465 8.77303 12.5859 7.42367 12.5859 5.94627C12.5859 2.66209 9.92551 0 6.64349 0C3.36147 0 0.70105 2.66209 0.70105 5.94627C0.70105 9.23045 3.36143 11.8925 6.64349 11.8925C8.11994 11.8925 9.46842 11.3528 10.506 10.4608L10.7575 10.7124V11.4351L15.3285 16L16.6907 14.6369L12.1288 10.0629ZM6.64349 10.0629C4.37167 10.0629 2.5295 8.21955 2.5295 5.94627C2.5295 3.67299 4.37167 1.82963 6.64349 1.82963C8.91531 1.82963 10.7575 3.67299 10.7575 5.94627C10.7575 8.21955 8.91531 10.0629 6.64349 10.0629Z" fill="#090F24"/>
</svg>
