<svg width="25" height="21" viewBox="0 0 25 21" fill="none" xmlns="http://www.w3.org/2000/svg">
<path d="M12.3212 6.16029C12.1533 6.16029 11.9931 6.16029 11.8252 6.16029C8.49004 6.16029 5.16255 6.16029 1.82743 6.15266C1.55268 6.15266 1.26267 6.1145 1.01082 6.00765C0.5758 5.81685 0.323949 5.28262 0.400267 4.80182C0.468954 4.30574 0.827652 3.90889 1.31609 3.80967C1.49162 3.77151 1.66716 3.77151 1.85032 3.77151C5.19308 3.77151 8.53584 3.77151 11.8862 3.77151C12.0389 3.77151 12.1915 3.77151 12.3441 3.77151C12.7639 2.34436 13.5958 1.28353 14.9161 0.642449C17.5262 -0.632072 20.6629 0.68824 21.5787 3.45098C21.6626 3.70283 21.7695 3.78678 22.029 3.77915C22.5403 3.75625 23.044 3.76388 23.5553 3.77915C24.2956 3.79441 24.8146 4.29048 24.8146 4.97735C24.8146 5.64895 24.3185 6.13739 23.5859 6.16029C23.0516 6.17555 22.5174 6.16792 21.9832 6.16029C21.7771 6.15266 21.6703 6.21371 21.594 6.4274C20.8613 8.5338 19.0754 9.80832 16.9233 9.78542C14.8474 9.76253 13.0921 8.41932 12.3976 6.32819C12.3747 6.27477 12.3518 6.22897 12.3212 6.16029ZM19.4189 4.97735C19.4189 3.61124 18.3504 2.52752 16.9996 2.52752C15.6716 2.52752 14.5879 3.62651 14.5879 4.96208C14.5879 6.29766 15.6716 7.38139 17.0072 7.38902C18.3428 7.39665 19.4189 6.32819 19.4189 4.97735Z" fill="#74CCD8"/>
<path d="M18.3503 17.1737C16.6331 17.1737 14.9159 17.1813 13.1988 17.166C12.9316 17.166 12.8095 17.2347 12.7103 17.5018C11.9777 19.4785 10.2071 20.7072 8.15409 20.6996C6.14691 20.6919 4.33053 19.4174 3.66655 17.5171C3.56734 17.2271 3.42997 17.1584 3.15522 17.166C2.65915 17.1889 2.16308 17.1813 1.667 17.1737C0.919082 17.1584 0.400115 16.6776 0.384851 15.9907C0.377219 15.3038 0.880922 14.8078 1.63648 14.7849C2.11728 14.7696 2.60572 14.762 3.08653 14.7925C3.39944 14.8154 3.51392 14.6933 3.61313 14.4109C4.19315 12.7014 5.38372 11.61 7.13142 11.1979C9.55835 10.6255 12.0311 12.0603 12.7637 14.4567C12.8477 14.7391 12.9774 14.7925 13.2445 14.7925C16.6178 14.7849 19.9835 14.7849 23.3568 14.7925C23.6315 14.7925 23.9215 14.8307 24.1734 14.9375C24.6466 15.1436 24.8908 15.716 24.7839 16.212C24.6694 16.7463 24.2497 17.1355 23.6926 17.166C23.2728 17.1889 22.8531 17.1737 22.4333 17.1737C21.0748 17.1737 19.7087 17.1737 18.3503 17.1737ZM5.78058 15.9449C5.72716 17.0897 6.75746 18.3642 8.2762 18.3108C9.63467 18.265 10.665 17.1279 10.6116 15.7312C10.5658 14.4567 9.39808 13.4111 8.07777 13.4569C6.77272 13.5027 5.73479 14.6246 5.78058 15.9449Z" fill="#74CCD8"/>
</svg>
