<svg width="26" height="26" viewBox="0 0 26 26" fill="none" xmlns="http://www.w3.org/2000/svg">
<path d="M19.0499 25.0241C17.5037 25.0241 15.9574 25.0241 14.4112 25.0241C13.573 25.0241 13.1091 24.5684 13.1091 23.722C13.1091 20.6133 13.1091 17.4964 13.1091 14.3877C13.1091 13.5413 13.5649 13.0938 14.4112 13.0938C17.5199 13.0938 20.6368 13.0938 23.7455 13.0938C24.5919 13.0938 25.0476 13.5495 25.0476 14.3958C25.0476 17.5046 25.0476 20.6214 25.0476 23.7301C25.0476 24.5684 24.5837 25.0241 23.7455 25.0322C22.183 25.0241 20.6205 25.0241 19.0499 25.0241ZM19.0743 22.1758C19.8067 22.1758 20.5391 22.1758 21.2716 22.1758C21.8005 22.1758 22.0528 21.8014 21.8412 21.3213C21.1088 19.6611 20.3682 18.001 19.6358 16.3408C19.53 16.0967 19.3591 15.9421 19.0824 15.9421C18.8057 15.9421 18.643 16.1048 18.5291 16.349C17.7966 18.001 17.0642 19.6449 16.3318 21.2969C16.1121 21.8014 16.3643 22.1758 16.9096 22.1758C17.6339 22.1758 18.3582 22.1758 19.0743 22.1758Z" fill="#B7B8C5"/>
<path d="M18.5292 5.99707C18.5292 7.54329 18.5292 9.08952 18.5292 10.6357C18.5292 11.5065 18.0816 11.9622 17.2189 11.9622C14.1102 11.9622 10.9934 11.9622 7.88463 11.9622C7.04641 11.9622 6.59069 11.5065 6.59069 10.652C6.59069 7.55143 6.59069 4.45085 6.59069 1.34212C6.58255 0.471354 7.03014 0.015625 7.89277 0.015625C11.0015 0.015625 14.1184 0.015625 17.2271 0.015625C18.0653 0.015625 18.521 0.479492 18.521 1.32585C18.5292 2.88021 18.5292 4.43457 18.5292 5.99707ZM10.4481 7.46191C10.4481 7.68164 10.4481 7.86881 10.4481 8.06413C10.4481 8.60124 10.7899 8.84538 11.2863 8.67448C11.6444 8.55241 11.9943 8.41406 12.3524 8.30827C12.4745 8.26758 12.6291 8.26758 12.7593 8.30827C13.1337 8.4222 13.508 8.57682 13.8824 8.69889C14.3055 8.83724 14.6392 8.60937 14.6636 8.16178C14.6717 8.04785 14.6717 7.93392 14.6555 7.82812C14.5253 7.07943 14.6962 6.42839 15.2658 5.89941C15.3309 5.83431 15.3797 5.76107 15.4367 5.68782C15.7622 5.24023 15.6483 4.77637 15.1193 4.68685C14.1753 4.51595 13.508 4.05208 13.0685 3.18945C12.8407 2.75 12.3361 2.78255 12.0432 3.18131C11.8234 3.49056 11.6281 3.80794 11.4003 4.10905C11.3189 4.22298 11.1805 4.3125 11.0503 4.36133C10.7085 4.4834 10.3505 4.56478 10.0005 4.67057C9.49596 4.8252 9.35761 5.2321 9.66686 5.65527C9.78079 5.8099 9.88658 5.97266 10.0249 6.111C10.383 6.50163 10.6027 6.93294 10.4481 7.46191Z" fill="#B7B8C5"/>
<path d="M0.0476074 19.0511C0.0476074 17.4967 0.0476074 15.9424 0.0476074 14.3799C0.0476074 13.5335 0.503337 13.0859 1.34969 13.0859C4.45841 13.0859 7.57528 13.0859 10.684 13.0859C11.5304 13.0859 11.9861 13.5417 11.9861 14.388C11.9861 17.4967 11.9861 20.6136 11.9861 23.7223C11.9861 24.5605 11.5222 25.0244 10.684 25.0244C7.57528 25.0244 4.45841 25.0244 1.34969 25.0244C0.511475 25.0244 0.0557454 24.5687 0.0476074 23.7223C0.0476074 22.168 0.0476074 20.6055 0.0476074 19.0511ZM6.01278 22.4609C7.89266 22.4609 9.43075 20.9229 9.43075 19.0511C9.43075 17.1794 7.87638 15.6331 6.01278 15.6413C4.14917 15.6494 2.61922 17.1794 2.61108 19.043C2.60295 20.9147 4.14103 22.4609 6.01278 22.4609Z" fill="#B7B8C5"/>
</svg>
