<svg width="25" height="21" viewBox="0 0 25 21" fill="none" xmlns="http://www.w3.org/2000/svg">
<path d="M24.6152 2.39308C23.6998 2.79462 22.7244 3.06078 21.7075 3.19001C22.7537 2.56539 23.5521 1.58385 23.9275 0.400775C22.9521 0.982314 21.8752 1.39308 20.7275 1.62231C19.8014 0.63616 18.4814 0.0253906 17.0414 0.0253906C14.2475 0.0253906 11.9983 2.29308 11.9983 5.07308C11.9983 5.47308 12.0321 5.8577 12.1152 6.22385C7.91982 6.01924 4.20751 4.00847 1.71366 0.945391C1.27828 1.70078 1.02289 2.56539 1.02289 3.49616C1.02289 5.24385 1.92289 6.79308 3.26443 7.69001C2.45366 7.67462 1.65828 7.43924 0.984432 7.06847C0.984432 7.08385 0.984432 7.10385 0.984432 7.12385C0.984432 9.57616 2.73366 11.6131 5.02751 12.0823C4.61674 12.1946 4.16905 12.2485 3.70443 12.2485C3.38136 12.2485 3.0552 12.23 2.74905 12.1623C3.40289 14.1608 5.25828 15.63 7.46443 15.6777C5.74751 17.0208 3.56751 17.83 1.20751 17.83C0.793663 17.83 0.39674 17.8115 -0.000183105 17.7608C2.2352 19.2023 4.88443 20.0254 7.74136 20.0254C17.0275 20.0254 22.1044 12.3331 22.1044 5.66539C22.1044 5.44231 22.0967 5.22693 22.086 5.01308C23.0875 4.30231 23.929 3.41462 24.6152 2.39308Z" fill="#74CCD8"/>
</svg>
