<svg width="35" height="35" viewBox="0 0 35 35" fill="none" xmlns="http://www.w3.org/2000/svg">
<mask id="mask0_888_15477" style="mask-type:alpha" maskUnits="userSpaceOnUse" x="0" y="0" width="35" height="35">
<circle cx="17.5133" cy="17.9238" r="17" fill="#7E8187"/>
</mask>
<g mask="url(#mask0_888_15477)">
<circle cx="17.5133" cy="17.9238" r="17" fill="#B7B8C5"/>
<path d="M17.5133 17.7269C19.5084 17.7269 21.1258 15.7624 21.1258 13.339C21.1258 10.9157 20.5948 8.95117 17.5133 8.95117C14.4319 8.95117 13.9008 10.9157 13.9008 13.339C13.9008 15.7624 15.5182 17.7269 17.5133 17.7269Z" fill="#F4F5F9"/>
<path d="M10.69 24.4275C10.6894 24.2797 10.6888 24.3859 10.69 24.4275V24.4275Z" fill="#F4F5F9"/>
<path d="M24.3363 24.5432C24.3383 24.5025 24.337 24.261 24.3363 24.5432V24.5432Z" fill="#F4F5F9"/>
<path d="M24.3285 24.2503C24.2616 20.0288 23.7103 18.8259 19.4913 18.0645C19.4913 18.0645 18.8974 18.8212 17.5132 18.8212C16.1289 18.8212 15.535 18.0645 15.535 18.0645C11.362 18.8176 10.7771 20.0026 10.7002 24.1131C10.6939 24.4488 10.691 24.4664 10.6899 24.4275C10.6901 24.5005 10.6904 24.6355 10.6904 24.871C10.6904 24.871 11.6949 26.8959 17.5132 26.8959C23.3314 26.8959 24.3359 24.871 24.3359 24.871C24.3359 24.7197 24.336 24.6145 24.3362 24.5429C24.335 24.567 24.3328 24.5203 24.3285 24.2503Z" fill="#F4F5F9"/>
</g>
</svg>
