<svg width="20" height="21" viewBox="0 0 20 21" fill="none" xmlns="http://www.w3.org/2000/svg">
<path d="M9.37511 0.0253906C9.79202 0.0253906 10.2089 0.0253906 10.6259 0.0253906C10.9594 0.0681525 11.2972 0.0980859 11.6286 0.155814C14.0189 0.572743 16.0265 1.68669 17.5937 3.53828C19.5757 5.88164 20.339 8.59916 19.8622 11.6288C19.4474 14.2566 18.1368 16.3904 16.018 17.9961C13.8372 19.6488 11.3613 20.2838 8.65031 19.9311C6.65553 19.6724 4.9002 18.8556 3.39502 17.5193C1.6568 15.9756 0.570673 14.0577 0.155894 11.7678C0.0896144 11.3979 0.0511298 11.0238 -0.000183105 10.6496C-0.000183105 10.2327 -0.000183105 9.81573 -0.000183105 9.3988C0.0425776 9.06526 0.0767862 8.72958 0.132375 8.39604C0.485151 6.31567 1.39809 4.51539 2.87975 3.01445C4.37638 1.50068 6.17661 0.549224 8.27616 0.179334C8.63962 0.115191 9.00737 0.0767049 9.37511 0.0253906ZM9.16986 7.72895C9.16986 8.59488 9.17627 9.46081 9.16558 10.3267C9.1613 10.6496 9.27248 10.8976 9.49911 11.1242C10.8247 12.4413 12.1439 13.7648 13.4652 15.084C13.5165 15.1353 13.5657 15.1866 13.6191 15.2337C14.0938 15.642 14.81 15.4197 14.9704 14.8125C15.058 14.4746 14.9426 14.2031 14.7031 13.9658C13.463 12.7278 12.2272 11.4877 10.985 10.254C10.8675 10.1386 10.8247 10.0231 10.8268 9.86277C10.8354 9.35604 10.8311 8.84717 10.8311 8.34045C10.8311 7.26071 10.829 6.17883 10.8332 5.09909C10.8332 4.83183 10.767 4.5945 10.5639 4.4149C10.3009 4.18185 9.99514 4.1284 9.67443 4.26737C9.35373 4.40421 9.17841 4.66292 9.17627 5.01784C9.16772 5.91798 9.16986 6.8224 9.16986 7.72895Z" fill="#686877"/>
</svg>
