<svg width="25" height="26" viewBox="0 0 25 26" fill="none" xmlns="http://www.w3.org/2000/svg">
<path d="M11.2391 17.6074V11.062H13.0544V17.6074H11.2391ZM12.151 10.2182C11.8811 10.2182 11.6496 10.1287 11.4564 9.94975C11.2661 9.76793 11.1709 9.5506 11.1709 9.29776C11.1709 9.04776 11.2661 8.83327 11.4564 8.6543C11.6496 8.47248 11.8811 8.38157 12.151 8.38157C12.4209 8.38157 12.651 8.47248 12.8414 8.6543C13.0345 8.83327 13.1311 9.04776 13.1311 9.29776C13.1311 9.5506 13.0345 9.76793 12.8414 9.94975C12.651 10.1287 12.4209 10.2182 12.151 10.2182Z" fill="url(#paint0_linear_951_47322)"/>
<path d="M23.1074 13.1074C23.1074 19.4755 18.1296 24.5781 12.0615 24.5781C5.99342 24.5781 1.01562 19.4755 1.01562 13.1074C1.01562 6.73938 5.99342 1.63672 12.0615 1.63672C18.1296 1.63672 23.1074 6.73938 23.1074 13.1074Z" stroke="url(#paint1_linear_951_47322)" stroke-width="2"/>
<defs>
<linearGradient id="paint0_linear_951_47322" x1="12.0611" y1="3.60742" x2="12.0611" y2="22.6074" gradientUnits="userSpaceOnUse">
<stop stop-color="#ED9BC1"/>
<stop offset="1" stop-color="#ED9BB9"/>
</linearGradient>
<linearGradient id="paint1_linear_951_47322" x1="12.0615" y1="0.636719" x2="12.0615" y2="25.5781" gradientUnits="userSpaceOnUse">
<stop stop-color="#ED9BC1"/>
<stop offset="1" stop-color="#ED9BB9"/>
</linearGradient>
</defs>
</svg>
