<svg width="17" height="17" viewBox="0 0 17 17" fill="none" xmlns="http://www.w3.org/2000/svg">
<path d="M14.1616 2.31682C12.6473 0.848248 10.6588 0.0253906 8.53877 0.0253906C2.39877 0.0253906 -1.40695 6.64253 1.62162 11.9168L0.495911 16.0254L4.73305 14.9454C6.59305 15.9397 8.06163 15.854 8.53877 15.8968C15.6302 15.8968 19.1331 7.33396 14.1616 2.31682Z" fill="#ECEFF1"/>
<path d="M8.53877 14.5107C6.41877 14.5107 5.03592 13.5164 4.90734 13.4307L2.39877 14.0792L3.0902 11.7021L2.91592 11.4421C2.2702 10.4021 1.92163 9.19352 1.92163 7.93923C1.92163 2.05923 9.05592 -0.83791 13.2073 3.2678C17.3588 7.37352 14.4645 14.5107 8.53877 14.5107Z" fill="#4CAF50"/>
<path d="M12.1702 9.58246V9.62532C11.9531 9.5396 11.0016 9.06246 10.8302 8.97675C10.4416 8.84818 10.5274 8.93389 9.75021 9.84246C9.62164 9.97103 9.53307 9.97103 9.31878 9.88532C9.10164 9.7996 8.49592 9.58246 7.71878 8.89103C7.11307 8.37103 6.72449 7.72246 6.59307 7.50818C6.37592 7.16246 6.81021 7.1196 7.19878 6.42818C7.28449 6.2996 7.24164 6.16818 7.19878 6.08246C7.15592 5.99675 6.76735 5.00246 6.59307 4.61103C6.41878 4.22246 6.24735 4.26532 6.16164 4.26532C5.77307 4.22246 5.51307 4.22246 5.25307 4.48246C4.17307 5.65103 4.43021 6.90532 5.38164 8.20246C7.19878 10.5796 8.15021 11.0139 9.92164 11.6196C10.3959 11.7482 10.8302 11.7482 11.1759 11.7053C11.5645 11.6625 12.3445 11.231 12.5159 10.7539C12.6874 10.2767 12.6902 9.88818 12.6445 9.80246C12.4731 9.71103 12.3445 9.66818 12.1702 9.58246Z" fill="#FAFAFA"/>
</svg>
