<svg width="47" height="47" viewBox="0 0 47 47" fill="none" xmlns="http://www.w3.org/2000/svg">
<rect opacity="0.85" x="0.74231" y="0.625" width="46" height="46" rx="23" fill="#F4F5F9"/>
<path d="M24.7328 30.8665C24.3349 31.1194 23.9969 31.3234 23.7456 31.4712C23.4939 31.3214 23.155 31.1144 22.7559 30.8581C21.8614 30.2837 20.6741 29.4672 19.4917 28.4945C18.3044 27.5177 17.1519 26.4076 16.3038 25.2508C15.4475 24.0828 14.9704 22.9614 14.9704 21.9411C14.9704 19.5575 16.9027 17.6252 19.2864 17.6252V17.6252L19.2941 17.6251C20.7499 17.6138 22.1109 18.346 22.9036 19.567L23.7374 20.8515L24.5782 19.5715C25.3779 18.354 26.7379 17.622 28.1946 17.6252C30.5747 17.6374 32.5013 19.5636 32.5142 21.9436C32.5134 22.9856 32.0339 24.1168 31.18 25.2849C30.3327 26.4441 29.1812 27.551 27.9948 28.5223C26.8133 29.4896 25.6267 30.2984 24.7328 30.8665Z" stroke="#B7B8C5" stroke-width="2"/>
</svg>
