<svg width="26" height="20" viewBox="0 0 26 20" fill="none" xmlns="http://www.w3.org/2000/svg">
<path d="M13.0493 18.8377C13.0435 18.8411 13.0378 18.8444 13.0321 18.8477C13.0258 18.844 13.0195 18.8403 13.0131 18.8365C12.6886 18.6447 12.2225 18.362 11.6621 18.0019C10.5393 17.2804 9.0476 16.254 7.56084 15.0301C6.06914 13.8021 4.61221 12.3995 3.53578 10.9304C2.45117 9.44999 1.82178 7.99624 1.82178 6.6451C1.82178 3.52693 4.34775 1.0002 7.4624 1.0002V1.00023L7.4702 1.00017C9.3735 0.985318 11.1532 1.94324 12.1899 3.54117L13.0239 4.82666L13.8648 3.54564C14.9102 1.95306 16.6878 0.996001 18.5915 1.0002C21.7011 1.016 24.2193 3.53449 24.2357 6.64758C24.235 8.0253 23.6031 9.49128 22.5209 10.9727C21.4453 12.4451 19.9894 13.844 18.4986 15.0652C17.0126 16.2825 15.5217 17.2994 14.3995 18.0131C13.8394 18.3693 13.3735 18.6484 13.0493 18.8377Z" stroke="#B7B8C5" stroke-width="2"/>
</svg>
