<svg width="30" height="21" viewBox="0 0 30 21" fill="none" xmlns="http://www.w3.org/2000/svg">
<path d="M28.8541 3.15311C28.5265 1.92455 27.5642 0.96217 26.3356 0.634553C24.0986 0.0253903 15.1608 0.0253906 15.1608 0.0253906C15.1608 0.0253906 6.22298 0.0253906 3.98597 0.614078C2.783 0.941695 1.79503 1.92966 1.46741 3.15311C0.878723 5.385 0.878723 10.0228 0.878723 10.0228C0.878723 10.0228 0.878723 14.6811 1.46741 16.8977C1.79503 18.1262 2.7574 19.0886 3.98597 19.4162C6.23833 20.0254 15.1557 20.0254 15.1557 20.0254C15.1557 20.0254 24.0935 20.0254 26.3305 19.4367C27.559 19.1091 28.5214 18.1467 28.849 16.9181C29.4428 14.6811 29.4428 10.0433 29.4428 10.0433C29.4428 10.0433 29.4633 5.39012 28.8541 3.15311ZM12.3146 14.3126V5.73821L19.7474 10.0228L12.3146 14.3126Z" fill="#74CCD8"/>
</svg>
