<svg width="39" height="39" viewBox="0 0 39 39" fill="none" xmlns="http://www.w3.org/2000/svg">
<g filter="url(#filter0_d_898_22068)">
<rect x="4.17261" y="2.04102" width="30" height="30" rx="3" fill="#28A9E0"/>
<path d="M27.8649 11.5553C27.207 11.8439 26.5059 12.0352 25.775 12.1281C26.5269 11.6791 27.1008 10.9737 27.3706 10.1233C26.6696 10.5413 25.8955 10.8365 25.0706 11.0013C24.405 10.2925 23.4562 9.85352 22.4212 9.85352C20.4131 9.85352 18.7965 11.4834 18.7965 13.4815C18.7965 13.769 18.8208 14.0455 18.8805 14.3087C15.8651 14.1616 13.1969 12.7164 11.4044 10.5148C11.0915 11.0577 10.9079 11.6791 10.9079 12.3481C10.9079 13.6043 11.5548 14.7178 12.519 15.3625C11.9363 15.3514 11.3646 15.1822 10.8803 14.9157C10.8803 14.9268 10.8803 14.9412 10.8803 14.9555C10.8803 16.7181 12.1376 18.1822 13.7863 18.5194C13.491 18.6002 13.1692 18.6389 12.8353 18.6389C12.6031 18.6389 12.3687 18.6256 12.1486 18.5769C12.6186 20.0133 13.9521 21.0693 15.5378 21.1036C14.3038 22.0689 12.7369 22.6506 11.0406 22.6506C10.7432 22.6506 10.4579 22.6373 10.1726 22.6008C11.7793 23.6369 13.6834 24.2285 15.7368 24.2285C22.4113 24.2285 26.0603 18.6997 26.0603 13.9073C26.0603 13.7469 26.0548 13.5921 26.047 13.4384C26.7669 12.9276 27.3717 12.2895 27.8649 11.5553Z" fill="white"/>
</g>
<defs>
<filter id="filter0_d_898_22068" x="0.172607" y="0.0410156" width="38" height="38" filterUnits="userSpaceOnUse" color-interpolation-filters="sRGB">
<feFlood flood-opacity="0" result="BackgroundImageFix"/>
<feColorMatrix in="SourceAlpha" type="matrix" values="0 0 0 0 0 0 0 0 0 0 0 0 0 0 0 0 0 0 127 0" result="hardAlpha"/>
<feOffset dy="2"/>
<feGaussianBlur stdDeviation="2"/>
<feComposite in2="hardAlpha" operator="out"/>
<feColorMatrix type="matrix" values="0 0 0 0 0.200521 0 0 0 0 0.767083 0 0 0 0 0.875 0 0 0 0.2 0"/>
<feBlend mode="normal" in2="BackgroundImageFix" result="effect1_dropShadow_898_22068"/>
<feBlend mode="normal" in="SourceGraphic" in2="effect1_dropShadow_898_22068" result="shape"/>
</filter>
</defs>
</svg>
